<?xml version="1.0" encoding="UTF-8" standalone="no"?>
<svg
   xmlns:dc="http://purl.org/dc/elements/1.1/"
   xmlns:cc="http://creativecommons.org/ns#"
   xmlns:rdf="http://www.w3.org/1999/02/22-rdf-syntax-ns#"
   xmlns:svg="http://www.w3.org/2000/svg"
   xmlns="http://www.w3.org/2000/svg"
   xmlns:sodipodi="http://sodipodi.sourceforge.net/DTD/sodipodi-0.dtd"
   xmlns:inkscape="http://www.inkscape.org/namespaces/inkscape"
   sodipodi:docname="Clear_3mm.svg"
   inkscape:version="1.0 (4035a4fb49, 2020-05-01)"
   id="svg8"
   version="1.1"
   viewBox="0 0 82.009774 82.009771"
   height="82.009773mm"
   width="82.009773mm">
  <defs
     id="defs2" />
  <sodipodi:namedview
     fit-margin-right="1"
     fit-margin-top="1"
     fit-margin-bottom="1"
     fit-margin-left="1"
     inkscape:snap-smooth-nodes="true"
     inkscape:window-maximized="1"
     inkscape:window-y="-8"
     inkscape:window-x="-8"
     inkscape:window-height="1017"
     inkscape:window-width="1920"
     inkscape:snap-global="true"
     inkscape:bbox-paths="true"
     inkscape:snap-bbox-midpoints="true"
     inkscape:snap-bbox="false"
     inkscape:guide-bbox="true"
     showguides="true"
     showgrid="false"
     inkscape:document-rotation="0"
     inkscape:current-layer="layer8"
     inkscape:document-units="mm"
     inkscape:cy="62.531097"
     inkscape:cx="257.90496"
     inkscape:zoom="1.4142136"
     inkscape:pageshadow="2"
     inkscape:pageopacity="0.0"
     borderopacity="1.0"
     bordercolor="#666666"
     pagecolor="#ffffff"
     id="base">
    <inkscape:grid
       originy="-108.995"
       originx="-1.9951221"
       spacingy="1"
       spacingx="1"
       units="mm"
       id="grid842"
       type="xygrid" />
    <sodipodi:guide
       id="guide844"
       orientation="1,0"
       position="-1.9951221,196.29645" />
    <sodipodi:guide
       id="guide846"
       orientation="1,0"
       position="78.004879,136.00477" />
    <sodipodi:guide
       id="guide848"
       orientation="0,-1"
       position="-2.9951221,191.00478" />
  </sodipodi:namedview>
  <metadata
     id="metadata5">
    <rdf:RDF>
      <cc:Work
         rdf:about="">
        <dc:format>image/svg+xml</dc:format>
        <dc:type
           rdf:resource="http://purl.org/dc/dcmitype/StillImage" />
        <dc:title />
      </cc:Work>
    </rdf:RDF>
  </metadata>
  <g
     inkscape:groupmode="layer"
     id="layer8"
     inkscape:label="plots"
     sodipodi:insensitive="true"
     style="display:inline"
     transform="translate(-3.0451221,-110.045)">
    <g
       inkscape:groupmode="layer"
       id="layer7"
       inkscape:label="Clear_3mm"
       style="display:inline">
      <path
         id="rect1175-6"
         style="display:inline;opacity:1;fill:none;stroke:#0000ff;stroke-width:0.01;stroke-linecap:round;stroke-miterlimit:4;stroke-dasharray:none;stroke-dashoffset:37.7953"
         d="m 6.0500001,111.05 c -1.108001,0 -1.999878,0.89188 -1.999878,1.99988 v 76.00001 c 0,1.108 0.891877,1.99988 1.999878,1.99988 H 39.050053 v -2.99982 h -1.999877 v -3.52898 h 14.000178 v 3.52898 h -2.000395 v 2.99982 h 33.000053 c 1.108,0 1.99988,-0.89188 1.99988,-1.99988 v -76.00001 c 0,-1.108 -0.89188,-1.99988 -1.99988,-1.99988 z m 5.4714999,5.00021 c 0.0095,-5e-5 0.01895,-5e-5 0.02842,0 1.380593,-6e-5 2.499879,1.119 2.500106,2.49959 5.9e-5,1.38079 -1.119311,2.50016 -2.500106,2.50011 -1.380592,-2.3e-4 -2.499647,-1.11952 -2.499588,-2.50011 1.33e-4,-1.36937 1.101888,-2.4838 2.471166,-2.49959 z m 44.528552,0 h 2.99981 v 9.99991 h -2.99981 z m 20.4711,0 c 0.01,-5e-5 0.0193,-5e-5 0.0289,0 1.38059,-6e-5 2.49988,1.119 2.50011,2.49959 6e-5,1.3808 -1.11932,2.50016 -2.50011,2.50011 -1.38079,5e-5 -2.50016,-1.11932 -2.5001,-2.50011 1.3e-4,-1.36937 1.10189,-2.4838 2.47116,-2.49959 z m -7.4706,12.99991 h 4.9997 c 1.10799,0 1.9999,0.89188 1.99987,1.99988 l -2.6e-4,10.00024 c -3e-5,1.108 -0.89188,1.99987 -1.99988,1.99987 h -4.99969 c -1.108,0 -2.0004,-0.89187 -2.0004,-1.99987 l 2.7e-4,-10.00024 c 2e-5,-1.108 0.89239,-1.99988 2.00039,-1.99988 z m -42.471056,32.76009 c 0.132376,1.2e-4 0.239657,0.1074 0.239779,0.23978 -1.22e-4,0.13237 -0.107403,0.23965 -0.239779,0.23978 -0.132577,1.6e-4 -0.240173,-0.10721 -0.240295,-0.23978 1.22e-4,-0.13258 0.107718,-0.23995 0.240295,-0.23978 z m 0.999939,0 c 0.132376,1.2e-4 0.239657,0.1074 0.239779,0.23978 -1.22e-4,0.13237 -0.107403,0.23965 -0.239779,0.23978 -0.132577,1.6e-4 -0.240172,-0.10721 -0.240295,-0.23978 1.23e-4,-0.13258 0.107718,-0.23995 0.240295,-0.23978 z m 0.999939,0 c 0.132375,1.2e-4 0.239657,0.1074 0.239779,0.23978 -1.22e-4,0.13237 -0.107404,0.23965 -0.239779,0.23978 -0.132577,1.6e-4 -0.240172,-0.10721 -0.240295,-0.23978 1.23e-4,-0.13258 0.107718,-0.23995 0.240295,-0.23978 z m 0.999939,0 c 0.132375,1.2e-4 0.239657,0.1074 0.239779,0.23978 -1.22e-4,0.13237 -0.107404,0.23965 -0.239779,0.23978 -0.132376,-1.3e-4 -0.239657,-0.10741 -0.239779,-0.23978 1.22e-4,-0.13238 0.107403,-0.23966 0.239779,-0.23978 z m 0.99994,0 c 0.132377,1.2e-4 0.239657,0.1074 0.239779,0.23978 -1.22e-4,0.13237 -0.107402,0.23965 -0.239779,0.23978 -0.132378,-1.3e-4 -0.239658,-0.10741 -0.23978,-0.23978 1.22e-4,-0.13238 0.107402,-0.23966 0.23978,-0.23978 z m 0.99994,0 c 0.132572,-1.7e-4 0.240173,0.1072 0.240295,0.23978 -1.22e-4,0.13257 -0.107723,0.23994 -0.240295,0.23978 -0.132376,-1.3e-4 -0.239659,-0.10741 -0.239781,-0.23978 1.22e-4,-0.13238 0.107405,-0.23966 0.239781,-0.23978 z m 25.000019,0 c 0.13258,-1.7e-4 0.24018,0.1072 0.2403,0.23978 -1.2e-4,0.13257 -0.10772,0.23994 -0.2403,0.23978 -0.13237,-1.3e-4 -0.23965,-0.10741 -0.23977,-0.23978 1.2e-4,-0.13238 0.1074,-0.23966 0.23977,-0.23978 z m 0.99994,0 c 0.13258,-1.7e-4 0.24018,0.1072 0.2403,0.23978 -1.2e-4,0.13257 -0.10772,0.23994 -0.2403,0.23978 -0.13237,-1.3e-4 -0.23965,-0.10741 -0.23978,-0.23978 1.3e-4,-0.13238 0.10741,-0.23966 0.23978,-0.23978 z m 0.99994,0 c 0.13258,-1.7e-4 0.24018,0.1072 0.2403,0.23978 -1.2e-4,0.13257 -0.10772,0.23994 -0.2403,0.23978 -0.13237,-1.3e-4 -0.23966,-0.10741 -0.23978,-0.23978 1.2e-4,-0.13238 0.10741,-0.23966 0.23978,-0.23978 z m 0.99994,0 c 0.13258,-1.7e-4 0.24017,0.1072 0.2403,0.23978 -1.3e-4,0.13257 -0.10772,0.23994 -0.2403,0.23978 -0.13237,-1.3e-4 -0.23966,-0.10741 -0.23978,-0.23978 1.2e-4,-0.13238 0.10741,-0.23966 0.23978,-0.23978 z m 1.00046,0 c 0.13237,1.2e-4 0.23965,0.1074 0.23978,0.23978 -1.3e-4,0.13237 -0.10741,0.23965 -0.23978,0.23978 -0.13258,1.6e-4 -0.24018,-0.10721 -0.2403,-0.23978 1.2e-4,-0.13258 0.10772,-0.23995 0.2403,-0.23978 z m 0.99993,0 c 0.13238,1.2e-4 0.23966,0.1074 0.23978,0.23978 -1.2e-4,0.13237 -0.1074,0.23965 -0.23978,0.23978 -0.13257,1.6e-4 -0.24017,-0.10721 -0.24029,-0.23978 1.2e-4,-0.13258 0.10772,-0.23995 0.24029,-0.23978 z m -36.000382,0.99994 c 0.132577,-1.7e-4 0.240173,0.1072 0.240296,0.23978 1.63e-4,0.13278 -0.107517,0.24046 -0.240296,0.24029 -0.132577,-1.2e-4 -0.239941,-0.10772 -0.239778,-0.24029 1.22e-4,-0.13238 0.107403,-0.23966 0.239778,-0.23978 z m 1.000456,0 c 0.132376,1.2e-4 0.239657,0.1074 0.239779,0.23978 1.62e-4,0.13257 -0.107202,0.24017 -0.239779,0.24029 -0.132779,1.7e-4 -0.240458,-0.10751 -0.240295,-0.24029 1.22e-4,-0.13258 0.107718,-0.23995 0.240295,-0.23978 z m 0.999939,0 c 0.132376,1.2e-4 0.239657,0.1074 0.239779,0.23978 1.61e-4,0.13257 -0.107202,0.24017 -0.239779,0.24029 -0.132779,1.7e-4 -0.240458,-0.10751 -0.240295,-0.24029 1.23e-4,-0.13258 0.107718,-0.23995 0.240295,-0.23978 z m 0.999939,0 c 0.132375,1.2e-4 0.239657,0.1074 0.239779,0.23978 1.63e-4,0.13257 -0.107202,0.24017 -0.239779,0.24029 -0.132779,1.7e-4 -0.240458,-0.10751 -0.240295,-0.24029 1.23e-4,-0.13258 0.107718,-0.23995 0.240295,-0.23978 z m 0.999939,0 c 0.132375,1.2e-4 0.239657,0.1074 0.239779,0.23978 1.63e-4,0.13257 -0.107202,0.24017 -0.239779,0.24029 -0.132577,-1.2e-4 -0.239942,-0.10772 -0.239779,-0.24029 1.22e-4,-0.13238 0.107403,-0.23966 0.239779,-0.23978 z m 0.999941,0 c 0.132376,1.2e-4 0.239656,0.1074 0.239778,0.23978 1.64e-4,0.13257 -0.107201,0.24017 -0.239778,0.24029 -0.13258,-1.2e-4 -0.239944,-0.10772 -0.239781,-0.24029 1.22e-4,-0.13238 0.107402,-0.23966 0.239781,-0.23978 z m 0.999939,0 c 0.132572,-1.7e-4 0.240173,0.1072 0.240295,0.23978 1.64e-4,0.13278 -0.107521,0.24046 -0.240295,0.24029 -0.132577,-1.2e-4 -0.23994,-0.10772 -0.239781,-0.24029 1.22e-4,-0.13238 0.107405,-0.23966 0.239781,-0.23978 z m 0.999937,0 c 0.132578,-1.7e-4 0.240176,0.1072 0.240298,0.23978 1.58e-4,0.13278 -0.107519,0.24046 -0.240298,0.24029 -0.132577,-1.2e-4 -0.239942,-0.10772 -0.239778,-0.24029 1.22e-4,-0.13238 0.107402,-0.23966 0.239778,-0.23978 z m 23.000152,0 c 0.13237,1.2e-4 0.23965,0.1074 0.23977,0.23978 1.7e-4,0.13257 -0.1072,0.24017 -0.23977,0.24029 -0.13258,-1.2e-4 -0.23995,-0.10772 -0.23978,-0.24029 1.2e-4,-0.13238 0.1074,-0.23966 0.23978,-0.23978 z m 0.99993,0 c 0.13258,-1.7e-4 0.24018,0.1072 0.2403,0.23978 1.6e-4,0.13278 -0.10752,0.24046 -0.2403,0.24029 -0.13258,-1.2e-4 -0.23994,-0.10772 -0.23977,-0.24029 1.2e-4,-0.13238 0.1074,-0.23966 0.23977,-0.23978 z m 0.99994,0 c 0.13258,-1.7e-4 0.24018,0.1072 0.2403,0.23978 1.6e-4,0.13278 -0.10752,0.24046 -0.2403,0.24029 -0.13258,-1.2e-4 -0.23994,-0.10772 -0.23978,-0.24029 1.3e-4,-0.13238 0.10741,-0.23966 0.23978,-0.23978 z m 0.99994,0 c 0.13258,-1.7e-4 0.24018,0.1072 0.2403,0.23978 1.6e-4,0.13278 -0.10752,0.24046 -0.2403,0.24029 -0.13258,-1.2e-4 -0.23994,-0.10772 -0.23978,-0.24029 1.2e-4,-0.13238 0.10741,-0.23966 0.23978,-0.23978 z m 0.99994,0 c 0.13258,-1.7e-4 0.24017,0.1072 0.2403,0.23978 1.6e-4,0.13278 -0.10752,0.24046 -0.2403,0.24029 -0.13258,-1.2e-4 -0.23994,-0.10772 -0.23978,-0.24029 1.2e-4,-0.13238 0.10741,-0.23966 0.23978,-0.23978 z m 1.00046,0 c 0.13237,1.2e-4 0.23965,0.1074 0.23978,0.23978 1.6e-4,0.13257 -0.10721,0.24017 -0.23978,0.24029 -0.13278,1.7e-4 -0.24046,-0.10751 -0.2403,-0.24029 1.2e-4,-0.13258 0.10772,-0.23995 0.2403,-0.23978 z m 0.99993,0 c 0.13238,1.2e-4 0.23966,0.1074 0.23978,0.23978 1.7e-4,0.13257 -0.1072,0.24017 -0.23978,0.24029 -0.13277,1.7e-4 -0.24045,-0.10751 -0.24029,-0.24029 1.2e-4,-0.13258 0.10772,-0.23995 0.24029,-0.23978 z m 0.99994,0 c 0.13238,1.2e-4 0.23966,0.1074 0.23978,0.23978 1.7e-4,0.13257 -0.1072,0.24017 -0.23978,0.24029 -0.13277,1.7e-4 -0.24045,-0.10751 -0.24029,-0.24029 1.2e-4,-0.13258 0.10772,-0.23995 0.24029,-0.23978 z m -38.000261,0.99994 c 0.132577,-1.7e-4 0.240173,0.1072 0.240296,0.23977 1.64e-4,0.13279 -0.107516,0.24047 -0.240296,0.2403 -0.132577,-1.2e-4 -0.239943,-0.10772 -0.239778,-0.2403 1.22e-4,-0.13237 0.107403,-0.23965 0.239778,-0.23977 z m 0.999939,0 c 0.132577,-1.7e-4 0.240173,0.1072 0.240296,0.23977 1.64e-4,0.13279 -0.107516,0.24047 -0.240296,0.2403 -0.132578,-1.2e-4 -0.239943,-0.10772 -0.239778,-0.2403 1.22e-4,-0.13237 0.107403,-0.23965 0.239778,-0.23977 z m 1.000456,0 c 0.132376,1.2e-4 0.239657,0.1074 0.239779,0.23977 1.64e-4,0.13258 -0.107201,0.24018 -0.239779,0.2403 -0.13278,1.7e-4 -0.24046,-0.10751 -0.240295,-0.2403 1.22e-4,-0.13257 0.107718,-0.23994 0.240295,-0.23977 z m 0.999939,0 c 0.132376,1.2e-4 0.239657,0.1074 0.239779,0.23977 1.63e-4,0.13258 -0.107201,0.24018 -0.239779,0.2403 -0.13278,1.7e-4 -0.240459,-0.10751 -0.240295,-0.2403 1.23e-4,-0.13257 0.107718,-0.23994 0.240295,-0.23977 z m 0.999939,0 c 0.132375,1.2e-4 0.239657,0.1074 0.239779,0.23977 1.65e-4,0.13258 -0.107201,0.24018 -0.239779,0.2403 -0.13278,1.7e-4 -0.24046,-0.10751 -0.240295,-0.2403 1.23e-4,-0.13257 0.107718,-0.23994 0.240295,-0.23977 z m 0.999939,0 c 0.132375,1.2e-4 0.239657,0.1074 0.239779,0.23977 1.65e-4,0.13258 -0.107201,0.24018 -0.239779,0.2403 -0.132578,-1.2e-4 -0.239943,-0.10772 -0.239779,-0.2403 1.22e-4,-0.13237 0.107403,-0.23965 0.239779,-0.23977 z m 0.999941,0 c 0.132376,1.2e-4 0.239656,0.1074 0.239778,0.23977 1.64e-4,0.13258 -0.107201,0.24018 -0.239778,0.2403 -0.132581,-1.2e-4 -0.239945,-0.10772 -0.239781,-0.2403 1.22e-4,-0.13237 0.107402,-0.23965 0.239781,-0.23977 z m 0.999939,0 c 0.132572,-1.7e-4 0.240173,0.1072 0.240295,0.23977 1.64e-4,0.13279 -0.107521,0.24047 -0.240295,0.2403 -0.13258,-1.2e-4 -0.23994,-0.10772 -0.239781,-0.2403 1.22e-4,-0.13237 0.107405,-0.23965 0.239781,-0.23977 z m 0.999937,0 c 0.132578,-1.7e-4 0.240176,0.1072 0.240298,0.23977 1.58e-4,0.13279 -0.107516,0.24047 -0.240298,0.2403 -0.132577,-1.2e-4 -0.239942,-0.10772 -0.239778,-0.2403 1.22e-4,-0.13237 0.107402,-0.23965 0.239778,-0.23977 z m 0.99994,0 c 0.132578,-1.7e-4 0.240173,0.1072 0.240295,0.23977 1.67e-4,0.13279 -0.107516,0.24047 -0.240295,0.2403 -0.132577,-1.2e-4 -0.239942,-0.10772 -0.239778,-0.2403 1.21e-4,-0.13237 0.107402,-0.23965 0.239778,-0.23977 z m 21.000272,0 c 0.13237,1.2e-4 0.23965,0.1074 0.23977,0.23977 1.7e-4,0.13258 -0.1072,0.24018 -0.23977,0.2403 -0.13278,1.7e-4 -0.24046,-0.10751 -0.2403,-0.2403 1.2e-4,-0.13257 0.10772,-0.23994 0.2403,-0.23977 z m 0.99994,0 c 0.13237,1.2e-4 0.23965,0.1074 0.23977,0.23977 1.7e-4,0.13258 -0.1072,0.24018 -0.23977,0.2403 -0.13258,-1.2e-4 -0.23995,-0.10772 -0.23978,-0.2403 1.2e-4,-0.13237 0.1074,-0.23965 0.23978,-0.23977 z m 0.99993,0 c 0.13258,-1.7e-4 0.24018,0.1072 0.2403,0.23977 1.6e-4,0.13279 -0.10752,0.24047 -0.2403,0.2403 -0.13258,-1.2e-4 -0.23994,-0.10772 -0.23977,-0.2403 1.2e-4,-0.13237 0.1074,-0.23965 0.23977,-0.23977 z m 0.99994,0 c 0.13258,-1.7e-4 0.24018,0.1072 0.2403,0.23977 1.6e-4,0.13279 -0.10752,0.24047 -0.2403,0.2403 -0.13258,-1.2e-4 -0.23994,-0.10772 -0.23978,-0.2403 1.3e-4,-0.13237 0.10741,-0.23965 0.23978,-0.23977 z m 0.99994,0 c 0.13258,-1.7e-4 0.24018,0.1072 0.2403,0.23977 1.6e-4,0.13279 -0.10752,0.24047 -0.2403,0.2403 -0.13258,-1.2e-4 -0.23994,-0.10772 -0.23978,-0.2403 1.2e-4,-0.13237 0.10741,-0.23965 0.23978,-0.23977 z m 0.99994,0 c 0.13258,-1.7e-4 0.24017,0.1072 0.2403,0.23977 1.6e-4,0.13279 -0.10752,0.24047 -0.2403,0.2403 -0.13258,-1.2e-4 -0.23994,-0.10772 -0.23978,-0.2403 1.2e-4,-0.13237 0.10741,-0.23965 0.23978,-0.23977 z m 1.00046,0 c 0.13237,1.2e-4 0.23965,0.1074 0.23978,0.23977 1.6e-4,0.13258 -0.10721,0.24018 -0.23978,0.2403 -0.13278,1.7e-4 -0.24046,-0.10751 -0.2403,-0.2403 1.2e-4,-0.13257 0.10772,-0.23994 0.2403,-0.23977 z m 0.99993,0 c 0.13238,1.2e-4 0.23966,0.1074 0.23978,0.23977 1.7e-4,0.13258 -0.1072,0.24018 -0.23978,0.2403 -0.13277,1.7e-4 -0.24045,-0.10751 -0.24029,-0.2403 1.2e-4,-0.13257 0.10772,-0.23994 0.24029,-0.23977 z m 0.99994,0 c 0.13238,1.2e-4 0.23966,0.1074 0.23978,0.23977 1.7e-4,0.13258 -0.1072,0.24018 -0.23978,0.2403 -0.13277,1.7e-4 -0.24045,-0.10751 -0.24029,-0.2403 1.2e-4,-0.13257 0.10772,-0.23994 0.24029,-0.23977 z m 0.99994,0 c 0.13238,1.2e-4 0.23966,0.1074 0.23978,0.23977 1.7e-4,0.13258 -0.1072,0.24018 -0.23978,0.2403 -0.13257,-1.2e-4 -0.23994,-0.10772 -0.23977,-0.2403 1.2e-4,-0.13237 0.1074,-0.23965 0.23977,-0.23977 z m -38.000262,0.99994 c 0.132577,-1.7e-4 0.240173,0.1072 0.240296,0.23977 1.63e-4,0.13278 -0.107517,0.24046 -0.240296,0.2403 -0.132577,-1.2e-4 -0.239941,-0.10772 -0.239778,-0.2403 1.22e-4,-0.13237 0.107403,-0.23965 0.239778,-0.23977 z m 1.000456,0 c 0.132376,1.2e-4 0.239657,0.1074 0.239779,0.23977 1.62e-4,0.13258 -0.107202,0.24018 -0.239779,0.2403 -0.132779,1.6e-4 -0.240458,-0.10752 -0.240295,-0.2403 1.22e-4,-0.13257 0.107718,-0.23994 0.240295,-0.23977 z m 0.999939,0 c 0.132376,1.2e-4 0.239657,0.1074 0.239779,0.23977 1.61e-4,0.13258 -0.107202,0.24018 -0.239779,0.2403 -0.132779,1.6e-4 -0.240458,-0.10752 -0.240295,-0.2403 1.23e-4,-0.13257 0.107718,-0.23994 0.240295,-0.23977 z m 0.999939,0 c 0.132375,1.2e-4 0.239657,0.1074 0.239779,0.23977 1.63e-4,0.13258 -0.107202,0.24018 -0.239779,0.2403 -0.132779,1.6e-4 -0.240458,-0.10752 -0.240295,-0.2403 1.23e-4,-0.13257 0.107718,-0.23994 0.240295,-0.23977 z m 0.999939,0 c 0.132375,1.2e-4 0.239657,0.1074 0.239779,0.23977 1.63e-4,0.13258 -0.107202,0.24018 -0.239779,0.2403 -0.132577,-1.2e-4 -0.239942,-0.10772 -0.239779,-0.2403 1.22e-4,-0.13237 0.107403,-0.23965 0.239779,-0.23977 z m 0.999941,0 c 0.132376,1.2e-4 0.239656,0.1074 0.239778,0.23977 1.64e-4,0.13258 -0.107201,0.24018 -0.239778,0.2403 -0.13258,-1.2e-4 -0.239944,-0.10772 -0.239781,-0.2403 1.22e-4,-0.13237 0.107402,-0.23965 0.239781,-0.23977 z m 0.999939,0 c 0.132572,-1.7e-4 0.240173,0.1072 0.240295,0.23977 1.64e-4,0.13278 -0.107521,0.24046 -0.240295,0.2403 -0.132577,-1.2e-4 -0.23994,-0.10772 -0.239781,-0.2403 1.22e-4,-0.13237 0.107405,-0.23965 0.239781,-0.23977 z m 0.999937,0 c 0.132578,-1.7e-4 0.240176,0.1072 0.240298,0.23977 1.58e-4,0.13278 -0.107519,0.24046 -0.240298,0.2403 -0.132577,-1.2e-4 -0.239942,-0.10772 -0.239778,-0.2403 1.22e-4,-0.13237 0.107402,-0.23965 0.239778,-0.23977 z m 23.000152,0 c 0.13237,1.2e-4 0.23965,0.1074 0.23977,0.23977 1.7e-4,0.13258 -0.1072,0.24018 -0.23977,0.2403 -0.13258,-1.2e-4 -0.23995,-0.10772 -0.23978,-0.2403 1.2e-4,-0.13237 0.1074,-0.23965 0.23978,-0.23977 z m 0.99993,0 c 0.13258,-1.7e-4 0.24018,0.1072 0.2403,0.23977 1.6e-4,0.13278 -0.10752,0.24046 -0.2403,0.2403 -0.13258,-1.2e-4 -0.23994,-0.10772 -0.23977,-0.2403 1.2e-4,-0.13237 0.1074,-0.23965 0.23977,-0.23977 z m 0.99994,0 c 0.13258,-1.7e-4 0.24018,0.1072 0.2403,0.23977 1.6e-4,0.13278 -0.10752,0.24046 -0.2403,0.2403 -0.13258,-1.2e-4 -0.23994,-0.10772 -0.23978,-0.2403 1.3e-4,-0.13237 0.10741,-0.23965 0.23978,-0.23977 z m 0.99994,0 c 0.13258,-1.7e-4 0.24018,0.1072 0.2403,0.23977 1.6e-4,0.13278 -0.10752,0.24046 -0.2403,0.2403 -0.13258,-1.2e-4 -0.23994,-0.10772 -0.23978,-0.2403 1.2e-4,-0.13237 0.10741,-0.23965 0.23978,-0.23977 z m 0.99994,0 c 0.13258,-1.7e-4 0.24017,0.1072 0.2403,0.23977 1.6e-4,0.13278 -0.10752,0.24046 -0.2403,0.2403 -0.13258,-1.2e-4 -0.23994,-0.10772 -0.23978,-0.2403 1.2e-4,-0.13237 0.10741,-0.23965 0.23978,-0.23977 z m 1.00046,0 c 0.13237,1.2e-4 0.23965,0.1074 0.23978,0.23977 1.6e-4,0.13258 -0.10721,0.24018 -0.23978,0.2403 -0.13278,1.6e-4 -0.24046,-0.10752 -0.2403,-0.2403 1.2e-4,-0.13257 0.10772,-0.23994 0.2403,-0.23977 z m 0.99993,0 c 0.13238,1.2e-4 0.23966,0.1074 0.23978,0.23977 1.7e-4,0.13258 -0.1072,0.24018 -0.23978,0.2403 -0.13277,1.6e-4 -0.24045,-0.10752 -0.24029,-0.2403 1.2e-4,-0.13257 0.10772,-0.23994 0.24029,-0.23977 z m 0.99994,0 c 0.13238,1.2e-4 0.23966,0.1074 0.23978,0.23977 1.7e-4,0.13258 -0.1072,0.24018 -0.23978,0.2403 -0.13277,1.6e-4 -0.24045,-0.10752 -0.24029,-0.2403 1.2e-4,-0.13257 0.10772,-0.23994 0.24029,-0.23977 z m -38.000261,0.99994 c 0.132779,-1.7e-4 0.240459,0.10751 0.240296,0.24029 -1.23e-4,0.13258 -0.107719,0.23994 -0.240296,0.23978 -0.132375,-1.2e-4 -0.239656,-0.1074 -0.239778,-0.23978 -1.63e-4,-0.13258 0.107201,-0.24017 0.239778,-0.24029 z m 0.999939,0 c 0.132779,-1.7e-4 0.240459,0.10751 0.240296,0.24029 -1.23e-4,0.13258 -0.107719,0.23994 -0.240296,0.23978 -0.132375,-1.2e-4 -0.239656,-0.1074 -0.239778,-0.23978 -1.63e-4,-0.13258 0.107201,-0.24017 0.239778,-0.24029 z m 1.000456,0 c 0.132577,1.2e-4 0.239941,0.10771 0.239779,0.24029 -1.22e-4,0.13238 -0.107403,0.23966 -0.239779,0.23978 -0.132577,1.6e-4 -0.240173,-0.1072 -0.240295,-0.23978 -1.63e-4,-0.13278 0.107516,-0.24046 0.240295,-0.24029 z m 0.999939,0 c 0.132577,1.2e-4 0.23994,0.10771 0.239779,0.24029 -1.22e-4,0.13238 -0.107403,0.23966 -0.239779,0.23978 -0.132577,1.6e-4 -0.240172,-0.1072 -0.240295,-0.23978 -1.63e-4,-0.13278 0.107516,-0.24046 0.240295,-0.24029 z m 0.999939,0 c 0.132577,1.2e-4 0.239942,0.10771 0.239779,0.24029 -1.22e-4,0.13238 -0.107404,0.23966 -0.239779,0.23978 -0.132577,1.6e-4 -0.240172,-0.1072 -0.240295,-0.23978 -1.63e-4,-0.13278 0.107516,-0.24046 0.240295,-0.24029 z m 0.999939,0 c 0.132577,1.2e-4 0.239942,0.10771 0.239779,0.24029 -1.22e-4,0.13238 -0.107404,0.23966 -0.239779,0.23978 -0.132376,-1.2e-4 -0.239657,-0.1074 -0.239779,-0.23978 -1.63e-4,-0.13258 0.107202,-0.24017 0.239779,-0.24029 z m 0.999941,0 c 0.132577,1.2e-4 0.239942,0.10771 0.239778,0.24029 -1.22e-4,0.13238 -0.107402,0.23966 -0.239778,0.23978 -0.132379,-1.2e-4 -0.239659,-0.1074 -0.239781,-0.23978 -1.63e-4,-0.13258 0.107201,-0.24017 0.239781,-0.24029 z m 0.999939,0 c 0.132774,-1.7e-4 0.240459,0.10751 0.240295,0.24029 -1.22e-4,0.13258 -0.107723,0.23994 -0.240295,0.23978 -0.132376,-1.2e-4 -0.239659,-0.1074 -0.239781,-0.23978 -1.59e-4,-0.13258 0.107204,-0.24017 0.239781,-0.24029 z m 0.999937,0 c 0.132779,-1.7e-4 0.240456,0.10751 0.240298,0.24029 -1.22e-4,0.13258 -0.10772,0.23994 -0.240298,0.23978 -0.132376,-1.2e-4 -0.239656,-0.1074 -0.239778,-0.23978 -1.64e-4,-0.13258 0.107201,-0.24017 0.239778,-0.24029 z m 0.99994,0 c 0.132779,-1.7e-4 0.240462,0.10751 0.240295,0.24029 -1.22e-4,0.13258 -0.107717,0.23994 -0.240295,0.23978 -0.132376,-1.2e-4 -0.239657,-0.1074 -0.239778,-0.23978 -1.64e-4,-0.13258 0.107201,-0.24017 0.239778,-0.24029 z m 21.000272,0 c 0.13257,1.2e-4 0.23994,0.10771 0.23977,0.24029 -1.2e-4,0.13238 -0.1074,0.23966 -0.23977,0.23978 -0.13258,1.6e-4 -0.24018,-0.1072 -0.2403,-0.23978 -1.6e-4,-0.13278 0.10752,-0.24046 0.2403,-0.24029 z m 0.99994,0 c 0.13257,1.2e-4 0.23994,0.10771 0.23977,0.24029 -1.2e-4,0.13238 -0.1074,0.23966 -0.23977,0.23978 -0.13238,-1.2e-4 -0.23966,-0.1074 -0.23978,-0.23978 -1.7e-4,-0.13258 0.1072,-0.24017 0.23978,-0.24029 z m 0.99993,0 c 0.13278,-1.7e-4 0.24046,0.10751 0.2403,0.24029 -1.2e-4,0.13258 -0.10772,0.23994 -0.2403,0.23978 -0.13237,-1.2e-4 -0.23965,-0.1074 -0.23977,-0.23978 -1.7e-4,-0.13258 0.10719,-0.24017 0.23977,-0.24029 z m 0.99994,0 c 0.13278,-1.7e-4 0.24046,0.10751 0.2403,0.24029 -1.2e-4,0.13258 -0.10772,0.23994 -0.2403,0.23978 -0.13237,-1.2e-4 -0.23965,-0.1074 -0.23978,-0.23978 -1.6e-4,-0.13258 0.1072,-0.24017 0.23978,-0.24029 z m 0.99994,0 c 0.13278,-1.7e-4 0.24046,0.10751 0.2403,0.24029 -1.2e-4,0.13258 -0.10772,0.23994 -0.2403,0.23978 -0.13237,-1.2e-4 -0.23966,-0.1074 -0.23978,-0.23978 -1.6e-4,-0.13258 0.1072,-0.24017 0.23978,-0.24029 z m 0.99994,0 c 0.13278,-1.7e-4 0.24046,0.10751 0.2403,0.24029 -1.3e-4,0.13258 -0.10772,0.23994 -0.2403,0.23978 -0.13237,-1.2e-4 -0.23966,-0.1074 -0.23978,-0.23978 -1.6e-4,-0.13258 0.1072,-0.24017 0.23978,-0.24029 z m 1.00046,0 c 0.13257,1.2e-4 0.23994,0.10771 0.23978,0.24029 -1.3e-4,0.13238 -0.10741,0.23966 -0.23978,0.23978 -0.13258,1.6e-4 -0.24018,-0.1072 -0.2403,-0.23978 -1.6e-4,-0.13278 0.10752,-0.24046 0.2403,-0.24029 z m 0.99993,0 c 0.13258,1.2e-4 0.23995,0.10771 0.23978,0.24029 -1.2e-4,0.13238 -0.1074,0.23966 -0.23978,0.23978 -0.13257,1.6e-4 -0.24017,-0.1072 -0.24029,-0.23978 -1.6e-4,-0.13278 0.10752,-0.24046 0.24029,-0.24029 z m 0.99994,0 c 0.13258,1.2e-4 0.23995,0.10771 0.23978,0.24029 -1.2e-4,0.13238 -0.1074,0.23966 -0.23978,0.23978 -0.13257,1.6e-4 -0.24017,-0.1072 -0.24029,-0.23978 -1.6e-4,-0.13278 0.10752,-0.24046 0.24029,-0.24029 z m 0.99994,0 c 0.13258,1.2e-4 0.23995,0.10771 0.23978,0.24029 -1.2e-4,0.13238 -0.1074,0.23966 -0.23978,0.23978 -0.13237,-1.2e-4 -0.23965,-0.1074 -0.23977,-0.23978 -1.7e-4,-0.13258 0.1072,-0.24017 0.23977,-0.24029 z M 25.57904,166.8099 c 0.13278,-1.6e-4 0.24046,0.10752 0.240296,0.2403 -1.23e-4,0.13258 -0.107719,0.23994 -0.240296,0.23978 -0.132375,-1.2e-4 -0.239656,-0.1074 -0.239778,-0.23978 -1.65e-4,-0.13258 0.1072,-0.24018 0.239778,-0.2403 z m 1.000456,0 c 0.132578,1.2e-4 0.239943,0.10772 0.239779,0.2403 -1.22e-4,0.13238 -0.107403,0.23966 -0.239779,0.23978 -0.132577,1.6e-4 -0.240173,-0.1072 -0.240295,-0.23978 -1.65e-4,-0.13278 0.107515,-0.24046 0.240295,-0.2403 z m 0.999939,0 c 0.132578,1.2e-4 0.239942,0.10772 0.239779,0.2403 -1.22e-4,0.13238 -0.107403,0.23966 -0.239779,0.23978 -0.132577,1.6e-4 -0.240172,-0.1072 -0.240295,-0.23978 -1.64e-4,-0.13278 0.107515,-0.24046 0.240295,-0.2403 z m 0.999939,0 c 0.132578,1.2e-4 0.239944,0.10772 0.239779,0.2403 -1.22e-4,0.13238 -0.107404,0.23966 -0.239779,0.23978 -0.132577,1.6e-4 -0.240172,-0.1072 -0.240295,-0.23978 -1.65e-4,-0.13278 0.107515,-0.24046 0.240295,-0.2403 z m 0.999939,0 c 0.132578,1.2e-4 0.239944,0.10772 0.239779,0.2403 -1.22e-4,0.13238 -0.107404,0.23966 -0.239779,0.23978 -0.132376,-1.2e-4 -0.239657,-0.1074 -0.239779,-0.23978 -1.64e-4,-0.13258 0.107201,-0.24018 0.239779,-0.2403 z m 0.999941,0 c 0.132577,1.2e-4 0.239942,0.10772 0.239778,0.2403 -1.22e-4,0.13238 -0.107402,0.23966 -0.239778,0.23978 -0.132379,-1.2e-4 -0.239659,-0.1074 -0.239781,-0.23978 -1.64e-4,-0.13258 0.1072,-0.24018 0.239781,-0.2403 z m 0.999939,0 c 0.132774,-1.6e-4 0.240459,0.10752 0.240295,0.2403 -1.22e-4,0.13258 -0.107723,0.23994 -0.240295,0.23978 -0.132376,-1.2e-4 -0.239659,-0.1074 -0.239781,-0.23978 -1.59e-4,-0.13258 0.107201,-0.24018 0.239781,-0.2403 z m 0.999937,0 c 0.132782,-1.6e-4 0.240456,0.10752 0.240298,0.2403 -1.22e-4,0.13258 -0.10772,0.23994 -0.240298,0.23978 -0.132376,-1.2e-4 -0.239656,-0.1074 -0.239778,-0.23978 -1.64e-4,-0.13258 0.107201,-0.24018 0.239778,-0.2403 z m 23.000152,0 c 0.13257,1.2e-4 0.23994,0.10772 0.23977,0.2403 -1.2e-4,0.13238 -0.1074,0.23966 -0.23977,0.23978 -0.13238,-1.2e-4 -0.23966,-0.1074 -0.23978,-0.23978 -1.7e-4,-0.13258 0.1072,-0.24018 0.23978,-0.2403 z m 0.99993,0 c 0.13278,-1.6e-4 0.24046,0.10752 0.2403,0.2403 -1.2e-4,0.13258 -0.10772,0.23994 -0.2403,0.23978 -0.13237,-1.2e-4 -0.23965,-0.1074 -0.23977,-0.23978 -1.7e-4,-0.13258 0.10719,-0.24018 0.23977,-0.2403 z m 0.99994,0 c 0.13278,-1.6e-4 0.24046,0.10752 0.2403,0.2403 -1.2e-4,0.13258 -0.10772,0.23994 -0.2403,0.23978 -0.13237,-1.2e-4 -0.23965,-0.1074 -0.23978,-0.23978 -1.6e-4,-0.13258 0.1072,-0.24018 0.23978,-0.2403 z m 0.99994,0 c 0.13278,-1.6e-4 0.24046,0.10752 0.2403,0.2403 -1.2e-4,0.13258 -0.10772,0.23994 -0.2403,0.23978 -0.13237,-1.2e-4 -0.23966,-0.1074 -0.23978,-0.23978 -1.6e-4,-0.13258 0.1072,-0.24018 0.23978,-0.2403 z m 0.99994,0 c 0.13278,-1.6e-4 0.24046,0.10752 0.2403,0.2403 -1.3e-4,0.13258 -0.10772,0.23994 -0.2403,0.23978 -0.13237,-1.2e-4 -0.23966,-0.1074 -0.23978,-0.23978 -1.6e-4,-0.13258 0.1072,-0.24018 0.23978,-0.2403 z m 1.00046,0 c 0.13257,1.2e-4 0.23994,0.10772 0.23978,0.2403 -1.3e-4,0.13238 -0.10741,0.23966 -0.23978,0.23978 -0.13258,1.6e-4 -0.24018,-0.1072 -0.2403,-0.23978 -1.6e-4,-0.13278 0.10752,-0.24046 0.2403,-0.2403 z m 0.99993,0 c 0.13258,1.2e-4 0.23995,0.10772 0.23978,0.2403 -1.2e-4,0.13238 -0.1074,0.23966 -0.23978,0.23978 -0.13257,1.6e-4 -0.24017,-0.1072 -0.24029,-0.23978 -1.6e-4,-0.13278 0.10752,-0.24046 0.24029,-0.2403 z m 0.99994,0 c 0.13258,1.2e-4 0.23995,0.10772 0.23978,0.2403 -1.2e-4,0.13238 -0.1074,0.23966 -0.23978,0.23978 -0.13257,1.6e-4 -0.24017,-0.1072 -0.24029,-0.23978 -1.6e-4,-0.13278 0.10752,-0.24046 0.24029,-0.2403 z m -38.000261,0.99994 c 0.132779,-1.6e-4 0.240459,0.10752 0.240296,0.2403 -1.23e-4,0.13257 -0.107719,0.23994 -0.240296,0.23978 -0.132375,-1.2e-4 -0.239656,-0.10741 -0.239778,-0.23978 -1.63e-4,-0.13258 0.107201,-0.24018 0.239778,-0.2403 z m 0.999939,0 c 0.132779,-1.6e-4 0.240459,0.10752 0.240296,0.2403 -1.23e-4,0.13257 -0.107719,0.23994 -0.240296,0.23978 -0.132375,-1.2e-4 -0.239656,-0.10741 -0.239778,-0.23978 -1.63e-4,-0.13258 0.107201,-0.24018 0.239778,-0.2403 z m 1.000456,0 c 0.132577,1.2e-4 0.239941,0.10772 0.239779,0.2403 -1.22e-4,0.13237 -0.107403,0.23966 -0.239779,0.23978 -0.132577,1.6e-4 -0.240173,-0.10721 -0.240295,-0.23978 -1.63e-4,-0.13278 0.107516,-0.24046 0.240295,-0.2403 z m 0.999939,0 c 0.132577,1.2e-4 0.23994,0.10772 0.239779,0.2403 -1.22e-4,0.13237 -0.107403,0.23966 -0.239779,0.23978 -0.132577,1.6e-4 -0.240172,-0.10721 -0.240295,-0.23978 -1.63e-4,-0.13278 0.107516,-0.24046 0.240295,-0.2403 z m 0.999939,0 c 0.132577,1.2e-4 0.239942,0.10772 0.239779,0.2403 -1.22e-4,0.13237 -0.107404,0.23966 -0.239779,0.23978 -0.132577,1.6e-4 -0.240172,-0.10721 -0.240295,-0.23978 -1.63e-4,-0.13278 0.107516,-0.24046 0.240295,-0.2403 z m 0.999939,0 c 0.132577,1.2e-4 0.239942,0.10772 0.239779,0.2403 -1.22e-4,0.13237 -0.107404,0.23966 -0.239779,0.23978 -0.132376,-1.2e-4 -0.239657,-0.10741 -0.239779,-0.23978 -1.63e-4,-0.13258 0.107202,-0.24018 0.239779,-0.2403 z m 0.999941,0 c 0.132577,1.2e-4 0.239942,0.10772 0.239778,0.2403 -1.22e-4,0.13237 -0.107402,0.23966 -0.239778,0.23978 -0.132379,-1.2e-4 -0.239659,-0.10741 -0.239781,-0.23978 -1.63e-4,-0.13258 0.107201,-0.24018 0.239781,-0.2403 z m 0.999939,0 c 0.132774,-1.6e-4 0.240459,0.10752 0.240295,0.2403 -1.22e-4,0.13257 -0.107723,0.23994 -0.240295,0.23978 -0.132376,-1.2e-4 -0.239659,-0.10741 -0.239781,-0.23978 -1.59e-4,-0.13258 0.107204,-0.24018 0.239781,-0.2403 z m 0.999937,0 c 0.132779,-1.6e-4 0.240456,0.10752 0.240298,0.2403 -1.22e-4,0.13257 -0.10772,0.23994 -0.240298,0.23978 -0.132376,-1.2e-4 -0.239656,-0.10741 -0.239778,-0.23978 -1.64e-4,-0.13258 0.107201,-0.24018 0.239778,-0.2403 z m 0.99994,0 c 0.132779,-1.6e-4 0.240462,0.10752 0.240295,0.2403 -1.22e-4,0.13257 -0.107717,0.23994 -0.240295,0.23978 -0.132376,-1.2e-4 -0.239657,-0.10741 -0.239778,-0.23978 -1.64e-4,-0.13258 0.107201,-0.24018 0.239778,-0.2403 z m 21.000272,0 c 0.13257,1.2e-4 0.23994,0.10772 0.23977,0.2403 -1.2e-4,0.13237 -0.1074,0.23966 -0.23977,0.23978 -0.13258,1.6e-4 -0.24018,-0.10721 -0.2403,-0.23978 -1.6e-4,-0.13278 0.10752,-0.24046 0.2403,-0.2403 z m 0.99994,0 c 0.13257,1.2e-4 0.23994,0.10772 0.23977,0.2403 -1.2e-4,0.13237 -0.1074,0.23966 -0.23977,0.23978 -0.13238,-1.2e-4 -0.23966,-0.10741 -0.23978,-0.23978 -1.7e-4,-0.13258 0.1072,-0.24018 0.23978,-0.2403 z m 0.99993,0 c 0.13278,-1.6e-4 0.24046,0.10752 0.2403,0.2403 -1.2e-4,0.13257 -0.10772,0.23994 -0.2403,0.23978 -0.13237,-1.2e-4 -0.23965,-0.10741 -0.23977,-0.23978 -1.7e-4,-0.13258 0.10719,-0.24018 0.23977,-0.2403 z m 0.99994,0 c 0.13278,-1.6e-4 0.24046,0.10752 0.2403,0.2403 -1.2e-4,0.13257 -0.10772,0.23994 -0.2403,0.23978 -0.13237,-1.2e-4 -0.23965,-0.10741 -0.23978,-0.23978 -1.6e-4,-0.13258 0.1072,-0.24018 0.23978,-0.2403 z m 0.99994,0 c 0.13278,-1.6e-4 0.24046,0.10752 0.2403,0.2403 -1.2e-4,0.13257 -0.10772,0.23994 -0.2403,0.23978 -0.13237,-1.2e-4 -0.23966,-0.10741 -0.23978,-0.23978 -1.6e-4,-0.13258 0.1072,-0.24018 0.23978,-0.2403 z m 0.99994,0 c 0.13278,-1.6e-4 0.24046,0.10752 0.2403,0.2403 -1.3e-4,0.13257 -0.10772,0.23994 -0.2403,0.23978 -0.13237,-1.2e-4 -0.23966,-0.10741 -0.23978,-0.23978 -1.6e-4,-0.13258 0.1072,-0.24018 0.23978,-0.2403 z m 1.00046,0 c 0.13257,1.2e-4 0.23994,0.10772 0.23978,0.2403 -1.3e-4,0.13237 -0.10741,0.23966 -0.23978,0.23978 -0.13258,1.6e-4 -0.24018,-0.10721 -0.2403,-0.23978 -1.6e-4,-0.13278 0.10752,-0.24046 0.2403,-0.2403 z m 0.99993,0 c 0.13258,1.2e-4 0.23995,0.10772 0.23978,0.2403 -1.2e-4,0.13237 -0.1074,0.23966 -0.23978,0.23978 -0.13257,1.6e-4 -0.24017,-0.10721 -0.24029,-0.23978 -1.6e-4,-0.13278 0.10752,-0.24046 0.24029,-0.2403 z m 0.99994,0 c 0.13258,1.2e-4 0.23995,0.10772 0.23978,0.2403 -1.2e-4,0.13237 -0.1074,0.23966 -0.23978,0.23978 -0.13257,1.6e-4 -0.24017,-0.10721 -0.24029,-0.23978 -1.6e-4,-0.13278 0.10752,-0.24046 0.24029,-0.2403 z m 0.99994,0 c 0.13258,1.2e-4 0.23995,0.10772 0.23978,0.2403 -1.2e-4,0.13237 -0.1074,0.23966 -0.23978,0.23978 -0.13237,-1.2e-4 -0.23965,-0.10741 -0.23977,-0.23978 -1.7e-4,-0.13258 0.1072,-0.24018 0.23977,-0.2403 z m -38.000262,0.99994 c 0.132779,-1.6e-4 0.240459,0.10752 0.240296,0.2403 -1.23e-4,0.13257 -0.107719,0.23994 -0.240296,0.23978 -0.132375,-1.3e-4 -0.239656,-0.10741 -0.239778,-0.23978 -1.63e-4,-0.13258 0.107201,-0.24018 0.239778,-0.2403 z m 1.000456,0 c 0.132577,1.2e-4 0.239941,0.10772 0.239779,0.2403 -1.22e-4,0.13237 -0.107403,0.23965 -0.239779,0.23978 -0.132577,1.6e-4 -0.240173,-0.10721 -0.240295,-0.23978 -1.63e-4,-0.13278 0.107516,-0.24046 0.240295,-0.2403 z m 0.999939,0 c 0.132577,1.2e-4 0.23994,0.10772 0.239779,0.2403 -1.22e-4,0.13237 -0.107403,0.23965 -0.239779,0.23978 -0.132577,1.6e-4 -0.240172,-0.10721 -0.240295,-0.23978 -1.63e-4,-0.13278 0.107516,-0.24046 0.240295,-0.2403 z m 0.999939,0 c 0.132577,1.2e-4 0.239942,0.10772 0.239779,0.2403 -1.22e-4,0.13237 -0.107404,0.23965 -0.239779,0.23978 -0.132577,1.6e-4 -0.240172,-0.10721 -0.240295,-0.23978 -1.63e-4,-0.13278 0.107516,-0.24046 0.240295,-0.2403 z m 0.999939,0 c 0.132577,1.2e-4 0.239942,0.10772 0.239779,0.2403 -1.22e-4,0.13237 -0.107404,0.23965 -0.239779,0.23978 -0.132376,-1.3e-4 -0.239657,-0.10741 -0.239779,-0.23978 -1.63e-4,-0.13258 0.107202,-0.24018 0.239779,-0.2403 z m 0.999941,0 c 0.132577,1.2e-4 0.239942,0.10772 0.239778,0.2403 -1.22e-4,0.13237 -0.107402,0.23965 -0.239778,0.23978 -0.132379,-1.3e-4 -0.239659,-0.10741 -0.239781,-0.23978 -1.63e-4,-0.13258 0.107201,-0.24018 0.239781,-0.2403 z m 0.999939,0 c 0.132774,-1.6e-4 0.240459,0.10752 0.240295,0.2403 -1.22e-4,0.13257 -0.107723,0.23994 -0.240295,0.23978 -0.132376,-1.3e-4 -0.239659,-0.10741 -0.239781,-0.23978 -1.59e-4,-0.13258 0.107204,-0.24018 0.239781,-0.2403 z m 0.999937,0 c 0.132779,-1.6e-4 0.240456,0.10752 0.240298,0.2403 -1.22e-4,0.13257 -0.10772,0.23994 -0.240298,0.23978 -0.132376,-1.3e-4 -0.239656,-0.10741 -0.239778,-0.23978 -1.64e-4,-0.13258 0.107201,-0.24018 0.239778,-0.2403 z m 23.000152,0 c 0.13257,1.2e-4 0.23994,0.10772 0.23977,0.2403 -1.2e-4,0.13237 -0.1074,0.23965 -0.23977,0.23978 -0.13238,-1.3e-4 -0.23966,-0.10741 -0.23978,-0.23978 -1.7e-4,-0.13258 0.1072,-0.24018 0.23978,-0.2403 z m 0.99993,0 c 0.13278,-1.6e-4 0.24046,0.10752 0.2403,0.2403 -1.2e-4,0.13257 -0.10772,0.23994 -0.2403,0.23978 -0.13237,-1.3e-4 -0.23965,-0.10741 -0.23977,-0.23978 -1.7e-4,-0.13258 0.10719,-0.24018 0.23977,-0.2403 z m 0.99994,0 c 0.13278,-1.6e-4 0.24046,0.10752 0.2403,0.2403 -1.2e-4,0.13257 -0.10772,0.23994 -0.2403,0.23978 -0.13237,-1.3e-4 -0.23965,-0.10741 -0.23978,-0.23978 -1.6e-4,-0.13258 0.1072,-0.24018 0.23978,-0.2403 z m 0.99994,0 c 0.13278,-1.6e-4 0.24046,0.10752 0.2403,0.2403 -1.2e-4,0.13257 -0.10772,0.23994 -0.2403,0.23978 -0.13237,-1.3e-4 -0.23966,-0.10741 -0.23978,-0.23978 -1.6e-4,-0.13258 0.1072,-0.24018 0.23978,-0.2403 z m 0.99994,0 c 0.13278,-1.6e-4 0.24046,0.10752 0.2403,0.2403 -1.3e-4,0.13257 -0.10772,0.23994 -0.2403,0.23978 -0.13237,-1.3e-4 -0.23966,-0.10741 -0.23978,-0.23978 -1.6e-4,-0.13258 0.1072,-0.24018 0.23978,-0.2403 z m 1.00046,0 c 0.13257,1.2e-4 0.23994,0.10772 0.23978,0.2403 -1.3e-4,0.13237 -0.10741,0.23965 -0.23978,0.23978 -0.13258,1.6e-4 -0.24018,-0.10721 -0.2403,-0.23978 -1.6e-4,-0.13278 0.10752,-0.24046 0.2403,-0.2403 z m 0.99993,0 c 0.13258,1.2e-4 0.23995,0.10772 0.23978,0.2403 -1.2e-4,0.13237 -0.1074,0.23965 -0.23978,0.23978 -0.13257,1.6e-4 -0.24017,-0.10721 -0.24029,-0.23978 -1.6e-4,-0.13278 0.10752,-0.24046 0.24029,-0.2403 z m 0.99994,0 c 0.13258,1.2e-4 0.23995,0.10772 0.23978,0.2403 -1.2e-4,0.13237 -0.1074,0.23965 -0.23978,0.23978 -0.13257,1.6e-4 -0.24017,-0.10721 -0.24029,-0.23978 -1.6e-4,-0.13278 0.10752,-0.24046 0.24029,-0.2403 z m -35.999866,1.00046 c 0.132376,1.2e-4 0.239657,0.1074 0.239779,0.23978 -1.22e-4,0.13237 -0.107403,0.23965 -0.239779,0.23978 -0.132577,1.6e-4 -0.240173,-0.10721 -0.240295,-0.23978 1.22e-4,-0.13258 0.107718,-0.23995 0.240295,-0.23978 z m 0.999939,0 c 0.132376,1.2e-4 0.239657,0.1074 0.239779,0.23978 -1.22e-4,0.13237 -0.107403,0.23965 -0.239779,0.23978 -0.132577,1.6e-4 -0.240172,-0.10721 -0.240295,-0.23978 1.23e-4,-0.13258 0.107718,-0.23995 0.240295,-0.23978 z m 0.999939,0 c 0.132375,1.2e-4 0.239657,0.1074 0.239779,0.23978 -1.22e-4,0.13237 -0.107404,0.23965 -0.239779,0.23978 -0.132577,1.6e-4 -0.240172,-0.10721 -0.240295,-0.23978 1.23e-4,-0.13258 0.107718,-0.23995 0.240295,-0.23978 z m 0.999939,0 c 0.132375,1.2e-4 0.239657,0.1074 0.239779,0.23978 -1.22e-4,0.13237 -0.107404,0.23965 -0.239779,0.23978 -0.132376,-1.3e-4 -0.239657,-0.10741 -0.239779,-0.23978 1.22e-4,-0.13238 0.107403,-0.23966 0.239779,-0.23978 z m 0.999941,0 c 0.132376,1.2e-4 0.239656,0.1074 0.239778,0.23978 -1.22e-4,0.13237 -0.107402,0.23965 -0.239778,0.23978 -0.132379,-1.3e-4 -0.239659,-0.10741 -0.239781,-0.23978 1.22e-4,-0.13238 0.107402,-0.23966 0.239781,-0.23978 z m 0.999939,0 c 0.132572,-1.7e-4 0.240173,0.1072 0.240295,0.23978 -1.22e-4,0.13257 -0.107723,0.23994 -0.240295,0.23978 -0.132376,-1.3e-4 -0.239659,-0.10741 -0.239781,-0.23978 1.22e-4,-0.13238 0.107405,-0.23966 0.239781,-0.23978 z m 25.000019,0 c 0.13258,-1.7e-4 0.24018,0.1072 0.2403,0.23978 -1.2e-4,0.13257 -0.10772,0.23994 -0.2403,0.23978 -0.13237,-1.3e-4 -0.23965,-0.10741 -0.23977,-0.23978 1.2e-4,-0.13238 0.1074,-0.23966 0.23977,-0.23978 z m 0.99994,0 c 0.13258,-1.7e-4 0.24018,0.1072 0.2403,0.23978 -1.2e-4,0.13257 -0.10772,0.23994 -0.2403,0.23978 -0.13237,-1.3e-4 -0.23965,-0.10741 -0.23978,-0.23978 1.3e-4,-0.13238 0.10741,-0.23966 0.23978,-0.23978 z m 0.99994,0 c 0.13258,-1.7e-4 0.24018,0.1072 0.2403,0.23978 -1.2e-4,0.13257 -0.10772,0.23994 -0.2403,0.23978 -0.13237,-1.3e-4 -0.23966,-0.10741 -0.23978,-0.23978 1.2e-4,-0.13238 0.10741,-0.23966 0.23978,-0.23978 z m 0.99994,0 c 0.13258,-1.7e-4 0.24017,0.1072 0.2403,0.23978 -1.3e-4,0.13257 -0.10772,0.23994 -0.2403,0.23978 -0.13237,-1.3e-4 -0.23966,-0.10741 -0.23978,-0.23978 1.2e-4,-0.13238 0.10741,-0.23966 0.23978,-0.23978 z m 1.00046,0 c 0.13237,1.2e-4 0.23965,0.1074 0.23978,0.23978 -1.3e-4,0.13237 -0.10741,0.23965 -0.23978,0.23978 -0.13258,1.6e-4 -0.24018,-0.10721 -0.2403,-0.23978 1.2e-4,-0.13258 0.10772,-0.23995 0.2403,-0.23978 z m 0.99993,0 c 0.13238,1.2e-4 0.23966,0.1074 0.23978,0.23978 -1.2e-4,0.13237 -0.1074,0.23965 -0.23978,0.23978 -0.13257,1.6e-4 -0.24017,-0.10721 -0.24029,-0.23978 1.2e-4,-0.13258 0.10772,-0.23995 0.24029,-0.23978 z m -10.529068,10.23968 h 17.999938 v 3.00033 H 51.050354 Z M 11.5215,181.04986 c 0.0095,-5e-5 0.01895,-5e-5 0.02842,0 1.380794,-6e-5 2.500163,1.11932 2.500106,2.50011 5.9e-5,1.38079 -1.119311,2.50016 -2.500106,2.5001 -1.380593,-2.2e-4 -2.499648,-1.11951 -2.499589,-2.5001 -1.47e-4,-1.36957 1.101688,-2.48431 2.471167,-2.50011 z m 64.999652,0 c 0.01,-6e-5 0.0193,-6e-5 0.0289,0 1.38079,-6e-5 2.50017,1.11932 2.50011,2.50011 6e-5,1.38079 -1.11932,2.50016 -2.50011,2.5001 -1.38079,6e-5 -2.50016,-1.11931 -2.5001,-2.5001 -1.5e-4,-1.36957 1.10168,-2.48431 2.47116,-2.50011 z"
         sodipodi:nodetypes="ssssccccccccssssscccccccccccccccccsssssscssccccccccccccccccccccccccccccccccccccccccccccccccccccccccccccccccccccccccccccccccccccccccccccccccccccccccccccccccccccccccccccccccccccccccccccccccccccccccccccccccccccccccccccccccccccccccccccccccccccccccccccccccccccccccccccccccccccccccccccccccccccccccccccccccccccccccccccccccccccccccccccccccccccccccccccccccccccccccccccccccccccccccccccccccccccccccccccccccccccccccccccccccccccccccccccccccccccccccccccccccccccccccccccccccccccccccccccccccccccccccccccccccccccccccccccccccccccccccccccccccccccccccccccccccccccccccccccccccccccccccccccccccccccccccccccccccccccccccccccccccccccccccccccccccccccccccccccccccccccccccccccccccccccccccccccccccccccccccccccccccccccccccccccccccccccccccccccccccccccccccccccccccccccccccccccccccccccccccccccccccccccccccccccccccccccccccccccccccccccc" />
    </g>
  </g>
</svg>
