<?xml version="1.0" encoding="UTF-8" standalone="no"?>
<svg
   xmlns:dc="http://purl.org/dc/elements/1.1/"
   xmlns:cc="http://creativecommons.org/ns#"
   xmlns:rdf="http://www.w3.org/1999/02/22-rdf-syntax-ns#"
   xmlns:svg="http://www.w3.org/2000/svg"
   xmlns="http://www.w3.org/2000/svg"
   xmlns:sodipodi="http://sodipodi.sourceforge.net/DTD/sodipodi-0.dtd"
   xmlns:inkscape="http://www.inkscape.org/namespaces/inkscape"
   sodipodi:docname="White_5mm.svg"
   inkscape:version="1.0 (4035a4fb49, 2020-05-01)"
   id="svg8"
   version="1.1"
   viewBox="0 0 243.0098 82.009977"
   height="82.009979mm"
   width="243.0098mm">
  <defs
     id="defs2" />
  <sodipodi:namedview
     fit-margin-right="1"
     fit-margin-top="1"
     fit-margin-bottom="1"
     fit-margin-left="1"
     inkscape:snap-smooth-nodes="true"
     inkscape:window-maximized="1"
     inkscape:window-y="-8"
     inkscape:window-x="-8"
     inkscape:window-height="1017"
     inkscape:window-width="1920"
     inkscape:snap-global="true"
     inkscape:bbox-paths="true"
     inkscape:snap-bbox-midpoints="true"
     inkscape:snap-bbox="false"
     inkscape:guide-bbox="true"
     showguides="true"
     showgrid="false"
     inkscape:document-rotation="0"
     inkscape:current-layer="layer5"
     inkscape:document-units="mm"
     inkscape:cy="62.531891"
     inkscape:cx="261.68453"
     inkscape:zoom="1.4142136"
     inkscape:pageshadow="2"
     inkscape:pageopacity="0.0"
     borderopacity="1.0"
     bordercolor="#666666"
     pagecolor="#ffffff"
     id="base">
    <inkscape:grid
       originy="-108.99478"
       originx="-0.99510972"
       spacingy="1"
       spacingx="1"
       units="mm"
       id="grid842"
       type="xygrid" />
    <sodipodi:guide
       id="guide844"
       orientation="1,0"
       position="-0.99510966,196.29644" />
    <sodipodi:guide
       id="guide846"
       orientation="1,0"
       position="79.004889,136.00476" />
    <sodipodi:guide
       id="guide848"
       orientation="0,-1"
       position="-1.9951096,191.00477" />
  </sodipodi:namedview>
  <metadata
     id="metadata5">
    <rdf:RDF>
      <cc:Work
         rdf:about="">
        <dc:format>image/svg+xml</dc:format>
        <dc:type
           rdf:resource="http://purl.org/dc/dcmitype/StillImage" />
        <dc:title />
      </cc:Work>
    </rdf:RDF>
  </metadata>
  <g
     inkscape:groupmode="layer"
     id="layer8"
     inkscape:label="plots"
     sodipodi:insensitive="true"
     style="display:inline"
     transform="translate(-2.0451097,-110.04479)">
    <g
       inkscape:groupmode="layer"
       id="layer5"
       inkscape:label="White_5mm"
       style="display:inline"
       sodipodi:insensitive="true">
      <path
         id="rect852-6-1-5"
         style="display:inline;fill:none;stroke:#0000ff;stroke-width:0.01;stroke-linecap:round;stroke-miterlimit:4;stroke-dasharray:none;stroke-dashoffset:37.7953"
         d="m 5.0499877,111.05 c -1.108001,0 -1.999878,0.89188 -1.999878,1.99988 v 76.00001 c 0,1.108 0.891877,1.99988 1.999878,1.99988 H 38.05004 v -2.99982 h -1.999877 v -3.52898 h 1.999877 v -1.47072 H 23.049923 v -3.00033 h 15.079182 c 0.04382,-0.84683 0.06466,-2.19915 -0.07906,-3.99976 -0.397851,-4.98414 -12.731242,1.30574 -16.984497,-1.32291 -3.170188,-1.95929 -9.280915,-2.57252 -9.431466,-6.29626 -0.148061,-3.66213 2.812903,-2.12422 2.260633,-6.15865 -0.474395,-3.46554 9.055103,-3.0985 10.914274,-3.53739 3.244162,-0.76585 10.884029,4.67212 13.241051,2.3151 1.178512,-1.17851 1.662163,-5.12267 0,-5.00021 -13.060527,0.96238 -2.062618,-11.24479 -7.062618,-11.24479 -3.333327,0 -13.447246,11.04806 -15.556156,8.46666 C 9.0501097,148.05 10.05011,137.05 10.05011,137.05 c 0.491811,-2.4163 6.432969,-2.10258 6.319083,-7.85227 -0.06256,-3.15848 6.755575,-9.00501 9.94358,-9.0289 0.455429,-0.003 3.737339,-0.11883 4.978507,-0.83871 4.97899,-2.88785 2.636872,2.30756 7.108902,-0.8155 2.665552,-1.86149 3.479593,-1.99218 8.694076,-0.37904 1.933995,0.5983 1.622499,2.01522 -0.02713,3.14475 -0.871606,0.5968 -3.165737,0.25514 -3.408838,1.54437 -0.608181,3.2253 -3.60818,3.2253 -2.896271,7.26032 1.384816,7.84896 -7.837596,8.92623 -4.302061,12.46177 1.178512,1.17851 5.238223,-0.52204 6.590294,-1.49655 4.275622,-3.0817 2.831732,-15.73017 5.85959,-13.54491 2.14027,1.54467 2.007978,1.1478 2.062408,1.45521 0.4714,2.6623 3.899504,1.87178 4.077862,2.08946 l -7.4e-5,-14.99979 h 2.999816 v 14.99961 h 5.00021 v -1.99988 c 0,-1.662 1.337818,-2.99982 2.999819,-2.99982 h 9.000487 c 1.662,0 2.99981,1.33782 2.99981,2.99982 v 14.00018 c 0,1.662 -1.33781,2.99981 -2.99981,2.99981 h -9.000487 c -1.662001,0 -2.999819,-1.33781 -2.999819,-2.99981 v -8.99997 h -5.00021 v 1.99988 h -3.999743 c -0.492585,1.71243 1.408996,3.20799 1.883077,5.39708 0.788797,3.64235 1.069663,7.30145 0.213423,10.92854 -0.405916,1.71948 -5.017627,6.00325 -8.998418,6.34586 -5.314299,0.45737 2.215867,3.57255 2.311487,4.25658 0.137438,0.98318 2.56244,-1.92804 3.590478,-1.92804 5.000001,0 1.712447,-1.13927 4.003374,-1.93011 2.843839,-0.98172 4.938498,7.32704 8.013464,2.71249 0.602586,-0.90429 1.260999,-3.07351 -0.145211,-3.75326 -4.643477,-2.24459 0.01156,-3.69081 1.648994,-5.98051 0.242097,-0.33853 10.968951,-1.0414 10.680481,1.90014 -0.20115,2.0512 1.1791,3.16863 0.48111,5.6441 -1.2777,4.53151 -1.29267,1.71878 -3.29489,2.94504 -2.3872,1.46205 1.69759,4.96365 1.74873,5.64462 0.19775,2.63325 -3.47732,5.84782 -5.59628,6.40239 -1.82268,0.47703 -6.409624,-2.01578 -7.936741,-0.43687 -3.476093,3.594 -14.492018,-3.14668 -14.603243,1.85208 -0.04659,2.09434 -0.04758,3.28281 -0.03721,3.99976 H 68.05027 v 3.00033 H 48.049942 v 1.47072 h 2.000395 v 3.52898 h -2.000395 v 2.99982 H 81.04999 c 1.10801,0 1.99988,-0.89188 1.99988,-1.99988 V 113.04988 C 83.04988,111.94188 82.158,111.05 81.05,111.05 Z m 5.4715003,5.00021 c 0.0095,-5e-5 0.01895,-5e-5 0.02842,0 1.380593,-5e-5 2.499879,1.119 2.500106,2.49959 5.9e-5,1.3808 -1.119311,2.50017 -2.500105,2.50011 -1.3805933,-2.3e-4 -2.4996483,-1.11951 -2.4995893,-2.50011 1.33e-4,-1.36937 1.101888,-2.48379 2.4711663,-2.49959 z m 64.999652,0 c 0.01,-5e-5 0.0193,-5e-5 0.0289,0 1.38059,-5e-5 2.49988,1.119 2.5001,2.49959 6e-5,1.3808 -1.11931,2.50017 -2.5001,2.50011 -1.38079,6e-5 -2.50016,-1.11931 -2.5001,-2.50011 1.3e-4,-1.36937 1.10188,-2.48379 2.47116,-2.49959 z m -64.999652,64.99965 c 0.0095,-5e-5 0.01895,-5e-5 0.02842,0 1.380794,-6e-5 2.500163,1.11932 2.500106,2.5001 5.9e-5,1.3808 -1.119311,2.50017 -2.500106,2.50011 -1.3805923,-2.3e-4 -2.4996473,-1.11951 -2.4995883,-2.50011 -1.48e-4,-1.36956 1.101687,-2.4843 2.4711663,-2.5001 z m 64.999652,0 c 0.01,-5e-5 0.0193,-5e-5 0.0289,0 1.38079,-6e-5 2.50016,1.11932 2.5001,2.5001 6e-5,1.3808 -1.11931,2.50017 -2.5001,2.50011 -1.38079,6e-5 -2.50016,-1.11931 -2.5001,-2.50011 -1.5e-4,-1.36956 1.10168,-2.4843 2.47116,-2.5001 z"
         sodipodi:nodetypes="sssscccccccccsssssscsccsssssssssssscccccssssssssccccsssssssssssssssscccccccccssssscccccccccccccccccccccccc" />
      <path
         id="rect852-6-1-3"
         style="display:inline;fill:none;stroke:#0000ff;stroke-width:0.01;stroke-linecap:round;stroke-miterlimit:4;stroke-dasharray:none;stroke-dashoffset:37.7953"
         d="m 85.55008,111.04979 c -1.108001,0 -1.999878,0.89188 -1.999878,1.99988 v 76.00001 c 0,1.108 0.891877,1.99988 1.999878,1.99988 h 33.00005 v -2.99982 h -1.99988 v -3.52898 h 1.99988 v -1.47072 h -15.00012 v -3.00033 h 15.07919 c 0.0438,-0.84683 0.0647,-2.19915 -0.0791,-3.99976 -0.39785,-4.98414 -12.73125,1.30574 -16.9845,-1.32291 -3.170188,-1.95929 -9.280915,-2.57252 -9.431466,-6.29626 -0.148061,-3.66213 2.812903,-2.12422 2.260633,-6.15865 -0.474395,-3.46554 9.055103,-3.09851 10.914273,-3.5374 3.24416,-0.76584 10.88403,4.67213 13.24105,2.31511 1.17851,-1.17852 1.66216,-5.12268 0,-5.00022 -13.06053,0.96239 -2.06262,-11.24478 -7.06262,-11.24479 -3.33332,0 -13.447242,11.04807 -15.556152,8.46667 -6.381156,-5.22171 -5.381156,-16.22171 -5.381156,-16.22171 0.491811,-2.4163 6.432969,-2.10258 6.319083,-7.85227 -0.06256,-3.15849 6.755575,-9.00501 9.943575,-9.02891 0.45543,-0.003 3.73734,-0.11882 4.97851,-0.83871 4.97899,-2.88784 2.63687,2.30756 7.1089,-0.81549 2.66556,-1.8615 3.4796,-1.99219 8.69408,-0.37904 1.93399,0.5983 1.6225,2.01521 -0.0271,3.14475 -0.87161,0.5968 -3.16574,0.25514 -3.40884,1.54437 -0.60818,3.2253 -3.60818,3.2253 -2.89627,7.26031 1.38482,7.84897 -7.8376,8.92624 -4.30206,12.46177 1.17851,1.17852 5.23822,-0.52203 6.59029,-1.49655 4.27563,-3.08169 2.83174,-15.73017 5.85959,-13.54491 2.14027,1.54468 2.00798,1.1478 2.06241,1.45521 0.4714,2.66231 3.89951,1.87178 4.07786,2.08947 l -7e-5,-14.99979 h 2.99982 v 14.9996 h 5.0002 v -1.99988 c 0,-1.662 1.33782,-2.99981 2.99982,-2.99981 h 9.00049 c 1.662,0 2.99981,1.33781 2.99981,2.99981 v 14.00018 c 0,1.662 -1.33781,2.99982 -2.99981,2.99982 h -9.00049 c -1.662,0 -2.99982,-1.33782 -2.99982,-2.99982 v -8.99996 h -5.0002 v 1.99987 h -3.99975 c -0.49258,1.71243 1.409,3.20799 1.88308,5.39709 0.7888,3.64235 1.06966,7.30144 0.21342,10.92853 -0.40591,1.71949 -5.01762,6.00326 -8.99842,6.34587 -5.31429,0.45737 2.21587,3.57255 2.31149,4.25658 0.13744,0.98318 2.56244,-1.92804 3.59048,-1.92804 5,0 1.71245,-1.13927 4.00337,-1.93012 2.84384,-0.98171 4.9385,7.32705 8.01347,2.7125 0.60258,-0.90429 1.26099,-3.07352 -0.14522,-3.75326 -4.64347,-2.24459 0.0116,-3.69081 1.649,-5.98051 0.2421,-0.33854 10.96895,-1.0414 10.68048,1.90014 -0.20115,2.0512 1.1791,3.16863 0.48111,5.6441 -1.2777,4.53151 -1.29267,1.71878 -3.29489,2.94504 -2.3872,1.46205 1.69759,4.96365 1.74873,5.64462 0.19775,2.63325 -3.47732,5.84782 -5.59628,6.40239 -1.82268,0.47703 -6.40962,-2.01578 -7.93674,-0.43687 -3.47609,3.594 -14.49202,-3.14668 -14.60324,1.85208 -0.0466,2.09434 -0.0476,3.28281 -0.0372,3.99976 h 20.03753 v 3.00033 h -20.00033 v 1.47072 h 2.0004 v 3.52898 h -2.0004 v 2.99982 h 33.00005 c 1.10801,0 1.99988,-0.89188 1.99988,-1.99988 v -76.00001 c 1e-5,-1.108 -0.89187,-1.99988 -1.99987,-1.99988 z m 5.4715,5.00021 c 0.0095,-5e-5 0.01895,-5e-5 0.02842,0 1.380593,-6e-5 2.499879,1.119 2.500106,2.49959 5.9e-5,1.38079 -1.119311,2.50016 -2.500105,2.5001 -1.380593,-2.2e-4 -2.499648,-1.11951 -2.499589,-2.5001 1.33e-4,-1.36937 1.101888,-2.4838 2.471166,-2.49959 z m 64.99965,0 c 0.01,-6e-5 0.0193,-6e-5 0.0289,0 1.38059,-6e-5 2.49988,1.119 2.5001,2.49959 6e-5,1.38079 -1.11931,2.50016 -2.5001,2.5001 -1.38079,6e-5 -2.50016,-1.11931 -2.5001,-2.5001 1.3e-4,-1.36937 1.10188,-2.4838 2.47116,-2.49959 z m -64.99965,64.99965 c 0.0095,-5e-5 0.01895,-5e-5 0.02842,0 1.380794,-6e-5 2.500163,1.11932 2.500106,2.5001 5.9e-5,1.3808 -1.119311,2.50017 -2.500106,2.50011 -1.380592,-2.3e-4 -2.499647,-1.11951 -2.499588,-2.50011 -1.48e-4,-1.36956 1.101687,-2.4843 2.471166,-2.5001 z m 64.99965,0 c 0.01,-5e-5 0.0193,-5e-5 0.0289,0 1.38079,-6e-5 2.50016,1.11932 2.5001,2.5001 6e-5,1.3808 -1.11931,2.50017 -2.5001,2.50011 -1.38079,6e-5 -2.50016,-1.11931 -2.5001,-2.50011 -1.5e-4,-1.36956 1.10168,-2.4843 2.47116,-2.5001 z"
         sodipodi:nodetypes="sssscccccccccsssssscsccsssssssssssscccccssssssssccccsssssssssssssssscccccccccssssscccccccccccccccccccccccc" />
      <path
         d="m 166.05,111.05 c -1.108,0 -1.99987,0.89188 -1.99987,1.99988 v 76.00001 c 0,1.108 0.89187,1.99988 1.99987,1.99988 h 76.00002 c 1.108,0 1.99988,-0.89188 1.99988,-1.99988 v -76.00001 c 0,-1.108 -0.89188,-1.99988 -1.99988,-1.99988 z m 5.4715,5.00021 c 0.01,-5e-5 0.0189,-5e-5 0.0284,0 1.3806,-5e-5 2.49988,1.119 2.50011,2.49959 6e-5,1.3808 -1.11931,2.50017 -2.5001,2.50011 -1.3806,-2.3e-4 -2.49965,-1.11951 -2.49959,-2.50011 1.3e-4,-1.36936 1.10188,-2.48379 2.47116,-2.49959 z m 44.52856,0 h 2.99981 v 19.99982 h -2.99981 z m 20.4711,0 c 0.01,-5e-5 0.0193,-5e-5 0.0289,0 1.38059,-5e-5 2.49988,1.119 2.5001,2.49959 6e-5,1.3808 -1.11931,2.50017 -2.5001,2.50011 -1.38079,6e-5 -2.50016,-1.11931 -2.5001,-2.50011 1.3e-4,-1.36936 1.10188,-2.48379 2.47116,-2.49959 z m -52.47122,63.99971 h 45.00036 v 3.00033 h -45.00036 z m -12.52844,0.99994 c 0.01,-5e-5 0.0189,-5e-5 0.0284,0 1.3808,-6e-5 2.50017,1.11932 2.50011,2.5001 6e-5,1.3808 -1.11931,2.50017 -2.50011,2.50011 -1.38059,-2.2e-4 -2.49964,-1.1195 -2.49958,-2.50011 -1.5e-4,-1.36956 1.10168,-2.48429 2.47116,-2.5001 z m 64.99966,0 c 0.01,-5e-5 0.0193,-5e-5 0.0289,0 1.38079,-6e-5 2.50016,1.11932 2.5001,2.5001 6e-5,1.3808 -1.11931,2.50017 -2.5001,2.50011 -1.38079,6e-5 -2.50016,-1.11931 -2.5001,-2.50011 -1.5e-4,-1.36956 1.10168,-2.48429 2.47116,-2.5001 z m -39.47098,3.47111 h 14.00018 v 3.52898 h -14.00018 z"
         style="display:inline;fill:none;stroke:#0000ff;stroke-width:0.01;stroke-linecap:round;stroke-miterlimit:4;stroke-dasharray:none;stroke-dashoffset:37.7953"
         id="rect852-6-11-9" />
    </g>
  </g>
</svg>
