<?xml version="1.0" encoding="UTF-8" standalone="no"?>
<svg
   xmlns:dc="http://purl.org/dc/elements/1.1/"
   xmlns:cc="http://creativecommons.org/ns#"
   xmlns:rdf="http://www.w3.org/1999/02/22-rdf-syntax-ns#"
   xmlns:svg="http://www.w3.org/2000/svg"
   xmlns="http://www.w3.org/2000/svg"
   xmlns:sodipodi="http://sodipodi.sourceforge.net/DTD/sodipodi-0.dtd"
   xmlns:inkscape="http://www.inkscape.org/namespaces/inkscape"
   width="41.010574mm"
   height="33.010426mm"
   viewBox="0 0 41.010574 33.010425"
   version="1.1"
   id="svg2458"
   inkscape:version="1.0 (4035a4fb49, 2020-05-01)"
   sodipodi:docname="white_3mm.svg">
  <defs
     id="defs2452" />
  <sodipodi:namedview
     id="base"
     pagecolor="#ffffff"
     bordercolor="#666666"
     borderopacity="1.0"
     inkscape:pageopacity="0.0"
     inkscape:pageshadow="2"
     inkscape:zoom="2.8"
     inkscape:cx="94.394306"
     inkscape:cy="-7.9330155"
     inkscape:document-units="mm"
     inkscape:current-layer="layer2"
     inkscape:document-rotation="0"
     showgrid="true"
     inkscape:snap-bbox="false"
     inkscape:snap-bbox-edge-midpoints="true"
     inkscape:window-width="1920"
     inkscape:window-height="1017"
     inkscape:window-x="-8"
     inkscape:window-y="-8"
     inkscape:window-maximized="1"
     fit-margin-left="1"
     fit-margin-top="1"
     fit-margin-bottom="1"
     fit-margin-right="1">
    <inkscape:grid
       type="xygrid"
       id="grid3030"
       units="mm"
       spacingx="1"
       spacingy="1"
       dotted="false"
       originx="-11.994637"
       originy="-37.994606" />
  </sodipodi:namedview>
  <metadata
     id="metadata2455">
    <rdf:RDF>
      <cc:Work
         rdf:about="">
        <dc:format>image/svg+xml</dc:format>
        <dc:type
           rdf:resource="http://purl.org/dc/dcmitype/StillImage" />
        <dc:title></dc:title>
      </cc:Work>
    </rdf:RDF>
  </metadata>
  <g
     transform="translate(-0.045,-32.044821)"
     inkscape:label="output"
     id="layer2"
     inkscape:groupmode="layer">
    <g
       inkscape:label="white_3mm"
       id="layer3"
       inkscape:groupmode="layer">
      <path
         d="m 40.050574,51.049911 c 0,-0.554 -0.44594,-0.999939 -0.99994,-0.999939 h -2.999817 c -0.554,0 -1.000455,0.445939 -1.000455,0.999939 V 49.050033 H 17.050427 v 14.000179 h 17.999935 v -1.999877 c 0,0.554 0.446455,0.99994 1.000455,0.99994 h 2.999817 c 0.554,0 0.99994,-0.44594 0.99994,-0.99994 z m -11.999786,3.5295 v 2.999817 c 0,0.554 -0.445936,0.999939 -0.999939,0.999939 H 22.05064 c -0.554001,0 -0.99994,-0.445939 -0.99994,-0.999939 v -2.999817 c 0,-0.554001 0.445939,-0.999938 0.99994,-0.999939 h 5.000209 c 0.554003,0 0.999939,0.445938 0.999939,0.999939 z"
         style="fill:none;stroke:#0000ff;stroke-width:0.01;stroke-linecap:round;stroke-miterlimit:4;stroke-dasharray:none;stroke-dashoffset:37.7953"
         id="rect3034-8-4" />
      <path
         d="m 2.049939,33.049822 c -0.554,0 -0.999939,0.445939 -0.999939,0.99994 v 2.999816 c 0,0.554 0.445939,1.000455 0.999939,1.000455 V 51.049755 H 4.5795 v -5.000208 c 0,-0.554004 0.445938,-0.999941 0.999939,-0.999941 h 2.999817 c 0.5540002,0 0.999939,0.445937 0.999939,0.999941 v 5.000208 h 2.471167 V 38.050033 c 0.554,0 0.999939,-0.446455 0.999939,-1.000456 v -2.999816 c 0,-0.554001 -0.44594,-0.99994 -0.999939,-0.99994 z"
         style="fill:none;stroke:#0000ff;stroke-width:0.01;stroke-linecap:round;stroke-miterlimit:4;stroke-dasharray:none;stroke-dashoffset:37.7953"
         id="rect3036-3-8" />
      <path
         id="rect3036-3-1-0"
         style="fill:none;stroke:#0000ff;stroke-width:0.01;stroke-linecap:round;stroke-miterlimit:4;stroke-dasharray:none;stroke-dashoffset:37.7953"
         d="m 15.050784,64.050244 c 0.554,0 0.999939,-0.445937 0.999939,-0.99994 V 60.05049 c 0,-0.554003 -0.445939,-1.000457 -0.999939,-1.000457 V 46.050311 h -2.529561 v 5.000209 c 0,0.554003 -0.445938,0.99994 -0.999939,0.99994 H 8.521467 c -0.5539999,0 -0.9999389,-0.445937 -0.9999389,-0.99994 v -5.000209 h -2.471166 v 12.999722 c -0.554001,0 -0.9999401,0.446454 -0.9999401,1.000457 v 2.999817 c 0,0.554 0.4459391,0.99994 0.9999401,0.99994 z" />
      <path
         id="rect3034-8-5-5"
         style="fill:none;stroke:#0000ff;stroke-width:0.01;stroke-linecap:round;stroke-miterlimit:4;stroke-dasharray:none;stroke-dashoffset:37.7953"
         d="m 16.050149,46.050334 c 0,0.554 0.445939,0.999939 0.99994,0.999939 h 2.999817 c 0.554001,0 1.000456,-0.445939 1.000456,-0.999939 v 1.999878 H 39.050295 V 34.050033 H 21.050362 v 1.999878 c 0,-0.554 -0.446455,-0.999939 -1.000456,-0.999939 h -2.999817 c -0.554001,0 -0.99994,0.445939 -0.99994,0.999939 z m 11.999785,-3.5295 v -2.999817 c 0,-0.554 0.445936,-0.999939 0.99994,-0.999939 h 5.000209 c 0.554001,0 0.99994,0.445939 0.99994,0.999939 v 2.999817 c 0,0.554001 -0.445939,0.999938 -0.99994,0.999939 h -5.000209 c -0.554004,0 -0.99994,-0.445938 -0.99994,-0.999939 z" />
    </g>
  </g>
</svg>
