<?xml version="1.0" encoding="UTF-8" standalone="no"?>
<svg
   xmlns:dc="http://purl.org/dc/elements/1.1/"
   xmlns:cc="http://creativecommons.org/ns#"
   xmlns:rdf="http://www.w3.org/1999/02/22-rdf-syntax-ns#"
   xmlns:svg="http://www.w3.org/2000/svg"
   xmlns="http://www.w3.org/2000/svg"
   xmlns:sodipodi="http://sodipodi.sourceforge.net/DTD/sodipodi-0.dtd"
   xmlns:inkscape="http://www.inkscape.org/namespaces/inkscape"
   width="107.1mm"
   height="107.09979mm"
   viewBox="0 0 107.1 107.09979"
   version="1.1"
   id="svg8"
   inkscape:version="1.0 (4035a4fb49, 2020-05-01)"
   sodipodi:docname="small_nest.svg">
  <defs
     id="defs2" />
  <sodipodi:namedview
     id="base"
     pagecolor="#ffffff"
     bordercolor="#666666"
     borderopacity="1.0"
     inkscape:pageopacity="0.0"
     inkscape:pageshadow="2"
     inkscape:zoom="1.4142136"
     inkscape:cx="235.47296"
     inkscape:cy="418.34513"
     inkscape:document-units="mm"
     inkscape:current-layer="layer8"
     inkscape:document-rotation="0"
     showgrid="false"
     showguides="true"
     inkscape:guide-bbox="true"
     inkscape:snap-bbox="false"
     inkscape:snap-bbox-midpoints="true"
     inkscape:bbox-paths="true"
     inkscape:snap-global="true"
     inkscape:window-width="1920"
     inkscape:window-height="1017"
     inkscape:window-x="-8"
     inkscape:window-y="-8"
     inkscape:window-maximized="1"
     inkscape:snap-smooth-nodes="true"
     fit-margin-left="1"
     fit-margin-bottom="1"
     fit-margin-top="1"
     fit-margin-right="1">
    <inkscape:grid
       type="xygrid"
       id="grid842"
       units="mm"
       spacingx="1"
       spacingy="1"
       originx="1.0500001"
       originy="1.05" />
    <sodipodi:guide
       position="1.05,111.34147"
       orientation="1,0"
       id="guide844" />
    <sodipodi:guide
       position="81.05,51.049792"
       orientation="1,0"
       id="guide846" />
    <sodipodi:guide
       position="0.050000054,106.0498"
       orientation="0,-1"
       id="guide848" />
  </sodipodi:namedview>
  <metadata
     id="metadata5">
    <rdf:RDF>
      <cc:Work
         rdf:about="">
        <dc:format>image/svg+xml</dc:format>
        <dc:type
           rdf:resource="http://purl.org/dc/dcmitype/StillImage" />
        <dc:title />
      </cc:Work>
    </rdf:RDF>
  </metadata>
  <g
     style="display:none"
     sodipodi:insensitive="true"
     inkscape:label="plots"
     id="layer8"
     inkscape:groupmode="layer">
    <g
       sodipodi:insensitive="true"
       style="display:none"
       inkscape:label="White_3mm"
       id="layer2"
       inkscape:groupmode="layer">
      <path
         sodipodi:nodetypes="csccccccssc"
         id="rect2408-0-2"
         style="display:inline;fill:none;stroke:#0000ff;stroke-width:0.01;stroke-linecap:round;stroke-miterlimit:4;stroke-dasharray:none;stroke-dashoffset:37.7953"
         d="m 7.1044381,118.04957 c -1e-5,1.108 0.89191,2.0096 1.99987,2.0004 h 6.0001499 l 2.7e-4,10 h 14.9996 l -2.7e-4,-15.00043 h -13.99966 -0.99994 -6.0001499 c -1.108,0 -1.99987,0.8924 -1.99987,2.0004 z" />
      <path
         d="m 33.0504,123.04997 c -1.108,0 -2.0004,0.89188 -2.0004,1.99988 V 131.05 H 6.0504951 v 14.9996 H 41.05043 V 132.04994 131.05 125.04985 c 0,-1.108 -0.8924,-1.99988 -2.0004,-1.99988 z m -9.0625,11.99979 h 2.99982 c 0.554,0 0.99994,0.44594 0.99994,0.99994 v 4.00027 c 0,0.554 -0.44594,0.99994 -0.99994,0.99994 H 23.9879 c -0.554,0 -0.99994,-0.44594 -0.99994,-0.99994 v -4.00027 c 0,-0.554 0.44594,-0.99994 0.99994,-0.99994 z"
         style="display:inline;fill:none;stroke:#0000ff;stroke-width:0.01;stroke-linecap:round;stroke-miterlimit:4;stroke-dasharray:none;stroke-dashoffset:37.7953"
         id="rect2408-3" />
    </g>
    <g
       sodipodi:insensitive="true"
       style="display:none"
       inkscape:label="Black_5mm"
       id="layer3"
       inkscape:groupmode="layer">
      <path
         id="rect852-6-4-2"
         style="display:inline;fill:none;stroke:#0000ff;stroke-width:0.01;stroke-linecap:round;stroke-miterlimit:4;stroke-dasharray:none;stroke-dashoffset:37.7953"
         d="m 3.0500481,108.5502 c -1.108001,0 -1.999878,0.89188 -1.999878,1.99988 v 76.00001 c 0,1.108 0.891877,1.99988 1.999878,1.99988 H 79.05006 c 1.108,0 1.99988,-0.89188 1.99988,-1.99988 v -76.00001 c 0,-1.108 -0.89188,-1.99988 -1.99988,-1.99988 z m 5.4715,5.00021 a 2.4999999,2.4999999 0 0 1 0.02842,0 2.4999999,2.4999999 0 0 1 2.5001059,2.49959 2.4999999,2.4999999 0 0 1 -2.5001049,2.50011 2.4999999,2.4999999 0 0 1 -2.499589,-2.50011 2.4999999,2.4999999 0 0 1 2.471166,-2.49959 z m 64.9996519,0 a 2.4999999,2.4999999 0 0 1 0.0289,0 2.4999999,2.4999999 0 0 1 2.5001,2.49959 2.4999999,2.4999999 0 0 1 -2.5001,2.50011 A 2.4999999,2.4999999 0 0 1 71.05,116.05 2.4999999,2.4999999 0 0 1 73.52116,113.55041 Z M 8.5499711,178.55006 a 2.5,2.5 0 0 1 2.5001049,2.50011 2.5,2.5 0 0 1 -2.5001049,2.5001 2.5,2.5 0 0 1 -2.499589,-2.5001 2.5,2.5 0 0 1 2.499589,-2.50011 z m 64.9712289,0 a 2.5,2.5 0 0 1 0.0289,0 2.5,2.5 0 0 1 2.5001,2.50011 2.5,2.5 0 0 1 -2.5001,2.5001 2.5,2.5 0 0 1 -2.5001,-2.5001 2.5,2.5 0 0 1 2.47116,-2.50011 z" />
    </g>
    <g
       sodipodi:insensitive="true"
       style="display:none"
       inkscape:label="White_5mm"
       id="layer5"
       inkscape:groupmode="layer">
      <path
         sodipodi:nodetypes="sssscccccccccsssssscsccsssssssssssscccccssssssssccccsssssssssssssssscccccccccssssscccccccccccccccccccccccc"
         d="m 5.0499877,111.05 c -1.108001,0 -1.999878,0.89188 -1.999878,1.99988 v 76.00001 c 0,1.108 0.891877,1.99988 1.999878,1.99988 H 38.05004 v -2.99982 h -1.999877 v -3.52898 h 1.999877 v -1.47072 H 23.049923 v -3.00033 h 15.079182 c 0.04382,-0.84683 0.06466,-2.19915 -0.07906,-3.99976 -0.397851,-4.98414 -12.731242,1.30574 -16.984497,-1.32291 -3.170188,-1.95929 -9.280915,-2.57252 -9.431466,-6.29626 -0.148061,-3.66213 2.812903,-2.12422 2.260633,-6.15865 -0.474395,-3.46554 9.055103,-3.0985 10.914274,-3.53739 3.244162,-0.76585 10.884029,4.67212 13.241051,2.3151 1.178512,-1.17851 1.662163,-5.12267 0,-5.00021 -13.060527,0.96238 -2.062618,-11.24479 -7.062618,-11.24479 -3.333327,0 -13.447246,11.04806 -15.556156,8.46666 C 9.0501097,148.05 10.05011,137.05 10.05011,137.05 c 0.491811,-2.4163 6.432969,-2.10258 6.319083,-7.85227 -0.06256,-3.15848 6.755575,-9.00501 9.94358,-9.0289 0.455429,-0.003 3.737339,-0.11883 4.978507,-0.83871 4.97899,-2.88785 2.636872,2.30756 7.108902,-0.8155 2.665552,-1.86149 3.479593,-1.99218 8.694076,-0.37904 1.933995,0.5983 1.622499,2.01522 -0.02713,3.14475 -0.871606,0.5968 -3.165737,0.25514 -3.408838,1.54437 -0.608181,3.2253 -3.60818,3.2253 -2.896271,7.26032 1.384816,7.84896 -7.837596,8.92623 -4.302061,12.46177 1.178512,1.17851 5.238223,-0.52204 6.590294,-1.49655 4.275622,-3.0817 2.831732,-15.73017 5.85959,-13.54491 2.14027,1.54467 2.007978,1.1478 2.062408,1.45521 0.4714,2.6623 3.899504,1.87178 4.077862,2.08946 l -7.4e-5,-14.99979 h 2.999816 v 14.99961 h 5.00021 v -1.99988 c 0,-1.662 1.337818,-2.99982 2.999819,-2.99982 h 9.000487 c 1.662,0 2.99981,1.33782 2.99981,2.99982 v 14.00018 c 0,1.662 -1.33781,2.99981 -2.99981,2.99981 h -9.000487 c -1.662001,0 -2.999819,-1.33781 -2.999819,-2.99981 v -8.99997 h -5.00021 v 1.99988 h -3.999743 c -0.492585,1.71243 1.408996,3.20799 1.883077,5.39708 0.788797,3.64235 1.069663,7.30145 0.213423,10.92854 -0.405916,1.71948 -5.017627,6.00325 -8.998418,6.34586 -5.314299,0.45737 2.215867,3.57255 2.311487,4.25658 0.137438,0.98318 2.56244,-1.92804 3.590478,-1.92804 5.000001,0 1.712447,-1.13927 4.003374,-1.93011 2.843839,-0.98172 4.938498,7.32704 8.013464,2.71249 0.602586,-0.90429 1.260999,-3.07351 -0.145211,-3.75326 -4.643477,-2.24459 0.01156,-3.69081 1.648994,-5.98051 0.242097,-0.33853 10.968951,-1.0414 10.680481,1.90014 -0.20115,2.0512 1.1791,3.16863 0.48111,5.6441 -1.2777,4.53151 -1.29267,1.71878 -3.29489,2.94504 -2.3872,1.46205 1.69759,4.96365 1.74873,5.64462 0.19775,2.63325 -3.47732,5.84782 -5.59628,6.40239 -1.82268,0.47703 -6.409624,-2.01578 -7.936741,-0.43687 -3.476093,3.594 -14.492018,-3.14668 -14.603243,1.85208 -0.04659,2.09434 -0.04758,3.28281 -0.03721,3.99976 H 68.05027 v 3.00033 H 48.049942 v 1.47072 h 2.000395 v 3.52898 h -2.000395 v 2.99982 H 81.04999 c 1.10801,0 1.99988,-0.89188 1.99988,-1.99988 V 113.04988 C 83.04988,111.94188 82.158,111.05 81.05,111.05 Z m 5.4715003,5.00021 c 0.0095,-5e-5 0.01895,-5e-5 0.02842,0 1.380593,-5e-5 2.499879,1.119 2.500106,2.49959 5.9e-5,1.3808 -1.119311,2.50017 -2.500105,2.50011 -1.3805933,-2.3e-4 -2.4996483,-1.11951 -2.4995893,-2.50011 1.33e-4,-1.36937 1.101888,-2.48379 2.4711663,-2.49959 z m 64.999652,0 c 0.01,-5e-5 0.0193,-5e-5 0.0289,0 1.38059,-5e-5 2.49988,1.119 2.5001,2.49959 6e-5,1.3808 -1.11931,2.50017 -2.5001,2.50011 -1.38079,6e-5 -2.50016,-1.11931 -2.5001,-2.50011 1.3e-4,-1.36937 1.10188,-2.48379 2.47116,-2.49959 z m -64.999652,64.99965 c 0.0095,-5e-5 0.01895,-5e-5 0.02842,0 1.380794,-6e-5 2.500163,1.11932 2.500106,2.5001 5.9e-5,1.3808 -1.119311,2.50017 -2.500106,2.50011 -1.3805923,-2.3e-4 -2.4996473,-1.11951 -2.4995883,-2.50011 -1.48e-4,-1.36956 1.101687,-2.4843 2.4711663,-2.5001 z m 64.999652,0 c 0.01,-5e-5 0.0193,-5e-5 0.0289,0 1.38079,-6e-5 2.50016,1.11932 2.5001,2.5001 6e-5,1.3808 -1.11931,2.50017 -2.5001,2.50011 -1.38079,6e-5 -2.50016,-1.11931 -2.5001,-2.50011 -1.5e-4,-1.36956 1.10168,-2.4843 2.47116,-2.5001 z"
         style="display:inline;fill:none;stroke:#0000ff;stroke-width:0.01;stroke-linecap:round;stroke-miterlimit:4;stroke-dasharray:none;stroke-dashoffset:37.7953"
         id="rect852-6-1-5" />
      <path
         sodipodi:nodetypes="sssscccccccccsssssscsccsssssssssssscccccssssssssccccsssssssssssssssscccccccccssssscccccccccccccccccccccccc"
         d="m 85.55008,111.04979 c -1.108001,0 -1.999878,0.89188 -1.999878,1.99988 v 76.00001 c 0,1.108 0.891877,1.99988 1.999878,1.99988 h 33.00005 v -2.99982 h -1.99988 v -3.52898 h 1.99988 v -1.47072 h -15.00012 v -3.00033 h 15.07919 c 0.0438,-0.84683 0.0647,-2.19915 -0.0791,-3.99976 -0.39785,-4.98414 -12.73125,1.30574 -16.9845,-1.32291 -3.170188,-1.95929 -9.280915,-2.57252 -9.431466,-6.29626 -0.148061,-3.66213 2.812903,-2.12422 2.260633,-6.15865 -0.474395,-3.46554 9.055103,-3.09851 10.914273,-3.5374 3.24416,-0.76584 10.88403,4.67213 13.24105,2.31511 1.17851,-1.17852 1.66216,-5.12268 0,-5.00022 -13.06053,0.96239 -2.06262,-11.24478 -7.06262,-11.24479 -3.33332,0 -13.447242,11.04807 -15.556152,8.46667 -6.381156,-5.22171 -5.381156,-16.22171 -5.381156,-16.22171 0.491811,-2.4163 6.432969,-2.10258 6.319083,-7.85227 -0.06256,-3.15849 6.755575,-9.00501 9.943575,-9.02891 0.45543,-0.003 3.73734,-0.11882 4.97851,-0.83871 4.97899,-2.88784 2.63687,2.30756 7.1089,-0.81549 2.66556,-1.8615 3.4796,-1.99219 8.69408,-0.37904 1.93399,0.5983 1.6225,2.01521 -0.0271,3.14475 -0.87161,0.5968 -3.16574,0.25514 -3.40884,1.54437 -0.60818,3.2253 -3.60818,3.2253 -2.89627,7.26031 1.38482,7.84897 -7.8376,8.92624 -4.30206,12.46177 1.17851,1.17852 5.23822,-0.52203 6.59029,-1.49655 4.27563,-3.08169 2.83174,-15.73017 5.85959,-13.54491 2.14027,1.54468 2.00798,1.1478 2.06241,1.45521 0.4714,2.66231 3.89951,1.87178 4.07786,2.08947 l -7e-5,-14.99979 h 2.99982 v 14.9996 h 5.0002 v -1.99988 c 0,-1.662 1.33782,-2.99981 2.99982,-2.99981 h 9.00049 c 1.662,0 2.99981,1.33781 2.99981,2.99981 v 14.00018 c 0,1.662 -1.33781,2.99982 -2.99981,2.99982 h -9.00049 c -1.662,0 -2.99982,-1.33782 -2.99982,-2.99982 v -8.99996 h -5.0002 v 1.99987 h -3.99975 c -0.49258,1.71243 1.409,3.20799 1.88308,5.39709 0.7888,3.64235 1.06966,7.30144 0.21342,10.92853 -0.40591,1.71949 -5.01762,6.00326 -8.99842,6.34587 -5.31429,0.45737 2.21587,3.57255 2.31149,4.25658 0.13744,0.98318 2.56244,-1.92804 3.59048,-1.92804 5,0 1.71245,-1.13927 4.00337,-1.93012 2.84384,-0.98171 4.9385,7.32705 8.01347,2.7125 0.60258,-0.90429 1.26099,-3.07352 -0.14522,-3.75326 -4.64347,-2.24459 0.0116,-3.69081 1.649,-5.98051 0.2421,-0.33854 10.96895,-1.0414 10.68048,1.90014 -0.20115,2.0512 1.1791,3.16863 0.48111,5.6441 -1.2777,4.53151 -1.29267,1.71878 -3.29489,2.94504 -2.3872,1.46205 1.69759,4.96365 1.74873,5.64462 0.19775,2.63325 -3.47732,5.84782 -5.59628,6.40239 -1.82268,0.47703 -6.40962,-2.01578 -7.93674,-0.43687 -3.47609,3.594 -14.49202,-3.14668 -14.60324,1.85208 -0.0466,2.09434 -0.0476,3.28281 -0.0372,3.99976 h 20.03753 v 3.00033 h -20.00033 v 1.47072 h 2.0004 v 3.52898 h -2.0004 v 2.99982 h 33.00005 c 1.10801,0 1.99988,-0.89188 1.99988,-1.99988 v -76.00001 c 1e-5,-1.108 -0.89187,-1.99988 -1.99987,-1.99988 z m 5.4715,5.00021 c 0.0095,-5e-5 0.01895,-5e-5 0.02842,0 1.380593,-6e-5 2.499879,1.119 2.500106,2.49959 5.9e-5,1.38079 -1.119311,2.50016 -2.500105,2.5001 -1.380593,-2.2e-4 -2.499648,-1.11951 -2.499589,-2.5001 1.33e-4,-1.36937 1.101888,-2.4838 2.471166,-2.49959 z m 64.99965,0 c 0.01,-6e-5 0.0193,-6e-5 0.0289,0 1.38059,-6e-5 2.49988,1.119 2.5001,2.49959 6e-5,1.38079 -1.11931,2.50016 -2.5001,2.5001 -1.38079,6e-5 -2.50016,-1.11931 -2.5001,-2.5001 1.3e-4,-1.36937 1.10188,-2.4838 2.47116,-2.49959 z m -64.99965,64.99965 c 0.0095,-5e-5 0.01895,-5e-5 0.02842,0 1.380794,-6e-5 2.500163,1.11932 2.500106,2.5001 5.9e-5,1.3808 -1.119311,2.50017 -2.500106,2.50011 -1.380592,-2.3e-4 -2.499647,-1.11951 -2.499588,-2.50011 -1.48e-4,-1.36956 1.101687,-2.4843 2.471166,-2.5001 z m 64.99965,0 c 0.01,-5e-5 0.0193,-5e-5 0.0289,0 1.38079,-6e-5 2.50016,1.11932 2.5001,2.5001 6e-5,1.3808 -1.11931,2.50017 -2.5001,2.50011 -1.38079,6e-5 -2.50016,-1.11931 -2.5001,-2.50011 -1.5e-4,-1.36956 1.10168,-2.4843 2.47116,-2.5001 z"
         style="display:inline;fill:none;stroke:#0000ff;stroke-width:0.01;stroke-linecap:round;stroke-miterlimit:4;stroke-dasharray:none;stroke-dashoffset:37.7953"
         id="rect852-6-1-3" />
      <path
         id="rect852-6-11-9"
         style="display:inline;fill:none;stroke:#0000ff;stroke-width:0.01;stroke-linecap:round;stroke-miterlimit:4;stroke-dasharray:none;stroke-dashoffset:37.7953"
         d="m 166.05,111.05 c -1.108,0 -1.99987,0.89188 -1.99987,1.99988 v 76.00001 c 0,1.108 0.89187,1.99988 1.99987,1.99988 h 76.00002 c 1.108,0 1.99988,-0.89188 1.99988,-1.99988 v -76.00001 c 0,-1.108 -0.89188,-1.99988 -1.99988,-1.99988 z m 5.4715,5.00021 c 0.01,-5e-5 0.0189,-5e-5 0.0284,0 1.3806,-5e-5 2.49988,1.119 2.50011,2.49959 6e-5,1.3808 -1.11931,2.50017 -2.5001,2.50011 -1.3806,-2.3e-4 -2.49965,-1.11951 -2.49959,-2.50011 1.3e-4,-1.36936 1.10188,-2.48379 2.47116,-2.49959 z m 44.52856,0 h 2.99981 v 19.99982 h -2.99981 z m 20.4711,0 c 0.01,-5e-5 0.0193,-5e-5 0.0289,0 1.38059,-5e-5 2.49988,1.119 2.5001,2.49959 6e-5,1.3808 -1.11931,2.50017 -2.5001,2.50011 -1.38079,6e-5 -2.50016,-1.11931 -2.5001,-2.50011 1.3e-4,-1.36936 1.10188,-2.48379 2.47116,-2.49959 z m -52.47122,63.99971 h 45.00036 v 3.00033 h -45.00036 z m -12.52844,0.99994 c 0.01,-5e-5 0.0189,-5e-5 0.0284,0 1.3808,-6e-5 2.50017,1.11932 2.50011,2.5001 6e-5,1.3808 -1.11931,2.50017 -2.50011,2.50011 -1.38059,-2.2e-4 -2.49964,-1.1195 -2.49958,-2.50011 -1.5e-4,-1.36956 1.10168,-2.48429 2.47116,-2.5001 z m 64.99966,0 c 0.01,-5e-5 0.0193,-5e-5 0.0289,0 1.38079,-6e-5 2.50016,1.11932 2.5001,2.5001 6e-5,1.3808 -1.11931,2.50017 -2.5001,2.50011 -1.38079,6e-5 -2.50016,-1.11931 -2.5001,-2.50011 -1.5e-4,-1.36956 1.10168,-2.48429 2.47116,-2.5001 z m -39.47098,3.47111 h 14.00018 v 3.52898 h -14.00018 z" />
    </g>
    <g
       style="display:none"
       inkscape:label="Clear_3mm"
       id="layer7"
       inkscape:groupmode="layer">
      <path
         sodipodi:nodetypes="ssssccccccccssssscccccccccccccccccsssssscssccccccccccccccccccccccccccccccccccccccccccccccccccccccccccccccccccccccccccccccccccccccccccccccccccccccccccccccccccccccccccccccccccccccccccccccccccccccccccccccccccccccccccccccccccccccccccccccccccccccccccccccccccccccccccccccccccccccccccccccccccccccccccccccccccccccccccccccccccccccccccccccccccccccccccccccccccccccccccccccccccccccccccccccccccccccccccccccccccccccccccccccccccccccccccccccccccccccccccccccccccccccccccccccccccccccccccccccccccccccccccccccccccccccccccccccccccccccccccccccccccccccccccccccccccccccccccccccccccccccccccccccccccccccccccccccccccccccccccccccccccccccccccccccccccccccccccccccccccccccccccccccccccccccccccccccccccccccccccccccccccccccccccccccccccccccccccccccccccccccccccccccccccccccccccccccccccccccccccccccccccccccccccccccccccccccccccccccccccccc"
         d="m 6.0500001,111.05 c -1.108001,0 -1.999878,0.89188 -1.999878,1.99988 v 76.00001 c 0,1.108 0.891877,1.99988 1.999878,1.99988 H 39.050053 v -2.99982 h -1.999877 v -3.52898 h 14.000178 v 3.52898 h -2.000395 v 2.99982 h 33.000053 c 1.108,0 1.99988,-0.89188 1.99988,-1.99988 v -76.00001 c 0,-1.108 -0.89188,-1.99988 -1.99988,-1.99988 z m 5.4714999,5.00021 c 0.0095,-5e-5 0.01895,-5e-5 0.02842,0 1.380593,-6e-5 2.499879,1.119 2.500106,2.49959 5.9e-5,1.38079 -1.119311,2.50016 -2.500106,2.50011 -1.380592,-2.3e-4 -2.499647,-1.11952 -2.499588,-2.50011 1.33e-4,-1.36937 1.101888,-2.4838 2.471166,-2.49959 z m 44.528552,0 h 2.99981 v 9.99991 h -2.99981 z m 20.4711,0 c 0.01,-5e-5 0.0193,-5e-5 0.0289,0 1.38059,-6e-5 2.49988,1.119 2.50011,2.49959 6e-5,1.3808 -1.11932,2.50016 -2.50011,2.50011 -1.38079,5e-5 -2.50016,-1.11932 -2.5001,-2.50011 1.3e-4,-1.36937 1.10189,-2.4838 2.47116,-2.49959 z m -7.4706,12.99991 h 4.9997 c 1.10799,0 1.9999,0.89188 1.99987,1.99988 l -2.6e-4,10.00024 c -3e-5,1.108 -0.89188,1.99987 -1.99988,1.99987 h -4.99969 c -1.108,0 -2.0004,-0.89187 -2.0004,-1.99987 l 2.7e-4,-10.00024 c 2e-5,-1.108 0.89239,-1.99988 2.00039,-1.99988 z m -42.471056,32.76009 c 0.132376,1.2e-4 0.239657,0.1074 0.239779,0.23978 -1.22e-4,0.13237 -0.107403,0.23965 -0.239779,0.23978 -0.132577,1.6e-4 -0.240173,-0.10721 -0.240295,-0.23978 1.22e-4,-0.13258 0.107718,-0.23995 0.240295,-0.23978 z m 0.999939,0 c 0.132376,1.2e-4 0.239657,0.1074 0.239779,0.23978 -1.22e-4,0.13237 -0.107403,0.23965 -0.239779,0.23978 -0.132577,1.6e-4 -0.240172,-0.10721 -0.240295,-0.23978 1.23e-4,-0.13258 0.107718,-0.23995 0.240295,-0.23978 z m 0.999939,0 c 0.132375,1.2e-4 0.239657,0.1074 0.239779,0.23978 -1.22e-4,0.13237 -0.107404,0.23965 -0.239779,0.23978 -0.132577,1.6e-4 -0.240172,-0.10721 -0.240295,-0.23978 1.23e-4,-0.13258 0.107718,-0.23995 0.240295,-0.23978 z m 0.999939,0 c 0.132375,1.2e-4 0.239657,0.1074 0.239779,0.23978 -1.22e-4,0.13237 -0.107404,0.23965 -0.239779,0.23978 -0.132376,-1.3e-4 -0.239657,-0.10741 -0.239779,-0.23978 1.22e-4,-0.13238 0.107403,-0.23966 0.239779,-0.23978 z m 0.99994,0 c 0.132377,1.2e-4 0.239657,0.1074 0.239779,0.23978 -1.22e-4,0.13237 -0.107402,0.23965 -0.239779,0.23978 -0.132378,-1.3e-4 -0.239658,-0.10741 -0.23978,-0.23978 1.22e-4,-0.13238 0.107402,-0.23966 0.23978,-0.23978 z m 0.99994,0 c 0.132572,-1.7e-4 0.240173,0.1072 0.240295,0.23978 -1.22e-4,0.13257 -0.107723,0.23994 -0.240295,0.23978 -0.132376,-1.3e-4 -0.239659,-0.10741 -0.239781,-0.23978 1.22e-4,-0.13238 0.107405,-0.23966 0.239781,-0.23978 z m 25.000019,0 c 0.13258,-1.7e-4 0.24018,0.1072 0.2403,0.23978 -1.2e-4,0.13257 -0.10772,0.23994 -0.2403,0.23978 -0.13237,-1.3e-4 -0.23965,-0.10741 -0.23977,-0.23978 1.2e-4,-0.13238 0.1074,-0.23966 0.23977,-0.23978 z m 0.99994,0 c 0.13258,-1.7e-4 0.24018,0.1072 0.2403,0.23978 -1.2e-4,0.13257 -0.10772,0.23994 -0.2403,0.23978 -0.13237,-1.3e-4 -0.23965,-0.10741 -0.23978,-0.23978 1.3e-4,-0.13238 0.10741,-0.23966 0.23978,-0.23978 z m 0.99994,0 c 0.13258,-1.7e-4 0.24018,0.1072 0.2403,0.23978 -1.2e-4,0.13257 -0.10772,0.23994 -0.2403,0.23978 -0.13237,-1.3e-4 -0.23966,-0.10741 -0.23978,-0.23978 1.2e-4,-0.13238 0.10741,-0.23966 0.23978,-0.23978 z m 0.99994,0 c 0.13258,-1.7e-4 0.24017,0.1072 0.2403,0.23978 -1.3e-4,0.13257 -0.10772,0.23994 -0.2403,0.23978 -0.13237,-1.3e-4 -0.23966,-0.10741 -0.23978,-0.23978 1.2e-4,-0.13238 0.10741,-0.23966 0.23978,-0.23978 z m 1.00046,0 c 0.13237,1.2e-4 0.23965,0.1074 0.23978,0.23978 -1.3e-4,0.13237 -0.10741,0.23965 -0.23978,0.23978 -0.13258,1.6e-4 -0.24018,-0.10721 -0.2403,-0.23978 1.2e-4,-0.13258 0.10772,-0.23995 0.2403,-0.23978 z m 0.99993,0 c 0.13238,1.2e-4 0.23966,0.1074 0.23978,0.23978 -1.2e-4,0.13237 -0.1074,0.23965 -0.23978,0.23978 -0.13257,1.6e-4 -0.24017,-0.10721 -0.24029,-0.23978 1.2e-4,-0.13258 0.10772,-0.23995 0.24029,-0.23978 z m -36.000382,0.99994 c 0.132577,-1.7e-4 0.240173,0.1072 0.240296,0.23978 1.63e-4,0.13278 -0.107517,0.24046 -0.240296,0.24029 -0.132577,-1.2e-4 -0.239941,-0.10772 -0.239778,-0.24029 1.22e-4,-0.13238 0.107403,-0.23966 0.239778,-0.23978 z m 1.000456,0 c 0.132376,1.2e-4 0.239657,0.1074 0.239779,0.23978 1.62e-4,0.13257 -0.107202,0.24017 -0.239779,0.24029 -0.132779,1.7e-4 -0.240458,-0.10751 -0.240295,-0.24029 1.22e-4,-0.13258 0.107718,-0.23995 0.240295,-0.23978 z m 0.999939,0 c 0.132376,1.2e-4 0.239657,0.1074 0.239779,0.23978 1.61e-4,0.13257 -0.107202,0.24017 -0.239779,0.24029 -0.132779,1.7e-4 -0.240458,-0.10751 -0.240295,-0.24029 1.23e-4,-0.13258 0.107718,-0.23995 0.240295,-0.23978 z m 0.999939,0 c 0.132375,1.2e-4 0.239657,0.1074 0.239779,0.23978 1.63e-4,0.13257 -0.107202,0.24017 -0.239779,0.24029 -0.132779,1.7e-4 -0.240458,-0.10751 -0.240295,-0.24029 1.23e-4,-0.13258 0.107718,-0.23995 0.240295,-0.23978 z m 0.999939,0 c 0.132375,1.2e-4 0.239657,0.1074 0.239779,0.23978 1.63e-4,0.13257 -0.107202,0.24017 -0.239779,0.24029 -0.132577,-1.2e-4 -0.239942,-0.10772 -0.239779,-0.24029 1.22e-4,-0.13238 0.107403,-0.23966 0.239779,-0.23978 z m 0.999941,0 c 0.132376,1.2e-4 0.239656,0.1074 0.239778,0.23978 1.64e-4,0.13257 -0.107201,0.24017 -0.239778,0.24029 -0.13258,-1.2e-4 -0.239944,-0.10772 -0.239781,-0.24029 1.22e-4,-0.13238 0.107402,-0.23966 0.239781,-0.23978 z m 0.999939,0 c 0.132572,-1.7e-4 0.240173,0.1072 0.240295,0.23978 1.64e-4,0.13278 -0.107521,0.24046 -0.240295,0.24029 -0.132577,-1.2e-4 -0.23994,-0.10772 -0.239781,-0.24029 1.22e-4,-0.13238 0.107405,-0.23966 0.239781,-0.23978 z m 0.999937,0 c 0.132578,-1.7e-4 0.240176,0.1072 0.240298,0.23978 1.58e-4,0.13278 -0.107519,0.24046 -0.240298,0.24029 -0.132577,-1.2e-4 -0.239942,-0.10772 -0.239778,-0.24029 1.22e-4,-0.13238 0.107402,-0.23966 0.239778,-0.23978 z m 23.000152,0 c 0.13237,1.2e-4 0.23965,0.1074 0.23977,0.23978 1.7e-4,0.13257 -0.1072,0.24017 -0.23977,0.24029 -0.13258,-1.2e-4 -0.23995,-0.10772 -0.23978,-0.24029 1.2e-4,-0.13238 0.1074,-0.23966 0.23978,-0.23978 z m 0.99993,0 c 0.13258,-1.7e-4 0.24018,0.1072 0.2403,0.23978 1.6e-4,0.13278 -0.10752,0.24046 -0.2403,0.24029 -0.13258,-1.2e-4 -0.23994,-0.10772 -0.23977,-0.24029 1.2e-4,-0.13238 0.1074,-0.23966 0.23977,-0.23978 z m 0.99994,0 c 0.13258,-1.7e-4 0.24018,0.1072 0.2403,0.23978 1.6e-4,0.13278 -0.10752,0.24046 -0.2403,0.24029 -0.13258,-1.2e-4 -0.23994,-0.10772 -0.23978,-0.24029 1.3e-4,-0.13238 0.10741,-0.23966 0.23978,-0.23978 z m 0.99994,0 c 0.13258,-1.7e-4 0.24018,0.1072 0.2403,0.23978 1.6e-4,0.13278 -0.10752,0.24046 -0.2403,0.24029 -0.13258,-1.2e-4 -0.23994,-0.10772 -0.23978,-0.24029 1.2e-4,-0.13238 0.10741,-0.23966 0.23978,-0.23978 z m 0.99994,0 c 0.13258,-1.7e-4 0.24017,0.1072 0.2403,0.23978 1.6e-4,0.13278 -0.10752,0.24046 -0.2403,0.24029 -0.13258,-1.2e-4 -0.23994,-0.10772 -0.23978,-0.24029 1.2e-4,-0.13238 0.10741,-0.23966 0.23978,-0.23978 z m 1.00046,0 c 0.13237,1.2e-4 0.23965,0.1074 0.23978,0.23978 1.6e-4,0.13257 -0.10721,0.24017 -0.23978,0.24029 -0.13278,1.7e-4 -0.24046,-0.10751 -0.2403,-0.24029 1.2e-4,-0.13258 0.10772,-0.23995 0.2403,-0.23978 z m 0.99993,0 c 0.13238,1.2e-4 0.23966,0.1074 0.23978,0.23978 1.7e-4,0.13257 -0.1072,0.24017 -0.23978,0.24029 -0.13277,1.7e-4 -0.24045,-0.10751 -0.24029,-0.24029 1.2e-4,-0.13258 0.10772,-0.23995 0.24029,-0.23978 z m 0.99994,0 c 0.13238,1.2e-4 0.23966,0.1074 0.23978,0.23978 1.7e-4,0.13257 -0.1072,0.24017 -0.23978,0.24029 -0.13277,1.7e-4 -0.24045,-0.10751 -0.24029,-0.24029 1.2e-4,-0.13258 0.10772,-0.23995 0.24029,-0.23978 z m -38.000261,0.99994 c 0.132577,-1.7e-4 0.240173,0.1072 0.240296,0.23977 1.64e-4,0.13279 -0.107516,0.24047 -0.240296,0.2403 -0.132577,-1.2e-4 -0.239943,-0.10772 -0.239778,-0.2403 1.22e-4,-0.13237 0.107403,-0.23965 0.239778,-0.23977 z m 0.999939,0 c 0.132577,-1.7e-4 0.240173,0.1072 0.240296,0.23977 1.64e-4,0.13279 -0.107516,0.24047 -0.240296,0.2403 -0.132578,-1.2e-4 -0.239943,-0.10772 -0.239778,-0.2403 1.22e-4,-0.13237 0.107403,-0.23965 0.239778,-0.23977 z m 1.000456,0 c 0.132376,1.2e-4 0.239657,0.1074 0.239779,0.23977 1.64e-4,0.13258 -0.107201,0.24018 -0.239779,0.2403 -0.13278,1.7e-4 -0.24046,-0.10751 -0.240295,-0.2403 1.22e-4,-0.13257 0.107718,-0.23994 0.240295,-0.23977 z m 0.999939,0 c 0.132376,1.2e-4 0.239657,0.1074 0.239779,0.23977 1.63e-4,0.13258 -0.107201,0.24018 -0.239779,0.2403 -0.13278,1.7e-4 -0.240459,-0.10751 -0.240295,-0.2403 1.23e-4,-0.13257 0.107718,-0.23994 0.240295,-0.23977 z m 0.999939,0 c 0.132375,1.2e-4 0.239657,0.1074 0.239779,0.23977 1.65e-4,0.13258 -0.107201,0.24018 -0.239779,0.2403 -0.13278,1.7e-4 -0.24046,-0.10751 -0.240295,-0.2403 1.23e-4,-0.13257 0.107718,-0.23994 0.240295,-0.23977 z m 0.999939,0 c 0.132375,1.2e-4 0.239657,0.1074 0.239779,0.23977 1.65e-4,0.13258 -0.107201,0.24018 -0.239779,0.2403 -0.132578,-1.2e-4 -0.239943,-0.10772 -0.239779,-0.2403 1.22e-4,-0.13237 0.107403,-0.23965 0.239779,-0.23977 z m 0.999941,0 c 0.132376,1.2e-4 0.239656,0.1074 0.239778,0.23977 1.64e-4,0.13258 -0.107201,0.24018 -0.239778,0.2403 -0.132581,-1.2e-4 -0.239945,-0.10772 -0.239781,-0.2403 1.22e-4,-0.13237 0.107402,-0.23965 0.239781,-0.23977 z m 0.999939,0 c 0.132572,-1.7e-4 0.240173,0.1072 0.240295,0.23977 1.64e-4,0.13279 -0.107521,0.24047 -0.240295,0.2403 -0.13258,-1.2e-4 -0.23994,-0.10772 -0.239781,-0.2403 1.22e-4,-0.13237 0.107405,-0.23965 0.239781,-0.23977 z m 0.999937,0 c 0.132578,-1.7e-4 0.240176,0.1072 0.240298,0.23977 1.58e-4,0.13279 -0.107516,0.24047 -0.240298,0.2403 -0.132577,-1.2e-4 -0.239942,-0.10772 -0.239778,-0.2403 1.22e-4,-0.13237 0.107402,-0.23965 0.239778,-0.23977 z m 0.99994,0 c 0.132578,-1.7e-4 0.240173,0.1072 0.240295,0.23977 1.67e-4,0.13279 -0.107516,0.24047 -0.240295,0.2403 -0.132577,-1.2e-4 -0.239942,-0.10772 -0.239778,-0.2403 1.21e-4,-0.13237 0.107402,-0.23965 0.239778,-0.23977 z m 21.000272,0 c 0.13237,1.2e-4 0.23965,0.1074 0.23977,0.23977 1.7e-4,0.13258 -0.1072,0.24018 -0.23977,0.2403 -0.13278,1.7e-4 -0.24046,-0.10751 -0.2403,-0.2403 1.2e-4,-0.13257 0.10772,-0.23994 0.2403,-0.23977 z m 0.99994,0 c 0.13237,1.2e-4 0.23965,0.1074 0.23977,0.23977 1.7e-4,0.13258 -0.1072,0.24018 -0.23977,0.2403 -0.13258,-1.2e-4 -0.23995,-0.10772 -0.23978,-0.2403 1.2e-4,-0.13237 0.1074,-0.23965 0.23978,-0.23977 z m 0.99993,0 c 0.13258,-1.7e-4 0.24018,0.1072 0.2403,0.23977 1.6e-4,0.13279 -0.10752,0.24047 -0.2403,0.2403 -0.13258,-1.2e-4 -0.23994,-0.10772 -0.23977,-0.2403 1.2e-4,-0.13237 0.1074,-0.23965 0.23977,-0.23977 z m 0.99994,0 c 0.13258,-1.7e-4 0.24018,0.1072 0.2403,0.23977 1.6e-4,0.13279 -0.10752,0.24047 -0.2403,0.2403 -0.13258,-1.2e-4 -0.23994,-0.10772 -0.23978,-0.2403 1.3e-4,-0.13237 0.10741,-0.23965 0.23978,-0.23977 z m 0.99994,0 c 0.13258,-1.7e-4 0.24018,0.1072 0.2403,0.23977 1.6e-4,0.13279 -0.10752,0.24047 -0.2403,0.2403 -0.13258,-1.2e-4 -0.23994,-0.10772 -0.23978,-0.2403 1.2e-4,-0.13237 0.10741,-0.23965 0.23978,-0.23977 z m 0.99994,0 c 0.13258,-1.7e-4 0.24017,0.1072 0.2403,0.23977 1.6e-4,0.13279 -0.10752,0.24047 -0.2403,0.2403 -0.13258,-1.2e-4 -0.23994,-0.10772 -0.23978,-0.2403 1.2e-4,-0.13237 0.10741,-0.23965 0.23978,-0.23977 z m 1.00046,0 c 0.13237,1.2e-4 0.23965,0.1074 0.23978,0.23977 1.6e-4,0.13258 -0.10721,0.24018 -0.23978,0.2403 -0.13278,1.7e-4 -0.24046,-0.10751 -0.2403,-0.2403 1.2e-4,-0.13257 0.10772,-0.23994 0.2403,-0.23977 z m 0.99993,0 c 0.13238,1.2e-4 0.23966,0.1074 0.23978,0.23977 1.7e-4,0.13258 -0.1072,0.24018 -0.23978,0.2403 -0.13277,1.7e-4 -0.24045,-0.10751 -0.24029,-0.2403 1.2e-4,-0.13257 0.10772,-0.23994 0.24029,-0.23977 z m 0.99994,0 c 0.13238,1.2e-4 0.23966,0.1074 0.23978,0.23977 1.7e-4,0.13258 -0.1072,0.24018 -0.23978,0.2403 -0.13277,1.7e-4 -0.24045,-0.10751 -0.24029,-0.2403 1.2e-4,-0.13257 0.10772,-0.23994 0.24029,-0.23977 z m 0.99994,0 c 0.13238,1.2e-4 0.23966,0.1074 0.23978,0.23977 1.7e-4,0.13258 -0.1072,0.24018 -0.23978,0.2403 -0.13257,-1.2e-4 -0.23994,-0.10772 -0.23977,-0.2403 1.2e-4,-0.13237 0.1074,-0.23965 0.23977,-0.23977 z m -38.000262,0.99994 c 0.132577,-1.7e-4 0.240173,0.1072 0.240296,0.23977 1.63e-4,0.13278 -0.107517,0.24046 -0.240296,0.2403 -0.132577,-1.2e-4 -0.239941,-0.10772 -0.239778,-0.2403 1.22e-4,-0.13237 0.107403,-0.23965 0.239778,-0.23977 z m 1.000456,0 c 0.132376,1.2e-4 0.239657,0.1074 0.239779,0.23977 1.62e-4,0.13258 -0.107202,0.24018 -0.239779,0.2403 -0.132779,1.6e-4 -0.240458,-0.10752 -0.240295,-0.2403 1.22e-4,-0.13257 0.107718,-0.23994 0.240295,-0.23977 z m 0.999939,0 c 0.132376,1.2e-4 0.239657,0.1074 0.239779,0.23977 1.61e-4,0.13258 -0.107202,0.24018 -0.239779,0.2403 -0.132779,1.6e-4 -0.240458,-0.10752 -0.240295,-0.2403 1.23e-4,-0.13257 0.107718,-0.23994 0.240295,-0.23977 z m 0.999939,0 c 0.132375,1.2e-4 0.239657,0.1074 0.239779,0.23977 1.63e-4,0.13258 -0.107202,0.24018 -0.239779,0.2403 -0.132779,1.6e-4 -0.240458,-0.10752 -0.240295,-0.2403 1.23e-4,-0.13257 0.107718,-0.23994 0.240295,-0.23977 z m 0.999939,0 c 0.132375,1.2e-4 0.239657,0.1074 0.239779,0.23977 1.63e-4,0.13258 -0.107202,0.24018 -0.239779,0.2403 -0.132577,-1.2e-4 -0.239942,-0.10772 -0.239779,-0.2403 1.22e-4,-0.13237 0.107403,-0.23965 0.239779,-0.23977 z m 0.999941,0 c 0.132376,1.2e-4 0.239656,0.1074 0.239778,0.23977 1.64e-4,0.13258 -0.107201,0.24018 -0.239778,0.2403 -0.13258,-1.2e-4 -0.239944,-0.10772 -0.239781,-0.2403 1.22e-4,-0.13237 0.107402,-0.23965 0.239781,-0.23977 z m 0.999939,0 c 0.132572,-1.7e-4 0.240173,0.1072 0.240295,0.23977 1.64e-4,0.13278 -0.107521,0.24046 -0.240295,0.2403 -0.132577,-1.2e-4 -0.23994,-0.10772 -0.239781,-0.2403 1.22e-4,-0.13237 0.107405,-0.23965 0.239781,-0.23977 z m 0.999937,0 c 0.132578,-1.7e-4 0.240176,0.1072 0.240298,0.23977 1.58e-4,0.13278 -0.107519,0.24046 -0.240298,0.2403 -0.132577,-1.2e-4 -0.239942,-0.10772 -0.239778,-0.2403 1.22e-4,-0.13237 0.107402,-0.23965 0.239778,-0.23977 z m 23.000152,0 c 0.13237,1.2e-4 0.23965,0.1074 0.23977,0.23977 1.7e-4,0.13258 -0.1072,0.24018 -0.23977,0.2403 -0.13258,-1.2e-4 -0.23995,-0.10772 -0.23978,-0.2403 1.2e-4,-0.13237 0.1074,-0.23965 0.23978,-0.23977 z m 0.99993,0 c 0.13258,-1.7e-4 0.24018,0.1072 0.2403,0.23977 1.6e-4,0.13278 -0.10752,0.24046 -0.2403,0.2403 -0.13258,-1.2e-4 -0.23994,-0.10772 -0.23977,-0.2403 1.2e-4,-0.13237 0.1074,-0.23965 0.23977,-0.23977 z m 0.99994,0 c 0.13258,-1.7e-4 0.24018,0.1072 0.2403,0.23977 1.6e-4,0.13278 -0.10752,0.24046 -0.2403,0.2403 -0.13258,-1.2e-4 -0.23994,-0.10772 -0.23978,-0.2403 1.3e-4,-0.13237 0.10741,-0.23965 0.23978,-0.23977 z m 0.99994,0 c 0.13258,-1.7e-4 0.24018,0.1072 0.2403,0.23977 1.6e-4,0.13278 -0.10752,0.24046 -0.2403,0.2403 -0.13258,-1.2e-4 -0.23994,-0.10772 -0.23978,-0.2403 1.2e-4,-0.13237 0.10741,-0.23965 0.23978,-0.23977 z m 0.99994,0 c 0.13258,-1.7e-4 0.24017,0.1072 0.2403,0.23977 1.6e-4,0.13278 -0.10752,0.24046 -0.2403,0.2403 -0.13258,-1.2e-4 -0.23994,-0.10772 -0.23978,-0.2403 1.2e-4,-0.13237 0.10741,-0.23965 0.23978,-0.23977 z m 1.00046,0 c 0.13237,1.2e-4 0.23965,0.1074 0.23978,0.23977 1.6e-4,0.13258 -0.10721,0.24018 -0.23978,0.2403 -0.13278,1.6e-4 -0.24046,-0.10752 -0.2403,-0.2403 1.2e-4,-0.13257 0.10772,-0.23994 0.2403,-0.23977 z m 0.99993,0 c 0.13238,1.2e-4 0.23966,0.1074 0.23978,0.23977 1.7e-4,0.13258 -0.1072,0.24018 -0.23978,0.2403 -0.13277,1.6e-4 -0.24045,-0.10752 -0.24029,-0.2403 1.2e-4,-0.13257 0.10772,-0.23994 0.24029,-0.23977 z m 0.99994,0 c 0.13238,1.2e-4 0.23966,0.1074 0.23978,0.23977 1.7e-4,0.13258 -0.1072,0.24018 -0.23978,0.2403 -0.13277,1.6e-4 -0.24045,-0.10752 -0.24029,-0.2403 1.2e-4,-0.13257 0.10772,-0.23994 0.24029,-0.23977 z m -38.000261,0.99994 c 0.132779,-1.7e-4 0.240459,0.10751 0.240296,0.24029 -1.23e-4,0.13258 -0.107719,0.23994 -0.240296,0.23978 -0.132375,-1.2e-4 -0.239656,-0.1074 -0.239778,-0.23978 -1.63e-4,-0.13258 0.107201,-0.24017 0.239778,-0.24029 z m 0.999939,0 c 0.132779,-1.7e-4 0.240459,0.10751 0.240296,0.24029 -1.23e-4,0.13258 -0.107719,0.23994 -0.240296,0.23978 -0.132375,-1.2e-4 -0.239656,-0.1074 -0.239778,-0.23978 -1.63e-4,-0.13258 0.107201,-0.24017 0.239778,-0.24029 z m 1.000456,0 c 0.132577,1.2e-4 0.239941,0.10771 0.239779,0.24029 -1.22e-4,0.13238 -0.107403,0.23966 -0.239779,0.23978 -0.132577,1.6e-4 -0.240173,-0.1072 -0.240295,-0.23978 -1.63e-4,-0.13278 0.107516,-0.24046 0.240295,-0.24029 z m 0.999939,0 c 0.132577,1.2e-4 0.23994,0.10771 0.239779,0.24029 -1.22e-4,0.13238 -0.107403,0.23966 -0.239779,0.23978 -0.132577,1.6e-4 -0.240172,-0.1072 -0.240295,-0.23978 -1.63e-4,-0.13278 0.107516,-0.24046 0.240295,-0.24029 z m 0.999939,0 c 0.132577,1.2e-4 0.239942,0.10771 0.239779,0.24029 -1.22e-4,0.13238 -0.107404,0.23966 -0.239779,0.23978 -0.132577,1.6e-4 -0.240172,-0.1072 -0.240295,-0.23978 -1.63e-4,-0.13278 0.107516,-0.24046 0.240295,-0.24029 z m 0.999939,0 c 0.132577,1.2e-4 0.239942,0.10771 0.239779,0.24029 -1.22e-4,0.13238 -0.107404,0.23966 -0.239779,0.23978 -0.132376,-1.2e-4 -0.239657,-0.1074 -0.239779,-0.23978 -1.63e-4,-0.13258 0.107202,-0.24017 0.239779,-0.24029 z m 0.999941,0 c 0.132577,1.2e-4 0.239942,0.10771 0.239778,0.24029 -1.22e-4,0.13238 -0.107402,0.23966 -0.239778,0.23978 -0.132379,-1.2e-4 -0.239659,-0.1074 -0.239781,-0.23978 -1.63e-4,-0.13258 0.107201,-0.24017 0.239781,-0.24029 z m 0.999939,0 c 0.132774,-1.7e-4 0.240459,0.10751 0.240295,0.24029 -1.22e-4,0.13258 -0.107723,0.23994 -0.240295,0.23978 -0.132376,-1.2e-4 -0.239659,-0.1074 -0.239781,-0.23978 -1.59e-4,-0.13258 0.107204,-0.24017 0.239781,-0.24029 z m 0.999937,0 c 0.132779,-1.7e-4 0.240456,0.10751 0.240298,0.24029 -1.22e-4,0.13258 -0.10772,0.23994 -0.240298,0.23978 -0.132376,-1.2e-4 -0.239656,-0.1074 -0.239778,-0.23978 -1.64e-4,-0.13258 0.107201,-0.24017 0.239778,-0.24029 z m 0.99994,0 c 0.132779,-1.7e-4 0.240462,0.10751 0.240295,0.24029 -1.22e-4,0.13258 -0.107717,0.23994 -0.240295,0.23978 -0.132376,-1.2e-4 -0.239657,-0.1074 -0.239778,-0.23978 -1.64e-4,-0.13258 0.107201,-0.24017 0.239778,-0.24029 z m 21.000272,0 c 0.13257,1.2e-4 0.23994,0.10771 0.23977,0.24029 -1.2e-4,0.13238 -0.1074,0.23966 -0.23977,0.23978 -0.13258,1.6e-4 -0.24018,-0.1072 -0.2403,-0.23978 -1.6e-4,-0.13278 0.10752,-0.24046 0.2403,-0.24029 z m 0.99994,0 c 0.13257,1.2e-4 0.23994,0.10771 0.23977,0.24029 -1.2e-4,0.13238 -0.1074,0.23966 -0.23977,0.23978 -0.13238,-1.2e-4 -0.23966,-0.1074 -0.23978,-0.23978 -1.7e-4,-0.13258 0.1072,-0.24017 0.23978,-0.24029 z m 0.99993,0 c 0.13278,-1.7e-4 0.24046,0.10751 0.2403,0.24029 -1.2e-4,0.13258 -0.10772,0.23994 -0.2403,0.23978 -0.13237,-1.2e-4 -0.23965,-0.1074 -0.23977,-0.23978 -1.7e-4,-0.13258 0.10719,-0.24017 0.23977,-0.24029 z m 0.99994,0 c 0.13278,-1.7e-4 0.24046,0.10751 0.2403,0.24029 -1.2e-4,0.13258 -0.10772,0.23994 -0.2403,0.23978 -0.13237,-1.2e-4 -0.23965,-0.1074 -0.23978,-0.23978 -1.6e-4,-0.13258 0.1072,-0.24017 0.23978,-0.24029 z m 0.99994,0 c 0.13278,-1.7e-4 0.24046,0.10751 0.2403,0.24029 -1.2e-4,0.13258 -0.10772,0.23994 -0.2403,0.23978 -0.13237,-1.2e-4 -0.23966,-0.1074 -0.23978,-0.23978 -1.6e-4,-0.13258 0.1072,-0.24017 0.23978,-0.24029 z m 0.99994,0 c 0.13278,-1.7e-4 0.24046,0.10751 0.2403,0.24029 -1.3e-4,0.13258 -0.10772,0.23994 -0.2403,0.23978 -0.13237,-1.2e-4 -0.23966,-0.1074 -0.23978,-0.23978 -1.6e-4,-0.13258 0.1072,-0.24017 0.23978,-0.24029 z m 1.00046,0 c 0.13257,1.2e-4 0.23994,0.10771 0.23978,0.24029 -1.3e-4,0.13238 -0.10741,0.23966 -0.23978,0.23978 -0.13258,1.6e-4 -0.24018,-0.1072 -0.2403,-0.23978 -1.6e-4,-0.13278 0.10752,-0.24046 0.2403,-0.24029 z m 0.99993,0 c 0.13258,1.2e-4 0.23995,0.10771 0.23978,0.24029 -1.2e-4,0.13238 -0.1074,0.23966 -0.23978,0.23978 -0.13257,1.6e-4 -0.24017,-0.1072 -0.24029,-0.23978 -1.6e-4,-0.13278 0.10752,-0.24046 0.24029,-0.24029 z m 0.99994,0 c 0.13258,1.2e-4 0.23995,0.10771 0.23978,0.24029 -1.2e-4,0.13238 -0.1074,0.23966 -0.23978,0.23978 -0.13257,1.6e-4 -0.24017,-0.1072 -0.24029,-0.23978 -1.6e-4,-0.13278 0.10752,-0.24046 0.24029,-0.24029 z m 0.99994,0 c 0.13258,1.2e-4 0.23995,0.10771 0.23978,0.24029 -1.2e-4,0.13238 -0.1074,0.23966 -0.23978,0.23978 -0.13237,-1.2e-4 -0.23965,-0.1074 -0.23977,-0.23978 -1.7e-4,-0.13258 0.1072,-0.24017 0.23977,-0.24029 z M 25.57904,166.8099 c 0.13278,-1.6e-4 0.24046,0.10752 0.240296,0.2403 -1.23e-4,0.13258 -0.107719,0.23994 -0.240296,0.23978 -0.132375,-1.2e-4 -0.239656,-0.1074 -0.239778,-0.23978 -1.65e-4,-0.13258 0.1072,-0.24018 0.239778,-0.2403 z m 1.000456,0 c 0.132578,1.2e-4 0.239943,0.10772 0.239779,0.2403 -1.22e-4,0.13238 -0.107403,0.23966 -0.239779,0.23978 -0.132577,1.6e-4 -0.240173,-0.1072 -0.240295,-0.23978 -1.65e-4,-0.13278 0.107515,-0.24046 0.240295,-0.2403 z m 0.999939,0 c 0.132578,1.2e-4 0.239942,0.10772 0.239779,0.2403 -1.22e-4,0.13238 -0.107403,0.23966 -0.239779,0.23978 -0.132577,1.6e-4 -0.240172,-0.1072 -0.240295,-0.23978 -1.64e-4,-0.13278 0.107515,-0.24046 0.240295,-0.2403 z m 0.999939,0 c 0.132578,1.2e-4 0.239944,0.10772 0.239779,0.2403 -1.22e-4,0.13238 -0.107404,0.23966 -0.239779,0.23978 -0.132577,1.6e-4 -0.240172,-0.1072 -0.240295,-0.23978 -1.65e-4,-0.13278 0.107515,-0.24046 0.240295,-0.2403 z m 0.999939,0 c 0.132578,1.2e-4 0.239944,0.10772 0.239779,0.2403 -1.22e-4,0.13238 -0.107404,0.23966 -0.239779,0.23978 -0.132376,-1.2e-4 -0.239657,-0.1074 -0.239779,-0.23978 -1.64e-4,-0.13258 0.107201,-0.24018 0.239779,-0.2403 z m 0.999941,0 c 0.132577,1.2e-4 0.239942,0.10772 0.239778,0.2403 -1.22e-4,0.13238 -0.107402,0.23966 -0.239778,0.23978 -0.132379,-1.2e-4 -0.239659,-0.1074 -0.239781,-0.23978 -1.64e-4,-0.13258 0.1072,-0.24018 0.239781,-0.2403 z m 0.999939,0 c 0.132774,-1.6e-4 0.240459,0.10752 0.240295,0.2403 -1.22e-4,0.13258 -0.107723,0.23994 -0.240295,0.23978 -0.132376,-1.2e-4 -0.239659,-0.1074 -0.239781,-0.23978 -1.59e-4,-0.13258 0.107201,-0.24018 0.239781,-0.2403 z m 0.999937,0 c 0.132782,-1.6e-4 0.240456,0.10752 0.240298,0.2403 -1.22e-4,0.13258 -0.10772,0.23994 -0.240298,0.23978 -0.132376,-1.2e-4 -0.239656,-0.1074 -0.239778,-0.23978 -1.64e-4,-0.13258 0.107201,-0.24018 0.239778,-0.2403 z m 23.000152,0 c 0.13257,1.2e-4 0.23994,0.10772 0.23977,0.2403 -1.2e-4,0.13238 -0.1074,0.23966 -0.23977,0.23978 -0.13238,-1.2e-4 -0.23966,-0.1074 -0.23978,-0.23978 -1.7e-4,-0.13258 0.1072,-0.24018 0.23978,-0.2403 z m 0.99993,0 c 0.13278,-1.6e-4 0.24046,0.10752 0.2403,0.2403 -1.2e-4,0.13258 -0.10772,0.23994 -0.2403,0.23978 -0.13237,-1.2e-4 -0.23965,-0.1074 -0.23977,-0.23978 -1.7e-4,-0.13258 0.10719,-0.24018 0.23977,-0.2403 z m 0.99994,0 c 0.13278,-1.6e-4 0.24046,0.10752 0.2403,0.2403 -1.2e-4,0.13258 -0.10772,0.23994 -0.2403,0.23978 -0.13237,-1.2e-4 -0.23965,-0.1074 -0.23978,-0.23978 -1.6e-4,-0.13258 0.1072,-0.24018 0.23978,-0.2403 z m 0.99994,0 c 0.13278,-1.6e-4 0.24046,0.10752 0.2403,0.2403 -1.2e-4,0.13258 -0.10772,0.23994 -0.2403,0.23978 -0.13237,-1.2e-4 -0.23966,-0.1074 -0.23978,-0.23978 -1.6e-4,-0.13258 0.1072,-0.24018 0.23978,-0.2403 z m 0.99994,0 c 0.13278,-1.6e-4 0.24046,0.10752 0.2403,0.2403 -1.3e-4,0.13258 -0.10772,0.23994 -0.2403,0.23978 -0.13237,-1.2e-4 -0.23966,-0.1074 -0.23978,-0.23978 -1.6e-4,-0.13258 0.1072,-0.24018 0.23978,-0.2403 z m 1.00046,0 c 0.13257,1.2e-4 0.23994,0.10772 0.23978,0.2403 -1.3e-4,0.13238 -0.10741,0.23966 -0.23978,0.23978 -0.13258,1.6e-4 -0.24018,-0.1072 -0.2403,-0.23978 -1.6e-4,-0.13278 0.10752,-0.24046 0.2403,-0.2403 z m 0.99993,0 c 0.13258,1.2e-4 0.23995,0.10772 0.23978,0.2403 -1.2e-4,0.13238 -0.1074,0.23966 -0.23978,0.23978 -0.13257,1.6e-4 -0.24017,-0.1072 -0.24029,-0.23978 -1.6e-4,-0.13278 0.10752,-0.24046 0.24029,-0.2403 z m 0.99994,0 c 0.13258,1.2e-4 0.23995,0.10772 0.23978,0.2403 -1.2e-4,0.13238 -0.1074,0.23966 -0.23978,0.23978 -0.13257,1.6e-4 -0.24017,-0.1072 -0.24029,-0.23978 -1.6e-4,-0.13278 0.10752,-0.24046 0.24029,-0.2403 z m -38.000261,0.99994 c 0.132779,-1.6e-4 0.240459,0.10752 0.240296,0.2403 -1.23e-4,0.13257 -0.107719,0.23994 -0.240296,0.23978 -0.132375,-1.2e-4 -0.239656,-0.10741 -0.239778,-0.23978 -1.63e-4,-0.13258 0.107201,-0.24018 0.239778,-0.2403 z m 0.999939,0 c 0.132779,-1.6e-4 0.240459,0.10752 0.240296,0.2403 -1.23e-4,0.13257 -0.107719,0.23994 -0.240296,0.23978 -0.132375,-1.2e-4 -0.239656,-0.10741 -0.239778,-0.23978 -1.63e-4,-0.13258 0.107201,-0.24018 0.239778,-0.2403 z m 1.000456,0 c 0.132577,1.2e-4 0.239941,0.10772 0.239779,0.2403 -1.22e-4,0.13237 -0.107403,0.23966 -0.239779,0.23978 -0.132577,1.6e-4 -0.240173,-0.10721 -0.240295,-0.23978 -1.63e-4,-0.13278 0.107516,-0.24046 0.240295,-0.2403 z m 0.999939,0 c 0.132577,1.2e-4 0.23994,0.10772 0.239779,0.2403 -1.22e-4,0.13237 -0.107403,0.23966 -0.239779,0.23978 -0.132577,1.6e-4 -0.240172,-0.10721 -0.240295,-0.23978 -1.63e-4,-0.13278 0.107516,-0.24046 0.240295,-0.2403 z m 0.999939,0 c 0.132577,1.2e-4 0.239942,0.10772 0.239779,0.2403 -1.22e-4,0.13237 -0.107404,0.23966 -0.239779,0.23978 -0.132577,1.6e-4 -0.240172,-0.10721 -0.240295,-0.23978 -1.63e-4,-0.13278 0.107516,-0.24046 0.240295,-0.2403 z m 0.999939,0 c 0.132577,1.2e-4 0.239942,0.10772 0.239779,0.2403 -1.22e-4,0.13237 -0.107404,0.23966 -0.239779,0.23978 -0.132376,-1.2e-4 -0.239657,-0.10741 -0.239779,-0.23978 -1.63e-4,-0.13258 0.107202,-0.24018 0.239779,-0.2403 z m 0.999941,0 c 0.132577,1.2e-4 0.239942,0.10772 0.239778,0.2403 -1.22e-4,0.13237 -0.107402,0.23966 -0.239778,0.23978 -0.132379,-1.2e-4 -0.239659,-0.10741 -0.239781,-0.23978 -1.63e-4,-0.13258 0.107201,-0.24018 0.239781,-0.2403 z m 0.999939,0 c 0.132774,-1.6e-4 0.240459,0.10752 0.240295,0.2403 -1.22e-4,0.13257 -0.107723,0.23994 -0.240295,0.23978 -0.132376,-1.2e-4 -0.239659,-0.10741 -0.239781,-0.23978 -1.59e-4,-0.13258 0.107204,-0.24018 0.239781,-0.2403 z m 0.999937,0 c 0.132779,-1.6e-4 0.240456,0.10752 0.240298,0.2403 -1.22e-4,0.13257 -0.10772,0.23994 -0.240298,0.23978 -0.132376,-1.2e-4 -0.239656,-0.10741 -0.239778,-0.23978 -1.64e-4,-0.13258 0.107201,-0.24018 0.239778,-0.2403 z m 0.99994,0 c 0.132779,-1.6e-4 0.240462,0.10752 0.240295,0.2403 -1.22e-4,0.13257 -0.107717,0.23994 -0.240295,0.23978 -0.132376,-1.2e-4 -0.239657,-0.10741 -0.239778,-0.23978 -1.64e-4,-0.13258 0.107201,-0.24018 0.239778,-0.2403 z m 21.000272,0 c 0.13257,1.2e-4 0.23994,0.10772 0.23977,0.2403 -1.2e-4,0.13237 -0.1074,0.23966 -0.23977,0.23978 -0.13258,1.6e-4 -0.24018,-0.10721 -0.2403,-0.23978 -1.6e-4,-0.13278 0.10752,-0.24046 0.2403,-0.2403 z m 0.99994,0 c 0.13257,1.2e-4 0.23994,0.10772 0.23977,0.2403 -1.2e-4,0.13237 -0.1074,0.23966 -0.23977,0.23978 -0.13238,-1.2e-4 -0.23966,-0.10741 -0.23978,-0.23978 -1.7e-4,-0.13258 0.1072,-0.24018 0.23978,-0.2403 z m 0.99993,0 c 0.13278,-1.6e-4 0.24046,0.10752 0.2403,0.2403 -1.2e-4,0.13257 -0.10772,0.23994 -0.2403,0.23978 -0.13237,-1.2e-4 -0.23965,-0.10741 -0.23977,-0.23978 -1.7e-4,-0.13258 0.10719,-0.24018 0.23977,-0.2403 z m 0.99994,0 c 0.13278,-1.6e-4 0.24046,0.10752 0.2403,0.2403 -1.2e-4,0.13257 -0.10772,0.23994 -0.2403,0.23978 -0.13237,-1.2e-4 -0.23965,-0.10741 -0.23978,-0.23978 -1.6e-4,-0.13258 0.1072,-0.24018 0.23978,-0.2403 z m 0.99994,0 c 0.13278,-1.6e-4 0.24046,0.10752 0.2403,0.2403 -1.2e-4,0.13257 -0.10772,0.23994 -0.2403,0.23978 -0.13237,-1.2e-4 -0.23966,-0.10741 -0.23978,-0.23978 -1.6e-4,-0.13258 0.1072,-0.24018 0.23978,-0.2403 z m 0.99994,0 c 0.13278,-1.6e-4 0.24046,0.10752 0.2403,0.2403 -1.3e-4,0.13257 -0.10772,0.23994 -0.2403,0.23978 -0.13237,-1.2e-4 -0.23966,-0.10741 -0.23978,-0.23978 -1.6e-4,-0.13258 0.1072,-0.24018 0.23978,-0.2403 z m 1.00046,0 c 0.13257,1.2e-4 0.23994,0.10772 0.23978,0.2403 -1.3e-4,0.13237 -0.10741,0.23966 -0.23978,0.23978 -0.13258,1.6e-4 -0.24018,-0.10721 -0.2403,-0.23978 -1.6e-4,-0.13278 0.10752,-0.24046 0.2403,-0.2403 z m 0.99993,0 c 0.13258,1.2e-4 0.23995,0.10772 0.23978,0.2403 -1.2e-4,0.13237 -0.1074,0.23966 -0.23978,0.23978 -0.13257,1.6e-4 -0.24017,-0.10721 -0.24029,-0.23978 -1.6e-4,-0.13278 0.10752,-0.24046 0.24029,-0.2403 z m 0.99994,0 c 0.13258,1.2e-4 0.23995,0.10772 0.23978,0.2403 -1.2e-4,0.13237 -0.1074,0.23966 -0.23978,0.23978 -0.13257,1.6e-4 -0.24017,-0.10721 -0.24029,-0.23978 -1.6e-4,-0.13278 0.10752,-0.24046 0.24029,-0.2403 z m 0.99994,0 c 0.13258,1.2e-4 0.23995,0.10772 0.23978,0.2403 -1.2e-4,0.13237 -0.1074,0.23966 -0.23978,0.23978 -0.13237,-1.2e-4 -0.23965,-0.10741 -0.23977,-0.23978 -1.7e-4,-0.13258 0.1072,-0.24018 0.23977,-0.2403 z m -38.000262,0.99994 c 0.132779,-1.6e-4 0.240459,0.10752 0.240296,0.2403 -1.23e-4,0.13257 -0.107719,0.23994 -0.240296,0.23978 -0.132375,-1.3e-4 -0.239656,-0.10741 -0.239778,-0.23978 -1.63e-4,-0.13258 0.107201,-0.24018 0.239778,-0.2403 z m 1.000456,0 c 0.132577,1.2e-4 0.239941,0.10772 0.239779,0.2403 -1.22e-4,0.13237 -0.107403,0.23965 -0.239779,0.23978 -0.132577,1.6e-4 -0.240173,-0.10721 -0.240295,-0.23978 -1.63e-4,-0.13278 0.107516,-0.24046 0.240295,-0.2403 z m 0.999939,0 c 0.132577,1.2e-4 0.23994,0.10772 0.239779,0.2403 -1.22e-4,0.13237 -0.107403,0.23965 -0.239779,0.23978 -0.132577,1.6e-4 -0.240172,-0.10721 -0.240295,-0.23978 -1.63e-4,-0.13278 0.107516,-0.24046 0.240295,-0.2403 z m 0.999939,0 c 0.132577,1.2e-4 0.239942,0.10772 0.239779,0.2403 -1.22e-4,0.13237 -0.107404,0.23965 -0.239779,0.23978 -0.132577,1.6e-4 -0.240172,-0.10721 -0.240295,-0.23978 -1.63e-4,-0.13278 0.107516,-0.24046 0.240295,-0.2403 z m 0.999939,0 c 0.132577,1.2e-4 0.239942,0.10772 0.239779,0.2403 -1.22e-4,0.13237 -0.107404,0.23965 -0.239779,0.23978 -0.132376,-1.3e-4 -0.239657,-0.10741 -0.239779,-0.23978 -1.63e-4,-0.13258 0.107202,-0.24018 0.239779,-0.2403 z m 0.999941,0 c 0.132577,1.2e-4 0.239942,0.10772 0.239778,0.2403 -1.22e-4,0.13237 -0.107402,0.23965 -0.239778,0.23978 -0.132379,-1.3e-4 -0.239659,-0.10741 -0.239781,-0.23978 -1.63e-4,-0.13258 0.107201,-0.24018 0.239781,-0.2403 z m 0.999939,0 c 0.132774,-1.6e-4 0.240459,0.10752 0.240295,0.2403 -1.22e-4,0.13257 -0.107723,0.23994 -0.240295,0.23978 -0.132376,-1.3e-4 -0.239659,-0.10741 -0.239781,-0.23978 -1.59e-4,-0.13258 0.107204,-0.24018 0.239781,-0.2403 z m 0.999937,0 c 0.132779,-1.6e-4 0.240456,0.10752 0.240298,0.2403 -1.22e-4,0.13257 -0.10772,0.23994 -0.240298,0.23978 -0.132376,-1.3e-4 -0.239656,-0.10741 -0.239778,-0.23978 -1.64e-4,-0.13258 0.107201,-0.24018 0.239778,-0.2403 z m 23.000152,0 c 0.13257,1.2e-4 0.23994,0.10772 0.23977,0.2403 -1.2e-4,0.13237 -0.1074,0.23965 -0.23977,0.23978 -0.13238,-1.3e-4 -0.23966,-0.10741 -0.23978,-0.23978 -1.7e-4,-0.13258 0.1072,-0.24018 0.23978,-0.2403 z m 0.99993,0 c 0.13278,-1.6e-4 0.24046,0.10752 0.2403,0.2403 -1.2e-4,0.13257 -0.10772,0.23994 -0.2403,0.23978 -0.13237,-1.3e-4 -0.23965,-0.10741 -0.23977,-0.23978 -1.7e-4,-0.13258 0.10719,-0.24018 0.23977,-0.2403 z m 0.99994,0 c 0.13278,-1.6e-4 0.24046,0.10752 0.2403,0.2403 -1.2e-4,0.13257 -0.10772,0.23994 -0.2403,0.23978 -0.13237,-1.3e-4 -0.23965,-0.10741 -0.23978,-0.23978 -1.6e-4,-0.13258 0.1072,-0.24018 0.23978,-0.2403 z m 0.99994,0 c 0.13278,-1.6e-4 0.24046,0.10752 0.2403,0.2403 -1.2e-4,0.13257 -0.10772,0.23994 -0.2403,0.23978 -0.13237,-1.3e-4 -0.23966,-0.10741 -0.23978,-0.23978 -1.6e-4,-0.13258 0.1072,-0.24018 0.23978,-0.2403 z m 0.99994,0 c 0.13278,-1.6e-4 0.24046,0.10752 0.2403,0.2403 -1.3e-4,0.13257 -0.10772,0.23994 -0.2403,0.23978 -0.13237,-1.3e-4 -0.23966,-0.10741 -0.23978,-0.23978 -1.6e-4,-0.13258 0.1072,-0.24018 0.23978,-0.2403 z m 1.00046,0 c 0.13257,1.2e-4 0.23994,0.10772 0.23978,0.2403 -1.3e-4,0.13237 -0.10741,0.23965 -0.23978,0.23978 -0.13258,1.6e-4 -0.24018,-0.10721 -0.2403,-0.23978 -1.6e-4,-0.13278 0.10752,-0.24046 0.2403,-0.2403 z m 0.99993,0 c 0.13258,1.2e-4 0.23995,0.10772 0.23978,0.2403 -1.2e-4,0.13237 -0.1074,0.23965 -0.23978,0.23978 -0.13257,1.6e-4 -0.24017,-0.10721 -0.24029,-0.23978 -1.6e-4,-0.13278 0.10752,-0.24046 0.24029,-0.2403 z m 0.99994,0 c 0.13258,1.2e-4 0.23995,0.10772 0.23978,0.2403 -1.2e-4,0.13237 -0.1074,0.23965 -0.23978,0.23978 -0.13257,1.6e-4 -0.24017,-0.10721 -0.24029,-0.23978 -1.6e-4,-0.13278 0.10752,-0.24046 0.24029,-0.2403 z m -35.999866,1.00046 c 0.132376,1.2e-4 0.239657,0.1074 0.239779,0.23978 -1.22e-4,0.13237 -0.107403,0.23965 -0.239779,0.23978 -0.132577,1.6e-4 -0.240173,-0.10721 -0.240295,-0.23978 1.22e-4,-0.13258 0.107718,-0.23995 0.240295,-0.23978 z m 0.999939,0 c 0.132376,1.2e-4 0.239657,0.1074 0.239779,0.23978 -1.22e-4,0.13237 -0.107403,0.23965 -0.239779,0.23978 -0.132577,1.6e-4 -0.240172,-0.10721 -0.240295,-0.23978 1.23e-4,-0.13258 0.107718,-0.23995 0.240295,-0.23978 z m 0.999939,0 c 0.132375,1.2e-4 0.239657,0.1074 0.239779,0.23978 -1.22e-4,0.13237 -0.107404,0.23965 -0.239779,0.23978 -0.132577,1.6e-4 -0.240172,-0.10721 -0.240295,-0.23978 1.23e-4,-0.13258 0.107718,-0.23995 0.240295,-0.23978 z m 0.999939,0 c 0.132375,1.2e-4 0.239657,0.1074 0.239779,0.23978 -1.22e-4,0.13237 -0.107404,0.23965 -0.239779,0.23978 -0.132376,-1.3e-4 -0.239657,-0.10741 -0.239779,-0.23978 1.22e-4,-0.13238 0.107403,-0.23966 0.239779,-0.23978 z m 0.999941,0 c 0.132376,1.2e-4 0.239656,0.1074 0.239778,0.23978 -1.22e-4,0.13237 -0.107402,0.23965 -0.239778,0.23978 -0.132379,-1.3e-4 -0.239659,-0.10741 -0.239781,-0.23978 1.22e-4,-0.13238 0.107402,-0.23966 0.239781,-0.23978 z m 0.999939,0 c 0.132572,-1.7e-4 0.240173,0.1072 0.240295,0.23978 -1.22e-4,0.13257 -0.107723,0.23994 -0.240295,0.23978 -0.132376,-1.3e-4 -0.239659,-0.10741 -0.239781,-0.23978 1.22e-4,-0.13238 0.107405,-0.23966 0.239781,-0.23978 z m 25.000019,0 c 0.13258,-1.7e-4 0.24018,0.1072 0.2403,0.23978 -1.2e-4,0.13257 -0.10772,0.23994 -0.2403,0.23978 -0.13237,-1.3e-4 -0.23965,-0.10741 -0.23977,-0.23978 1.2e-4,-0.13238 0.1074,-0.23966 0.23977,-0.23978 z m 0.99994,0 c 0.13258,-1.7e-4 0.24018,0.1072 0.2403,0.23978 -1.2e-4,0.13257 -0.10772,0.23994 -0.2403,0.23978 -0.13237,-1.3e-4 -0.23965,-0.10741 -0.23978,-0.23978 1.3e-4,-0.13238 0.10741,-0.23966 0.23978,-0.23978 z m 0.99994,0 c 0.13258,-1.7e-4 0.24018,0.1072 0.2403,0.23978 -1.2e-4,0.13257 -0.10772,0.23994 -0.2403,0.23978 -0.13237,-1.3e-4 -0.23966,-0.10741 -0.23978,-0.23978 1.2e-4,-0.13238 0.10741,-0.23966 0.23978,-0.23978 z m 0.99994,0 c 0.13258,-1.7e-4 0.24017,0.1072 0.2403,0.23978 -1.3e-4,0.13257 -0.10772,0.23994 -0.2403,0.23978 -0.13237,-1.3e-4 -0.23966,-0.10741 -0.23978,-0.23978 1.2e-4,-0.13238 0.10741,-0.23966 0.23978,-0.23978 z m 1.00046,0 c 0.13237,1.2e-4 0.23965,0.1074 0.23978,0.23978 -1.3e-4,0.13237 -0.10741,0.23965 -0.23978,0.23978 -0.13258,1.6e-4 -0.24018,-0.10721 -0.2403,-0.23978 1.2e-4,-0.13258 0.10772,-0.23995 0.2403,-0.23978 z m 0.99993,0 c 0.13238,1.2e-4 0.23966,0.1074 0.23978,0.23978 -1.2e-4,0.13237 -0.1074,0.23965 -0.23978,0.23978 -0.13257,1.6e-4 -0.24017,-0.10721 -0.24029,-0.23978 1.2e-4,-0.13258 0.10772,-0.23995 0.24029,-0.23978 z m -10.529068,10.23968 h 17.999938 v 3.00033 H 51.050354 Z M 11.5215,181.04986 c 0.0095,-5e-5 0.01895,-5e-5 0.02842,0 1.380794,-6e-5 2.500163,1.11932 2.500106,2.50011 5.9e-5,1.38079 -1.119311,2.50016 -2.500106,2.5001 -1.380593,-2.2e-4 -2.499648,-1.11951 -2.499589,-2.5001 -1.47e-4,-1.36957 1.101688,-2.48431 2.471167,-2.50011 z m 64.999652,0 c 0.01,-6e-5 0.0193,-6e-5 0.0289,0 1.38079,-6e-5 2.50017,1.11932 2.50011,2.50011 6e-5,1.38079 -1.11932,2.50016 -2.50011,2.5001 -1.38079,6e-5 -2.50016,-1.11931 -2.5001,-2.5001 -1.5e-4,-1.36957 1.10168,-2.48431 2.47116,-2.50011 z"
         style="display:inline;opacity:1;fill:none;stroke:#0000ff;stroke-width:0.01;stroke-linecap:round;stroke-miterlimit:4;stroke-dasharray:none;stroke-dashoffset:37.7953"
         id="rect1175-6" />
    </g>
  </g>
  <g
     inkscape:label="Boundary"
     inkscape:groupmode="layer"
     id="layer1"
     sodipodi:insensitive="true"
     style="display:none"
     transform="translate(1.05,1.05)">
    <rect
       style="fill:none;stroke:#000000;stroke-width:0.5;stroke-linecap:round;stroke-miterlimit:4;stroke-dasharray:none;stroke-dashoffset:37.7953"
       id="rect852"
       width="80"
       height="80.000008"
       x="0"
       y="-9.2207119e-06"
       rx="2.0000012"
       ry="2.0000012" />
  </g>
  <g
     inkscape:groupmode="layer"
     id="layer11"
     inkscape:label="BaseSheet"
     style="display:inline"
     sodipodi:insensitive="true"
     transform="translate(1.05,1.05)">
    <path
       id="rect852-6"
       style="fill:#999999;stroke:none;stroke-width:1.88976;stroke-linecap:round;stroke-miterlimit:4;stroke-dasharray:none;stroke-dashoffset:37.7953"
       d="M 7.5585938,0 C 3.3708746,0 0,3.3708748 0,7.5585938 V 294.80273 c 0,4.18772 3.3708746,7.5586 7.5585938,7.5586 H 294.80273 c 4.18772,0 7.5586,-3.37088 7.5586,-7.5586 V 7.5585938 C 302.36133,3.3708748 298.99045,0 294.80273,0 Z M 28.238281,18.898438 a 9.4488186,9.4488186 0 0 1 0.107422,0 9.4488186,9.4488186 0 0 1 9.449219,9.447265 9.4488186,9.4488186 0 0 1 -9.449219,9.449219 9.4488186,9.4488186 0 0 1 -9.447265,-9.449219 9.4488186,9.4488186 0 0 1 9.339843,-9.447265 z m 245.667969,0 a 9.4488187,9.4488187 0 0 1 0.10937,0 9.4488187,9.4488187 0 0 1 9.44922,9.447265 9.4488187,9.4488187 0 0 1 -9.44922,9.449219 9.4488187,9.4488187 0 0 1 -9.44921,-9.449219 9.4488187,9.4488187 0 0 1 9.33984,-9.447265 z M 28.345703,264.56641 a 9.4488189,9.4488189 0 0 1 9.449219,9.44921 9.4488189,9.4488189 0 0 1 -9.449219,9.44922 9.4488189,9.4488189 0 0 1 -9.447265,-9.44922 9.4488189,9.4488189 0 0 1 9.447265,-9.44921 z m 245.560547,0 a 9.4488188,9.4488188 0 0 1 0.10937,0 9.4488188,9.4488188 0 0 1 9.44922,9.44921 9.4488188,9.4488188 0 0 1 -9.44922,9.44922 9.4488188,9.4488188 0 0 1 -9.44921,-9.44922 9.4488188,9.4488188 0 0 1 9.33984,-9.44921 z"
       transform="scale(0.26458333)" />
  </g>
  <g
     sodipodi:insensitive="true"
     inkscape:groupmode="layer"
     id="layer15"
     inkscape:label="BaseFloor"
     style="display:inline"
     transform="translate(1.05,1.05)">
    <path
       d="M 1.9998779,-4.3750002e-7 C 0.89187724,-4.3750002e-7 0,0.89187685 0,1.9998775 V 77.999889 c 0,1.108001 0.89187724,1.99988 1.9998779,1.99988 H 77.999889 c 1.108001,0 1.99988,-0.891879 1.99988,-1.99988 V 1.9998775 C 79.999769,0.89187685 79.10789,-4.3750002e-7 77.999889,-4.3750002e-7 Z M 7.4713785,5.0002113 a 2.4999999,2.4999999 0 0 1 0.028422,0 A 2.4999999,2.4999999 0 0 1 9.9999064,7.4998002 2.4999999,2.4999999 0 0 1 7.4998006,9.999906 2.4999999,2.4999999 0 0 1 5.0002117,7.4998002 2.4999999,2.4999999 0 0 1 7.4713785,5.0002113 Z m 64.9996505,0 a 2.4999999,2.4999999 0 0 1 0.02894,0 2.4999999,2.4999999 0 0 1 2.500106,2.4995889 A 2.4999999,2.4999999 0 0 1 72.499969,9.999906 2.4999999,2.4999999 0 0 1 69.999866,7.4998002 2.4999999,2.4999999 0 0 1 72.471032,5.0002113 Z M 7.4998006,69.999863 a 2.5,2.5 0 0 1 2.5001058,2.500103 2.5,2.5 0 0 1 -2.5001058,2.500106 2.5,2.5 0 0 1 -2.4995889,-2.500106 2.5,2.5 0 0 1 2.4995889,-2.500103 z m 64.9712284,0 a 2.5,2.5 0 0 1 0.02894,0 2.5,2.5 0 0 1 2.500106,2.500103 2.5,2.5 0 0 1 -2.500106,2.500106 2.5,2.5 0 0 1 -2.500103,-2.500106 2.5,2.5 0 0 1 2.471166,-2.500103 z"
       style="display:inline;fill:#4d4d4d;stroke:none;stroke-width:0.499999;stroke-linecap:round;stroke-miterlimit:4;stroke-dasharray:none;stroke-dashoffset:37.7953"
       id="rect852-6-4" />
  </g>
  <g
     sodipodi:insensitive="true"
     inkscape:groupmode="layer"
     id="layer14"
     inkscape:label="UpperFloor"
     style="display:inline"
     transform="translate(1.05,1.05)">
    <path
       id="rect852-6-11"
       style="display:inline;fill:#666666;stroke:none;stroke-width:1.88976;stroke-linecap:round;stroke-miterlimit:4;stroke-dasharray:none;stroke-dashoffset:37.7953"
       d="M 7.5585938,0 C 3.3708747,0 0,3.3708748 0,7.5585938 V 294.80273 c 0,4.18772 3.3708747,7.5586 7.5585938,7.5586 H 294.80273 c 4.18772,0 7.5586,-3.37088 7.5586,-7.5586 V 7.5585938 C 302.36133,3.3708748 298.99045,0 294.80273,0 Z M 28.238281,18.898438 c 0.03581,-2.04e-4 0.07161,-2.04e-4 0.107422,0 5.217988,-2.21e-4 9.448361,4.229277 9.449219,9.447265 2.21e-4,5.218751 -4.230468,9.44944 -9.449219,9.449219 -5.217988,-8.58e-4 -9.447486,-4.231231 -9.447265,-9.449219 5.06e-4,-5.17557 4.164617,-9.387575 9.339843,-9.447265 z m 168.296879,0 h 11.33789 v 75.589843 h -11.33789 z m 77.37109,0 c 0.0365,-2.11e-4 0.0729,-2.11e-4 0.10937,0 5.21799,-2.22e-4 9.44836,4.229276 9.44922,9.447265 2.2e-4,5.218752 -4.23047,9.449441 -9.44922,9.449219 -5.21874,2.16e-4 -9.44943,-4.230471 -9.44921,-9.449219 5.1e-4,-5.175569 4.16462,-9.387573 9.33984,-9.447265 z M 75.589844,260.78711 H 245.66992 v 11.33984 H 75.589844 Z m -47.351563,3.7793 c 0.03581,-2e-4 0.07161,-2e-4 0.107422,0 5.218748,-2.2e-4 9.449435,4.23047 9.449219,9.44921 2.22e-4,5.21875 -4.230467,9.44944 -9.449219,9.44922 -5.217988,-8.6e-4 -9.447487,-4.23123 -9.447265,-9.44922 -5.59e-4,-5.17632 4.163859,-9.38951 9.339843,-9.44921 z m 245.667969,0 c 0.0365,-2.1e-4 0.0729,-2.1e-4 0.10937,0 5.21875,-2.2e-4 9.44944,4.23047 9.44922,9.44921 2.2e-4,5.21875 -4.23047,9.44944 -9.44922,9.44922 -5.21874,2.2e-4 -9.44943,-4.23047 -9.44921,-9.44922 -5.6e-4,-5.17632 4.16386,-9.38951 9.33984,-9.44921 z m -149.18164,13.11914 h 52.91406 v 13.33789 h -52.91406 z"
       transform="scale(0.26458333)" />
  </g>
  <g
     sodipodi:insensitive="true"
     inkscape:groupmode="layer"
     id="layer13"
     inkscape:label="Walls"
     style="display:inline"
     transform="translate(1.05,1.05)">
    <path
       id="rect852-6-1"
       style="display:inline;fill:#999999;stroke:none;stroke-width:1.88976;stroke-linecap:round;stroke-miterlimit:4;stroke-dasharray:none;stroke-dashoffset:37.7953"
       d="M 7.5585938,0 C 3.3708747,0 0,3.3708748 0,7.5585938 V 294.80273 c 0,4.18772 3.3708747,7.5586 7.5585938,7.5586 H 132.2832 v -11.33789 h -7.55859 v -13.33789 h 7.55859 v -5.5586 H 75.589844 v -11.33984 h 56.992186 c 0.16563,-3.20061 0.2444,-8.31174 -0.29883,-15.11719 -1.50367,-18.83772 -48.118062,4.93508 -64.193356,-5 -11.981813,-7.40517 -35.077472,-9.7229 -35.646485,-23.79687 -0.559599,-13.84112 10.631445,-8.02856 8.544125,-23.27681 -1.792988,-13.0981 34.224012,-11.71088 41.250797,-13.36968 12.261402,-2.89453 41.136489,17.65843 50.044919,8.75 4.45422,-4.45422 6.28219,-19.36129 0,-18.89844 -49.362621,3.63735 -7.79572,-42.49999 -26.69336,-42.5 -12.5984,0 -50.824235,41.75647 -58.794918,32 -24.117756,-19.7356 -20.338229,-61.310402 -20.338229,-61.310402 1.858814,-9.132465 24.313585,-7.94676 23.88315,-29.677874 -0.236457,-11.937578 25.532879,-34.03469 37.582032,-34.125 1.721308,-0.0129 14.125375,-0.449098 18.816405,-3.169922 18.81823,-10.91468 9.96613,8.721479 26.86829,-3.082185 10.07453,-7.035571 13.15122,-7.529517 32.8595,-1.432589 7.30959,2.261288 6.13228,7.616551 -0.10254,11.885653 -3.29426,2.255643 -11.96499,0.964325 -12.8838,5.836992 -2.29863,12.190121 -13.63721,12.190121 -10.94653,27.440566 5.23395,29.665391 -29.62241,33.736961 -16.25976,47.099611 4.45422,4.45422 19.79801,-1.97304 24.9082,-5.65625 16.15983,-11.64735 10.70261,-59.452622 22.14648,-51.193361 8.08921,5.838138 7.58921,4.338138 7.79493,5.5 1.78167,10.062263 14.73828,7.074446 15.41239,7.897193 l -2.8e-4,-56.692114 h 11.33789 v 56.691406 h 18.89843 V 68.03125 c 0,-6.281575 5.05632,-11.337891 11.3379,-11.337891 h 34.01757 c 6.28158,0 11.33789,5.056316 11.33789,11.337891 v 52.91406 c 0,6.28158 -5.05631,11.33789 -11.33789,11.33789 h -34.01757 c -6.28158,0 -11.3379,-5.05631 -11.3379,-11.33789 V 86.929688 h -18.89843 v 7.558593 h -15.11714 c -1.86174,6.472179 5.32534,12.124689 7.11714,20.398439 2.98128,13.76635 4.04282,27.59601 0.80664,41.30469 -1.53417,6.49884 -18.96426,22.68948 -34.00977,23.98437 -20.08554,1.72865 8.37493,13.50255 8.73633,16.08789 0.51945,3.71595 9.68481,-7.28711 13.57031,-7.28711 18.89764,0 6.47224,-4.3059 15.13086,-7.29492 10.74837,-3.71042 18.66519,27.69279 30.28711,10.25195 2.27749,-3.41779 4.76598,-11.61644 -0.54883,-14.18554 -17.55015,-8.4835 0.0437,-13.94953 6.23242,-22.60352 0.91501,-1.27949 41.45746,-3.936 40.36719,7.18164 -0.76027,7.75257 4.45641,11.97592 1.81836,21.33203 -4.82912,17.12698 -4.8857,6.49618 -12.45312,11.13086 -9.02252,5.52585 6.41609,18.76026 6.60937,21.33399 0.74739,9.95244 -13.14263,22.102 -21.15131,24.19802 -6.88885,1.80295 -24.22535,-7.6187 -29.99713,-1.65115 -13.13799,13.5836 -54.77298,-11.89296 -55.19336,7 -0.1761,7.91561 -0.17983,12.40747 -0.14062,15.11719 h 75.73242 v 11.33984 h -75.5918 v 5.5586 h 7.56055 v 13.33789 h -7.56055 v 11.33789 h 124.72461 c 4.18772,0 7.5586,-3.37088 7.5586,-7.5586 V 7.5585938 C 302.36133,3.3708748 298.99045,0 294.80273,0 Z M 28.238281,18.898438 c 0.03581,-2.04e-4 0.07161,-2.04e-4 0.107422,0 5.217988,-2.21e-4 9.448361,4.229277 9.449219,9.447265 2.21e-4,5.218751 -4.230468,9.44944 -9.449219,9.449219 -5.217988,-8.58e-4 -9.447486,-4.231231 -9.447265,-9.449219 5.04e-4,-5.17557 4.164617,-9.387577 9.339843,-9.447265 z m 245.667969,0 c 0.0365,-2.11e-4 0.0729,-2.11e-4 0.10937,0 5.21799,-2.22e-4 9.44836,4.229276 9.44922,9.447265 2.2e-4,5.218752 -4.23047,9.449441 -9.44922,9.449219 -5.21872,2.16e-4 -9.44943,-4.230471 -9.44921,-9.449219 5.1e-4,-5.175569 4.16462,-9.387575 9.33984,-9.447265 z M 28.238281,264.56641 c 0.03581,-2e-4 0.07161,-2e-4 0.107422,0 5.218748,-2.2e-4 9.449435,4.23049 9.449219,9.44921 2.22e-4,5.21875 -4.230467,9.44944 -9.449219,9.44922 -5.217988,-8.6e-4 -9.447487,-4.23123 -9.447265,-9.44922 -5.59e-4,-5.1763 4.163859,-9.38951 9.339843,-9.44921 z m 245.667969,0 c 0.0365,-2.1e-4 0.0729,-2.1e-4 0.10937,0 5.21875,-2.2e-4 9.44944,4.23049 9.44922,9.44921 2.2e-4,5.21875 -4.23047,9.44944 -9.44922,9.44922 -5.21872,2.2e-4 -9.44943,-4.23047 -9.44921,-9.44922 -5.6e-4,-5.1763 4.16386,-9.38951 9.33984,-9.44921 z"
       sodipodi:nodetypes="sssscccccccccsssssscsccsssssssssssscccccssssssssccccsssssssssssssssscccccccccssssscccccccccccccccccccccccc"
       transform="scale(0.26458333)" />
  </g>
  <g
     sodipodi:insensitive="true"
     inkscape:groupmode="layer"
     id="layer16"
     inkscape:label="WaterGate"
     style="display:inline"
     transform="translate(1.05,1.05)">
    <path
       d="m 81.999974,7.9996 c -5e-6,1.108 0.891914,2.009603 1.999877,2.0004 H 90 l 3.95e-4,10 H 105 l -4e-4,-15.00043 H 90.99994 90 83.999851 c -1.108001,0 -1.999877,0.8924 -1.999877,2.0004 z"
       style="display:inline;fill:#ff5555;stroke:none;stroke-width:0.1;stroke-linecap:round;stroke-miterlimit:4;stroke-dasharray:none;stroke-dashoffset:37.7953"
       id="rect2408-0"
       sodipodi:nodetypes="csccccccssc" />
  </g>
  <g
     sodipodi:insensitive="true"
     inkscape:groupmode="layer"
     id="layer12"
     inkscape:label="ClearPlasticTop"
     style="display:inline;opacity:1"
     transform="translate(1.05,1.05)">
    <path
       id="rect1175"
       style="fill:none;stroke:#000000;stroke-width:0.377953;stroke-linecap:round;stroke-miterlimit:4;stroke-dasharray:none;stroke-dashoffset:37.7953"
       d="M 7.5585938,0 C 3.3708748,0 0,3.3708749 0,7.5585938 V 294.80273 c 0,4.18772 3.3708748,7.5586 7.5585938,7.5586 H 132.2832 v -11.33789 h -7.55859 v -13.33789 h 52.91406 v 13.33789 h -7.56055 v 11.33789 h 124.72461 c 4.18772,0 7.5586,-3.37088 7.5586,-7.5586 V 7.5585938 C 302.36133,3.3708749 298.99045,0 294.80273,0 Z M 28.238281,18.898438 c 0.03579,-2.05e-4 0.07161,-2.05e-4 0.107422,0 5.217988,-2.23e-4 9.448361,4.229277 9.449219,9.447265 2.22e-4,5.218751 -4.230468,9.449441 -9.449219,9.449219 -5.217988,-8.58e-4 -9.447488,-4.231231 -9.447265,-9.449219 5.03e-4,-5.17557 4.164617,-9.387577 9.339843,-9.447265 z m 168.296879,0 h 11.33789 v 37.794921 h -11.33789 z m 77.37109,0 c 0.0367,-2.12e-4 0.0729,-2.12e-4 0.10937,0 5.21799,-2.23e-4 9.44837,4.229276 9.44922,9.447265 2.3e-4,5.218752 -4.23047,9.449441 -9.44922,9.449219 -5.21872,2.17e-4 -9.44943,-4.230471 -9.44921,-9.449219 5.1e-4,-5.175569 4.16462,-9.387576 9.33984,-9.447265 z m -28.23534,49.13352 h 18.89649 c 4.18771,0 7.5587,3.370877 7.55859,7.558594 l -9.9e-4,37.796168 c -1.1e-4,4.18772 -3.37088,7.55859 -7.55859,7.55859 h -18.89649 c -4.18771,0 -7.56055,-3.37087 -7.56054,-7.55859 l 9.9e-4,-37.796168 c 1.1e-4,-4.187718 3.37283,-7.558594 7.56054,-7.558594 z M 85.150391,191.84961 c 0.500318,4.6e-4 0.905789,0.40593 0.90625,0.90625 -4.61e-4,0.50032 -0.405932,0.90579 -0.90625,0.90625 -0.501079,6.2e-4 -0.907743,-0.40517 -0.908203,-0.90625 4.6e-4,-0.50108 0.407124,-0.90687 0.908203,-0.90625 z m 3.779297,0 c 0.500317,4.6e-4 0.905788,0.40593 0.90625,0.90625 -4.62e-4,0.50032 -0.405933,0.90579 -0.90625,0.90625 -0.501079,6.2e-4 -0.907739,-0.40517 -0.908204,-0.90625 4.65e-4,-0.50108 0.407125,-0.90687 0.908204,-0.90625 z m 3.779296,0 c 0.500315,4.6e-4 0.905789,0.40593 0.90625,0.90625 -4.61e-4,0.50032 -0.405935,0.90579 -0.90625,0.90625 -0.501078,6.2e-4 -0.907738,-0.40517 -0.908203,-0.90625 4.65e-4,-0.50108 0.407125,-0.90687 0.908203,-0.90625 z m 3.779297,0 c 0.500315,4.6e-4 0.905789,0.40593 0.90625,0.90625 -4.61e-4,0.50032 -0.405935,0.90579 -0.90625,0.90625 -0.500318,-4.6e-4 -0.905789,-0.40593 -0.90625,-0.90625 4.61e-4,-0.50032 0.405932,-0.90579 0.90625,-0.90625 z m 3.779299,0 c 0.50032,4.6e-4 0.90579,0.40593 0.90625,0.90625 -4.6e-4,0.50032 -0.40593,0.90579 -0.90625,0.90625 -0.500323,-4.6e-4 -0.905791,-0.40593 -0.906252,-0.90625 4.61e-4,-0.50032 0.405929,-0.90579 0.906252,-0.90625 z m 3.7793,0 c 0.50106,-6.2e-4 0.90774,0.40517 0.9082,0.90625 -4.6e-4,0.50108 -0.40714,0.90687 -0.9082,0.90625 -0.50032,-4.6e-4 -0.9058,-0.40593 -0.90626,-0.90625 4.6e-4,-0.50032 0.40594,-0.90579 0.90626,-0.90625 z m 94.48828,0 c 0.50107,-6.2e-4 0.90774,0.40517 0.9082,0.90625 -4.6e-4,0.50108 -0.40713,0.90687 -0.9082,0.90625 -0.50033,-4.6e-4 -0.90579,-0.40593 -0.90625,-0.90625 4.6e-4,-0.50032 0.40592,-0.90579 0.90625,-0.90625 z m 3.77929,0 c 0.50108,-6.2e-4 0.90775,0.40517 0.90821,0.90625 -4.6e-4,0.50108 -0.40713,0.90687 -0.90821,0.90625 -0.50032,-4.6e-4 -0.90579,-0.40593 -0.90625,-0.90625 4.6e-4,-0.50032 0.40593,-0.90579 0.90625,-0.90625 z m 3.7793,0 c 0.50108,-6.2e-4 0.90775,0.40517 0.9082,0.90625 -4.5e-4,0.50108 -0.40712,0.90687 -0.9082,0.90625 -0.50032,-4.6e-4 -0.90579,-0.40593 -0.90625,-0.90625 4.6e-4,-0.50032 0.40593,-0.90579 0.90625,-0.90625 z m 3.7793,0 c 0.50108,-6.2e-4 0.90774,0.40517 0.9082,0.90625 -4.6e-4,0.50108 -0.40712,0.90687 -0.9082,0.90625 -0.50032,-4.6e-4 -0.90579,-0.40593 -0.90625,-0.90625 4.6e-4,-0.50032 0.40593,-0.90579 0.90625,-0.90625 z m 3.78125,0 c 0.50032,4.6e-4 0.90579,0.40593 0.90625,0.90625 -4.6e-4,0.50032 -0.40593,0.90579 -0.90625,0.90625 -0.50108,6.2e-4 -0.90775,-0.40517 -0.90821,-0.90625 4.6e-4,-0.50108 0.40713,-0.90687 0.90821,-0.90625 z m 3.77929,0 c 0.50033,4.6e-4 0.90579,0.40593 0.90625,0.90625 -4.6e-4,0.50032 -0.40592,0.90579 -0.90625,0.90625 -0.50107,6.2e-4 -0.90774,-0.40517 -0.9082,-0.90625 4.6e-4,-0.50108 0.40713,-0.90687 0.9082,-0.90625 z m -136.064449,3.7793 c 0.501078,-6.2e-4 0.907738,0.40517 0.908203,0.90625 6.16e-4,0.50184 -0.406361,0.90882 -0.908203,0.9082 -0.501079,-4.6e-4 -0.906866,-0.40712 -0.90625,-0.9082 4.61e-4,-0.50032 0.405935,-0.90579 0.90625,-0.90625 z m 3.78125,0 c 0.500318,4.6e-4 0.905789,0.40593 0.90625,0.90625 6.12e-4,0.50108 -0.405172,0.90774 -0.90625,0.9082 -0.501842,6.2e-4 -0.90882,-0.40636 -0.908203,-0.9082 4.6e-4,-0.50108 0.407124,-0.90687 0.908203,-0.90625 z m 3.779297,0 c 0.500317,4.6e-4 0.905788,0.40593 0.90625,0.90625 6.11e-4,0.50108 -0.405173,0.90774 -0.90625,0.9082 -0.501842,6.2e-4 -0.90882,-0.40636 -0.908204,-0.9082 4.65e-4,-0.50108 0.407125,-0.90687 0.908204,-0.90625 z m 3.779296,0 c 0.500315,4.6e-4 0.905789,0.40593 0.90625,0.90625 6.16e-4,0.50108 -0.405171,0.90774 -0.90625,0.9082 -0.501842,6.2e-4 -0.908819,-0.40636 -0.908203,-0.9082 4.65e-4,-0.50108 0.407125,-0.90687 0.908203,-0.90625 z m 3.779297,0 c 0.500315,4.6e-4 0.905789,0.40593 0.90625,0.90625 6.16e-4,0.50108 -0.405171,0.90774 -0.90625,0.9082 -0.501078,-4.6e-4 -0.906866,-0.40712 -0.90625,-0.9082 4.61e-4,-0.50032 0.405932,-0.90579 0.90625,-0.90625 z m 3.779299,0 c 0.50032,4.6e-4 0.90579,0.40593 0.90625,0.90625 6.2e-4,0.50108 -0.40517,0.90774 -0.90625,0.9082 -0.501082,-4.6e-4 -0.906868,-0.40712 -0.906252,-0.9082 4.61e-4,-0.50032 0.405929,-0.90579 0.906252,-0.90625 z m 3.7793,0 c 0.50106,-6.2e-4 0.90774,0.40517 0.9082,0.90625 6.2e-4,0.50184 -0.40638,0.90882 -0.9082,0.9082 -0.50108,-4.6e-4 -0.90686,-0.40712 -0.90626,-0.9082 4.6e-4,-0.50032 0.40594,-0.90579 0.90626,-0.90625 z m 3.77929,0 c 0.50108,-6.2e-4 0.90775,0.40517 0.90821,0.90625 6e-4,0.50184 -0.40637,0.90882 -0.90821,0.9082 -0.50108,-4.6e-4 -0.90687,-0.40712 -0.90625,-0.9082 4.6e-4,-0.50032 0.40593,-0.90579 0.90625,-0.90625 z m 86.92969,0 c 0.50032,4.6e-4 0.90579,0.40593 0.90625,0.90625 6.2e-4,0.50108 -0.40517,0.90774 -0.90625,0.9082 -0.50108,-4.6e-4 -0.90687,-0.40712 -0.90625,-0.9082 4.6e-4,-0.50032 0.40593,-0.90579 0.90625,-0.90625 z m 3.7793,0 c 0.50107,-6.2e-4 0.90774,0.40517 0.9082,0.90625 6.2e-4,0.50184 -0.40637,0.90882 -0.9082,0.9082 -0.50109,-4.6e-4 -0.90687,-0.40712 -0.90625,-0.9082 4.6e-4,-0.50032 0.40592,-0.90579 0.90625,-0.90625 z m 3.77929,0 c 0.50108,-6.2e-4 0.90775,0.40517 0.90821,0.90625 6.2e-4,0.50184 -0.40637,0.90882 -0.90821,0.9082 -0.50108,-4.6e-4 -0.90687,-0.40712 -0.90625,-0.9082 4.6e-4,-0.50032 0.40593,-0.90579 0.90625,-0.90625 z m 3.7793,0 c 0.50108,-6.2e-4 0.90775,0.40517 0.9082,0.90625 6.2e-4,0.50184 -0.40636,0.90882 -0.9082,0.9082 -0.50108,-4.6e-4 -0.90687,-0.40712 -0.90625,-0.9082 4.6e-4,-0.50032 0.40593,-0.90579 0.90625,-0.90625 z m 3.7793,0 c 0.50108,-6.2e-4 0.90774,0.40517 0.9082,0.90625 6.2e-4,0.50184 -0.40636,0.90882 -0.9082,0.9082 -0.50108,-4.6e-4 -0.90687,-0.40712 -0.90625,-0.9082 4.6e-4,-0.50032 0.40593,-0.90579 0.90625,-0.90625 z m 3.78125,0 c 0.50032,4.6e-4 0.90579,0.40593 0.90625,0.90625 6.2e-4,0.50108 -0.40517,0.90774 -0.90625,0.9082 -0.50184,6.2e-4 -0.90883,-0.40636 -0.90821,-0.9082 4.6e-4,-0.50108 0.40713,-0.90687 0.90821,-0.90625 z m 3.77929,0 c 0.50033,4.6e-4 0.90579,0.40593 0.90625,0.90625 6.2e-4,0.50108 -0.40516,0.90774 -0.90625,0.9082 -0.50183,6.2e-4 -0.90882,-0.40636 -0.9082,-0.9082 4.6e-4,-0.50108 0.40713,-0.90687 0.9082,-0.90625 z m 3.7793,0 c 0.50032,4.6e-4 0.90579,0.40593 0.90625,0.90625 6.2e-4,0.50108 -0.40517,0.90774 -0.90625,0.9082 -0.50184,6.2e-4 -0.90882,-0.40636 -0.9082,-0.9082 4.6e-4,-0.50108 0.40712,-0.90687 0.9082,-0.90625 z M 77.589844,199.4082 c 0.501078,-6.2e-4 0.907738,0.40517 0.908203,0.90625 6.2e-4,0.50185 -0.406358,0.90883 -0.908203,0.90821 -0.501082,-4.6e-4 -0.906874,-0.40712 -0.90625,-0.90821 4.61e-4,-0.50032 0.405935,-0.90579 0.90625,-0.90625 z m 3.779297,0 c 0.501078,-6.2e-4 0.907738,0.40517 0.908203,0.90625 6.2e-4,0.50185 -0.406358,0.90883 -0.908203,0.90821 -0.501083,-4.6e-4 -0.906874,-0.40712 -0.90625,-0.90821 4.61e-4,-0.50032 0.405935,-0.90579 0.90625,-0.90625 z m 3.78125,0 c 0.500318,4.6e-4 0.905789,0.40593 0.90625,0.90625 6.19e-4,0.50109 -0.405168,0.90775 -0.90625,0.90821 -0.501846,6.2e-4 -0.908827,-0.40636 -0.908203,-0.90821 4.6e-4,-0.50108 0.407124,-0.90687 0.908203,-0.90625 z m 3.779297,0 c 0.500317,4.6e-4 0.905788,0.40593 0.90625,0.90625 6.18e-4,0.50109 -0.405169,0.90775 -0.90625,0.90821 -0.501846,6.2e-4 -0.908823,-0.40636 -0.908204,-0.90821 4.65e-4,-0.50108 0.407125,-0.90687 0.908204,-0.90625 z m 3.779296,0 c 0.500315,4.6e-4 0.905789,0.40593 0.90625,0.90625 6.24e-4,0.50109 -0.405167,0.90775 -0.90625,0.90821 -0.501845,6.2e-4 -0.908823,-0.40636 -0.908203,-0.90821 4.65e-4,-0.50108 0.407125,-0.90687 0.908203,-0.90625 z m 3.779297,0 c 0.500315,4.6e-4 0.905789,0.40593 0.90625,0.90625 6.24e-4,0.50109 -0.405168,0.90775 -0.90625,0.90821 -0.501082,-4.6e-4 -0.90687,-0.40712 -0.90625,-0.90821 4.61e-4,-0.50032 0.405932,-0.90579 0.90625,-0.90625 z m 3.779299,0 c 0.50032,4.6e-4 0.90579,0.40593 0.90625,0.90625 6.2e-4,0.50109 -0.40517,0.90775 -0.90625,0.90821 -0.501086,-4.6e-4 -0.906872,-0.40712 -0.906252,-0.90821 4.61e-4,-0.50032 0.405929,-0.90579 0.906252,-0.90625 z m 3.7793,0 c 0.50106,-6.2e-4 0.90774,0.40517 0.9082,0.90625 6.2e-4,0.50185 -0.40638,0.90883 -0.9082,0.90821 -0.50109,-4.6e-4 -0.90686,-0.40712 -0.90626,-0.90821 4.6e-4,-0.50032 0.40594,-0.90579 0.90626,-0.90625 z m 3.77929,0 c 0.50108,-6.2e-4 0.90775,0.40517 0.90821,0.90625 6e-4,0.50185 -0.40636,0.90883 -0.90821,0.90821 -0.50108,-4.6e-4 -0.90687,-0.40712 -0.90625,-0.90821 4.6e-4,-0.50032 0.40593,-0.90579 0.90625,-0.90625 z m 3.7793,0 c 0.50108,-6.2e-4 0.90774,0.40517 0.9082,0.90625 6.3e-4,0.50185 -0.40636,0.90883 -0.9082,0.90821 -0.50108,-4.6e-4 -0.90687,-0.40712 -0.90625,-0.90821 4.6e-4,-0.50032 0.40593,-0.90579 0.90625,-0.90625 z m 79.37109,0 c 0.50033,4.6e-4 0.90579,0.40593 0.90625,0.90625 6.2e-4,0.50109 -0.40517,0.90775 -0.90625,0.90821 -0.50184,6.2e-4 -0.90882,-0.40636 -0.9082,-0.90821 4.6e-4,-0.50108 0.40712,-0.90687 0.9082,-0.90625 z m 3.7793,0 c 0.50032,4.6e-4 0.90579,0.40593 0.90625,0.90625 6.2e-4,0.50109 -0.40517,0.90775 -0.90625,0.90821 -0.50108,-4.6e-4 -0.90687,-0.40712 -0.90625,-0.90821 4.6e-4,-0.50032 0.40593,-0.90579 0.90625,-0.90625 z m 3.7793,0 c 0.50107,-6.2e-4 0.90774,0.40517 0.9082,0.90625 6.2e-4,0.50185 -0.40637,0.90883 -0.9082,0.90821 -0.50109,-4.6e-4 -0.90687,-0.40712 -0.90625,-0.90821 4.6e-4,-0.50032 0.40592,-0.90579 0.90625,-0.90625 z m 3.77929,0 c 0.50108,-6.2e-4 0.90775,0.40517 0.90821,0.90625 6.2e-4,0.50185 -0.40636,0.90883 -0.90821,0.90821 -0.50108,-4.6e-4 -0.90687,-0.40712 -0.90625,-0.90821 4.6e-4,-0.50032 0.40593,-0.90579 0.90625,-0.90625 z m 3.7793,0 c 0.50108,-6.2e-4 0.90775,0.40517 0.9082,0.90625 6.2e-4,0.50185 -0.40636,0.90883 -0.9082,0.90821 -0.50108,-4.6e-4 -0.90687,-0.40712 -0.90625,-0.90821 4.6e-4,-0.50032 0.40593,-0.90579 0.90625,-0.90625 z m 3.7793,0 c 0.50108,-6.2e-4 0.90774,0.40517 0.9082,0.90625 6.2e-4,0.50185 -0.40636,0.90883 -0.9082,0.90821 -0.50108,-4.6e-4 -0.90687,-0.40712 -0.90625,-0.90821 4.6e-4,-0.50032 0.40593,-0.90579 0.90625,-0.90625 z m 3.78125,0 c 0.50032,4.6e-4 0.90579,0.40593 0.90625,0.90625 6.2e-4,0.50109 -0.40517,0.90775 -0.90625,0.90821 -0.50185,6.2e-4 -0.90883,-0.40636 -0.90821,-0.90821 4.6e-4,-0.50108 0.40713,-0.90687 0.90821,-0.90625 z m 3.77929,0 c 0.50033,4.6e-4 0.90579,0.40593 0.90625,0.90625 6.2e-4,0.50109 -0.40516,0.90775 -0.90625,0.90821 -0.50183,6.2e-4 -0.90882,-0.40636 -0.9082,-0.90821 4.6e-4,-0.50108 0.40713,-0.90687 0.9082,-0.90625 z m 3.7793,0 c 0.50032,4.6e-4 0.90579,0.40593 0.90625,0.90625 6.2e-4,0.50109 -0.40517,0.90775 -0.90625,0.90821 -0.50184,6.2e-4 -0.90882,-0.40636 -0.9082,-0.90821 4.6e-4,-0.50108 0.40712,-0.90687 0.9082,-0.90625 z m 3.7793,0 c 0.50032,4.6e-4 0.90579,0.40593 0.90625,0.90625 6.2e-4,0.50109 -0.40517,0.90775 -0.90625,0.90821 -0.50108,-4.6e-4 -0.90687,-0.40712 -0.90625,-0.90821 4.6e-4,-0.50032 0.40593,-0.90579 0.90625,-0.90625 z m -143.623049,3.7793 c 0.501078,-6.2e-4 0.907738,0.40517 0.908203,0.90625 6.16e-4,0.50184 -0.406361,0.90882 -0.908203,0.9082 -0.501079,-4.6e-4 -0.906866,-0.40712 -0.90625,-0.9082 4.61e-4,-0.50032 0.405935,-0.90579 0.90625,-0.90625 z m 3.78125,0 c 0.500318,4.6e-4 0.905789,0.40593 0.90625,0.90625 6.12e-4,0.50108 -0.405172,0.90774 -0.90625,0.9082 -0.501842,6.2e-4 -0.90882,-0.40636 -0.908203,-0.9082 4.6e-4,-0.50108 0.407124,-0.90687 0.908203,-0.90625 z m 3.779297,0 c 0.500317,4.6e-4 0.905788,0.40593 0.90625,0.90625 6.11e-4,0.50108 -0.405173,0.90774 -0.90625,0.9082 -0.501842,6.2e-4 -0.90882,-0.40636 -0.908204,-0.9082 4.65e-4,-0.50108 0.407125,-0.90687 0.908204,-0.90625 z m 3.779296,0 c 0.500315,4.6e-4 0.905789,0.40593 0.90625,0.90625 6.16e-4,0.50108 -0.405171,0.90774 -0.90625,0.9082 -0.501842,6.2e-4 -0.908819,-0.40636 -0.908203,-0.9082 4.65e-4,-0.50108 0.407125,-0.90687 0.908203,-0.90625 z m 3.779297,0 c 0.500315,4.6e-4 0.905789,0.40593 0.90625,0.90625 6.16e-4,0.50108 -0.405171,0.90774 -0.90625,0.9082 -0.501078,-4.6e-4 -0.906866,-0.40712 -0.90625,-0.9082 4.61e-4,-0.50032 0.405932,-0.90579 0.90625,-0.90625 z m 3.779299,0 c 0.50032,4.6e-4 0.90579,0.40593 0.90625,0.90625 6.2e-4,0.50108 -0.40517,0.90774 -0.90625,0.9082 -0.501082,-4.6e-4 -0.906868,-0.40712 -0.906252,-0.9082 4.61e-4,-0.50032 0.405929,-0.90579 0.906252,-0.90625 z m 3.7793,0 c 0.50106,-6.2e-4 0.90774,0.40517 0.9082,0.90625 6.2e-4,0.50184 -0.40638,0.90882 -0.9082,0.9082 -0.50108,-4.6e-4 -0.90686,-0.40712 -0.90626,-0.9082 4.6e-4,-0.50032 0.40594,-0.90579 0.90626,-0.90625 z m 3.77929,0 c 0.50108,-6.2e-4 0.90775,0.40517 0.90821,0.90625 6e-4,0.50184 -0.40637,0.90882 -0.90821,0.9082 -0.50108,-4.6e-4 -0.90687,-0.40712 -0.90625,-0.9082 4.6e-4,-0.50032 0.40593,-0.90579 0.90625,-0.90625 z m 86.92969,0 c 0.50032,4.6e-4 0.90579,0.40593 0.90625,0.90625 6.2e-4,0.50108 -0.40517,0.90774 -0.90625,0.9082 -0.50108,-4.6e-4 -0.90687,-0.40712 -0.90625,-0.9082 4.6e-4,-0.50032 0.40593,-0.90579 0.90625,-0.90625 z m 3.7793,0 c 0.50107,-6.2e-4 0.90774,0.40517 0.9082,0.90625 6.2e-4,0.50184 -0.40637,0.90882 -0.9082,0.9082 -0.50109,-4.6e-4 -0.90687,-0.40712 -0.90625,-0.9082 4.6e-4,-0.50032 0.40592,-0.90579 0.90625,-0.90625 z m 3.77929,0 c 0.50108,-6.2e-4 0.90775,0.40517 0.90821,0.90625 6.2e-4,0.50184 -0.40637,0.90882 -0.90821,0.9082 -0.50108,-4.6e-4 -0.90687,-0.40712 -0.90625,-0.9082 4.6e-4,-0.50032 0.40593,-0.90579 0.90625,-0.90625 z m 3.7793,0 c 0.50108,-6.2e-4 0.90775,0.40517 0.9082,0.90625 6.2e-4,0.50184 -0.40636,0.90882 -0.9082,0.9082 -0.50108,-4.6e-4 -0.90687,-0.40712 -0.90625,-0.9082 4.6e-4,-0.50032 0.40593,-0.90579 0.90625,-0.90625 z m 3.7793,0 c 0.50108,-6.2e-4 0.90774,0.40517 0.9082,0.90625 6.2e-4,0.50184 -0.40636,0.90882 -0.9082,0.9082 -0.50108,-4.6e-4 -0.90687,-0.40712 -0.90625,-0.9082 4.6e-4,-0.50032 0.40593,-0.90579 0.90625,-0.90625 z m 3.78125,0 c 0.50032,4.6e-4 0.90579,0.40593 0.90625,0.90625 6.2e-4,0.50108 -0.40517,0.90774 -0.90625,0.9082 -0.50184,6.2e-4 -0.90883,-0.40636 -0.90821,-0.9082 4.6e-4,-0.50108 0.40713,-0.90687 0.90821,-0.90625 z m 3.77929,0 c 0.50033,4.6e-4 0.90579,0.40593 0.90625,0.90625 6.2e-4,0.50108 -0.40516,0.90774 -0.90625,0.9082 -0.50183,6.2e-4 -0.90882,-0.40636 -0.9082,-0.9082 4.6e-4,-0.50108 0.40713,-0.90687 0.9082,-0.90625 z m 3.7793,0 c 0.50032,4.6e-4 0.90579,0.40593 0.90625,0.90625 6.2e-4,0.50108 -0.40517,0.90774 -0.90625,0.9082 -0.50184,6.2e-4 -0.90882,-0.40636 -0.9082,-0.9082 4.6e-4,-0.50108 0.40712,-0.90687 0.9082,-0.90625 z m -143.623046,3.7793 c 0.501842,-6.2e-4 0.908819,0.40636 0.908203,0.9082 -4.65e-4,0.50108 -0.407125,0.90687 -0.908203,0.90625 -0.500315,-4.6e-4 -0.905789,-0.40593 -0.90625,-0.90625 -6.16e-4,-0.50108 0.405171,-0.90774 0.90625,-0.9082 z m 3.779297,0 c 0.501842,-6.2e-4 0.908819,0.40636 0.908203,0.9082 -4.65e-4,0.50108 -0.407125,0.90687 -0.908203,0.90625 -0.500315,-4.6e-4 -0.905789,-0.40593 -0.90625,-0.90625 -6.16e-4,-0.50108 0.405171,-0.90774 0.90625,-0.9082 z m 3.78125,0 c 0.501078,4.6e-4 0.906862,0.40712 0.90625,0.9082 -4.61e-4,0.50032 -0.405932,0.90579 -0.90625,0.90625 -0.501079,6.2e-4 -0.907743,-0.40517 -0.908203,-0.90625 -6.17e-4,-0.50184 0.406361,-0.90882 0.908203,-0.9082 z m 3.779297,0 c 0.501077,4.6e-4 0.906861,0.40712 0.90625,0.9082 -4.62e-4,0.50032 -0.405933,0.90579 -0.90625,0.90625 -0.501079,6.2e-4 -0.907739,-0.40517 -0.908204,-0.90625 -6.16e-4,-0.50184 0.406362,-0.90882 0.908204,-0.9082 z m 3.779296,0 c 0.501079,4.6e-4 0.906866,0.40712 0.90625,0.9082 -4.61e-4,0.50032 -0.405935,0.90579 -0.90625,0.90625 -0.501078,6.2e-4 -0.907738,-0.40517 -0.908203,-0.90625 -6.16e-4,-0.50184 0.406361,-0.90882 0.908203,-0.9082 z m 3.779297,0 c 0.501079,4.6e-4 0.906866,0.40712 0.90625,0.9082 -4.61e-4,0.50032 -0.405935,0.90579 -0.90625,0.90625 -0.500318,-4.6e-4 -0.905789,-0.40593 -0.90625,-0.90625 -6.16e-4,-0.50108 0.405172,-0.90774 0.90625,-0.9082 z m 3.779299,0 c 0.50108,4.6e-4 0.90687,0.40712 0.90625,0.9082 -4.6e-4,0.50032 -0.40593,0.90579 -0.90625,0.90625 -0.500323,-4.6e-4 -0.905791,-0.40593 -0.906252,-0.90625 -6.16e-4,-0.50108 0.40517,-0.90774 0.906252,-0.9082 z m 3.7793,0 c 0.50182,-6.2e-4 0.90882,0.40636 0.9082,0.9082 -4.6e-4,0.50108 -0.40714,0.90687 -0.9082,0.90625 -0.50032,-4.6e-4 -0.9058,-0.40593 -0.90626,-0.90625 -6e-4,-0.50108 0.40518,-0.90774 0.90626,-0.9082 z m 3.77929,0 c 0.50184,-6.2e-4 0.90881,0.40636 0.90821,0.9082 -4.6e-4,0.50108 -0.40713,0.90687 -0.90821,0.90625 -0.50032,-4.6e-4 -0.90579,-0.40593 -0.90625,-0.90625 -6.2e-4,-0.50108 0.40517,-0.90774 0.90625,-0.9082 z m 3.7793,0 c 0.50184,-6.2e-4 0.90883,0.40636 0.9082,0.9082 -4.6e-4,0.50108 -0.40712,0.90687 -0.9082,0.90625 -0.50032,-4.6e-4 -0.90579,-0.40593 -0.90625,-0.90625 -6.2e-4,-0.50108 0.40517,-0.90774 0.90625,-0.9082 z m 79.37109,0 c 0.50108,4.6e-4 0.90687,0.40712 0.90625,0.9082 -4.6e-4,0.50032 -0.40592,0.90579 -0.90625,0.90625 -0.50108,6.2e-4 -0.90774,-0.40517 -0.9082,-0.90625 -6.2e-4,-0.50184 0.40636,-0.90882 0.9082,-0.9082 z m 3.7793,0 c 0.50108,4.6e-4 0.90687,0.40712 0.90625,0.9082 -4.6e-4,0.50032 -0.40593,0.90579 -0.90625,0.90625 -0.50032,-4.6e-4 -0.90579,-0.40593 -0.90625,-0.90625 -6.2e-4,-0.50108 0.40517,-0.90774 0.90625,-0.9082 z m 3.7793,0 c 0.50183,-6.2e-4 0.90882,0.40636 0.9082,0.9082 -4.6e-4,0.50108 -0.40713,0.90687 -0.9082,0.90625 -0.50033,-4.6e-4 -0.90579,-0.40593 -0.90625,-0.90625 -6.2e-4,-0.50108 0.40516,-0.90774 0.90625,-0.9082 z m 3.77929,0 c 0.50184,-6.2e-4 0.90883,0.40636 0.90821,0.9082 -4.6e-4,0.50108 -0.40713,0.90687 -0.90821,0.90625 -0.50032,-4.6e-4 -0.90579,-0.40593 -0.90625,-0.90625 -6.2e-4,-0.50108 0.40517,-0.90774 0.90625,-0.9082 z m 3.7793,0 c 0.50184,-6.2e-4 0.90882,0.40636 0.9082,0.9082 -4.5e-4,0.50108 -0.40712,0.90687 -0.9082,0.90625 -0.50032,-4.6e-4 -0.90579,-0.40593 -0.90625,-0.90625 -6.2e-4,-0.50108 0.40517,-0.90774 0.90625,-0.9082 z m 3.7793,0 c 0.50184,-6.2e-4 0.90882,0.40636 0.9082,0.9082 -4.6e-4,0.50108 -0.40712,0.90687 -0.9082,0.90625 -0.50032,-4.6e-4 -0.90579,-0.40593 -0.90625,-0.90625 -6.2e-4,-0.50108 0.40517,-0.90774 0.90625,-0.9082 z m 3.78125,0 c 0.50108,4.6e-4 0.90687,0.40712 0.90625,0.9082 -4.6e-4,0.50032 -0.40593,0.90579 -0.90625,0.90625 -0.50108,6.2e-4 -0.90775,-0.40517 -0.90821,-0.90625 -6.2e-4,-0.50184 0.40637,-0.90882 0.90821,-0.9082 z m 3.77929,0 c 0.50109,4.6e-4 0.90687,0.40712 0.90625,0.9082 -4.6e-4,0.50032 -0.40592,0.90579 -0.90625,0.90625 -0.50107,6.2e-4 -0.90774,-0.40517 -0.9082,-0.90625 -6.2e-4,-0.50184 0.40637,-0.90882 0.9082,-0.9082 z m 3.7793,0 c 0.50108,4.6e-4 0.90687,0.40712 0.90625,0.9082 -4.6e-4,0.50032 -0.40593,0.90579 -0.90625,0.90625 -0.50108,6.2e-4 -0.90774,-0.40517 -0.9082,-0.90625 -6.2e-4,-0.50184 0.40636,-0.90882 0.9082,-0.9082 z m 3.7793,0 c 0.50108,4.6e-4 0.90687,0.40712 0.90625,0.9082 -4.6e-4,0.50032 -0.40593,0.90579 -0.90625,0.90625 -0.50032,-4.6e-4 -0.90579,-0.40593 -0.90625,-0.90625 -6.2e-4,-0.50108 0.40517,-0.90774 0.90625,-0.9082 z m -143.623049,3.77929 c 0.501845,-6.2e-4 0.908823,0.40635 0.908203,0.90821 -4.65e-4,0.50108 -0.407125,0.90687 -0.908203,0.90625 -0.500315,-4.6e-4 -0.905789,-0.40593 -0.90625,-0.90625 -6.24e-4,-0.50109 0.405167,-0.90775 0.90625,-0.90821 z m 3.78125,0 c 0.501082,4.6e-4 0.906869,0.40712 0.90625,0.90821 -4.61e-4,0.50032 -0.405932,0.90579 -0.90625,0.90625 -0.501079,6.2e-4 -0.907743,-0.40517 -0.908203,-0.90625 -6.24e-4,-0.50186 0.406357,-0.90883 0.908203,-0.90821 z m 3.779297,0 c 0.501081,4.6e-4 0.906868,0.40712 0.90625,0.90821 -4.62e-4,0.50032 -0.405933,0.90579 -0.90625,0.90625 -0.501079,6.2e-4 -0.907739,-0.40517 -0.908204,-0.90625 -6.19e-4,-0.50186 0.406358,-0.90883 0.908204,-0.90821 z m 3.779296,0 c 0.501083,4.6e-4 0.906874,0.40712 0.90625,0.90821 -4.61e-4,0.50032 -0.405935,0.90579 -0.90625,0.90625 -0.501078,6.2e-4 -0.907738,-0.40517 -0.908203,-0.90625 -6.2e-4,-0.50186 0.406358,-0.90883 0.908203,-0.90821 z m 3.779297,0 c 0.501082,4.6e-4 0.906874,0.40712 0.90625,0.90821 -4.61e-4,0.50032 -0.405935,0.90579 -0.90625,0.90625 -0.500318,-4.6e-4 -0.905789,-0.40593 -0.90625,-0.90625 -6.2e-4,-0.50109 0.405168,-0.90775 0.90625,-0.90821 z m 3.779299,0 c 0.50108,4.6e-4 0.90687,0.40712 0.90625,0.90821 -4.6e-4,0.50032 -0.40593,0.90579 -0.90625,0.90625 -0.500323,-4.6e-4 -0.905791,-0.40593 -0.906252,-0.90625 -6.2e-4,-0.50109 0.405166,-0.90775 0.906252,-0.90821 z m 3.7793,0 c 0.50182,-6.2e-4 0.90882,0.40636 0.9082,0.90821 -4.6e-4,0.50108 -0.40714,0.90687 -0.9082,0.90625 -0.50032,-4.6e-4 -0.9058,-0.40593 -0.90626,-0.90625 -6e-4,-0.5011 0.40517,-0.90775 0.90626,-0.90821 z m 3.77929,0 c 0.50185,-6.2e-4 0.90881,0.40635 0.90821,0.90821 -4.6e-4,0.50108 -0.40713,0.90687 -0.90821,0.90625 -0.50032,-4.6e-4 -0.90579,-0.40593 -0.90625,-0.90625 -6.2e-4,-0.50109 0.40517,-0.90775 0.90625,-0.90821 z m 86.92969,0 c 0.50108,4.6e-4 0.90687,0.40712 0.90625,0.90821 -4.6e-4,0.50032 -0.40593,0.90579 -0.90625,0.90625 -0.50032,-4.6e-4 -0.90579,-0.40593 -0.90625,-0.90625 -6.2e-4,-0.50109 0.40517,-0.90775 0.90625,-0.90821 z m 3.7793,0 c 0.50183,-6.2e-4 0.90882,0.40636 0.9082,0.90821 -4.6e-4,0.50108 -0.40713,0.90687 -0.9082,0.90625 -0.50033,-4.6e-4 -0.90579,-0.40593 -0.90625,-0.90625 -6.2e-4,-0.50109 0.40516,-0.90775 0.90625,-0.90821 z m 3.77929,0 c 0.50185,-6.2e-4 0.90883,0.40635 0.90821,0.90821 -4.6e-4,0.50108 -0.40713,0.90687 -0.90821,0.90625 -0.50032,-4.6e-4 -0.90579,-0.40593 -0.90625,-0.90625 -6.2e-4,-0.50109 0.40517,-0.90775 0.90625,-0.90821 z m 3.7793,0 c 0.50184,-6.2e-4 0.90882,0.40636 0.9082,0.90821 -4.5e-4,0.50108 -0.40712,0.90687 -0.9082,0.90625 -0.50032,-4.6e-4 -0.90579,-0.40593 -0.90625,-0.90625 -6.2e-4,-0.50109 0.40517,-0.90775 0.90625,-0.90821 z m 3.7793,0 c 0.50184,-6.2e-4 0.90882,0.40636 0.9082,0.90821 -4.6e-4,0.50108 -0.40712,0.90687 -0.9082,0.90625 -0.50032,-4.6e-4 -0.90579,-0.40593 -0.90625,-0.90625 -6.2e-4,-0.50109 0.40517,-0.90775 0.90625,-0.90821 z m 3.78125,0 c 0.50108,4.6e-4 0.90687,0.40712 0.90625,0.90821 -4.6e-4,0.50032 -0.40593,0.90579 -0.90625,0.90625 -0.50108,6.2e-4 -0.90775,-0.40517 -0.90821,-0.90625 -6.2e-4,-0.50186 0.40636,-0.90883 0.90821,-0.90821 z m 3.77929,0 c 0.50109,4.6e-4 0.90687,0.40712 0.90625,0.90821 -4.6e-4,0.50032 -0.40592,0.90579 -0.90625,0.90625 -0.50107,6.2e-4 -0.90774,-0.40517 -0.9082,-0.90625 -6.2e-4,-0.50185 0.40637,-0.90883 0.9082,-0.90821 z m 3.7793,0 c 0.50108,4.6e-4 0.90687,0.40712 0.90625,0.90821 -4.6e-4,0.50032 -0.40593,0.90579 -0.90625,0.90625 -0.50108,6.2e-4 -0.90774,-0.40517 -0.9082,-0.90625 -6.2e-4,-0.50185 0.40636,-0.90883 0.9082,-0.90821 z m -143.623046,3.7793 c 0.501842,-6.2e-4 0.908819,0.40636 0.908203,0.9082 -4.65e-4,0.50108 -0.407125,0.90687 -0.908203,0.90625 -0.500315,-4.5e-4 -0.905789,-0.40593 -0.90625,-0.90625 -6.16e-4,-0.50108 0.405171,-0.90774 0.90625,-0.9082 z m 3.779297,0 c 0.501842,-6.2e-4 0.908819,0.40636 0.908203,0.9082 -4.65e-4,0.50108 -0.407125,0.90687 -0.908203,0.90625 -0.500315,-4.5e-4 -0.905789,-0.40593 -0.90625,-0.90625 -6.16e-4,-0.50108 0.405171,-0.90774 0.90625,-0.9082 z m 3.78125,0 c 0.501078,4.6e-4 0.906862,0.40712 0.90625,0.9082 -4.61e-4,0.50032 -0.405932,0.9058 -0.90625,0.90625 -0.501079,6.2e-4 -0.907743,-0.40517 -0.908203,-0.90625 -6.17e-4,-0.50184 0.406361,-0.90882 0.908203,-0.9082 z m 3.779297,0 c 0.501077,4.6e-4 0.906861,0.40712 0.90625,0.9082 -4.62e-4,0.50032 -0.405933,0.9058 -0.90625,0.90625 -0.501079,6.2e-4 -0.907739,-0.40517 -0.908204,-0.90625 -6.16e-4,-0.50184 0.406362,-0.90882 0.908204,-0.9082 z m 3.779296,0 c 0.501079,4.6e-4 0.906866,0.40712 0.90625,0.9082 -4.61e-4,0.50032 -0.405935,0.9058 -0.90625,0.90625 -0.501078,6.2e-4 -0.907738,-0.40517 -0.908203,-0.90625 -6.16e-4,-0.50184 0.406361,-0.90882 0.908203,-0.9082 z m 3.779297,0 c 0.501079,4.6e-4 0.906866,0.40712 0.90625,0.9082 -4.61e-4,0.50032 -0.405935,0.9058 -0.90625,0.90625 -0.500318,-4.5e-4 -0.905789,-0.40593 -0.90625,-0.90625 -6.16e-4,-0.50108 0.405172,-0.90774 0.90625,-0.9082 z m 3.779299,0 c 0.50108,4.6e-4 0.90687,0.40712 0.90625,0.9082 -4.6e-4,0.50032 -0.40593,0.9058 -0.90625,0.90625 -0.500323,-4.5e-4 -0.905791,-0.40593 -0.906252,-0.90625 -6.16e-4,-0.50108 0.40517,-0.90774 0.906252,-0.9082 z m 3.7793,0 c 0.50182,-6.2e-4 0.90882,0.40636 0.9082,0.9082 -4.6e-4,0.50108 -0.40714,0.90687 -0.9082,0.90625 -0.50032,-4.5e-4 -0.9058,-0.40593 -0.90626,-0.90625 -6e-4,-0.50108 0.40518,-0.90774 0.90626,-0.9082 z m 3.77929,0 c 0.50184,-6.2e-4 0.90881,0.40636 0.90821,0.9082 -4.6e-4,0.50108 -0.40713,0.90687 -0.90821,0.90625 -0.50032,-4.5e-4 -0.90579,-0.40593 -0.90625,-0.90625 -6.2e-4,-0.50108 0.40517,-0.90774 0.90625,-0.9082 z m 3.7793,0 c 0.50184,-6.2e-4 0.90883,0.40636 0.9082,0.9082 -4.6e-4,0.50108 -0.40712,0.90687 -0.9082,0.90625 -0.50032,-4.5e-4 -0.90579,-0.40593 -0.90625,-0.90625 -6.2e-4,-0.50108 0.40517,-0.90774 0.90625,-0.9082 z m 79.37109,0 c 0.50108,4.6e-4 0.90687,0.40712 0.90625,0.9082 -4.6e-4,0.50032 -0.40592,0.9058 -0.90625,0.90625 -0.50108,6.2e-4 -0.90774,-0.40517 -0.9082,-0.90625 -6.2e-4,-0.50184 0.40636,-0.90882 0.9082,-0.9082 z m 3.7793,0 c 0.50108,4.6e-4 0.90687,0.40712 0.90625,0.9082 -4.6e-4,0.50032 -0.40593,0.9058 -0.90625,0.90625 -0.50032,-4.5e-4 -0.90579,-0.40593 -0.90625,-0.90625 -6.2e-4,-0.50108 0.40517,-0.90774 0.90625,-0.9082 z m 3.7793,0 c 0.50183,-6.2e-4 0.90882,0.40636 0.9082,0.9082 -4.6e-4,0.50108 -0.40713,0.90687 -0.9082,0.90625 -0.50033,-4.5e-4 -0.90579,-0.40593 -0.90625,-0.90625 -6.2e-4,-0.50108 0.40516,-0.90774 0.90625,-0.9082 z m 3.77929,0 c 0.50184,-6.2e-4 0.90883,0.40636 0.90821,0.9082 -4.6e-4,0.50108 -0.40713,0.90687 -0.90821,0.90625 -0.50032,-4.5e-4 -0.90579,-0.40593 -0.90625,-0.90625 -6.2e-4,-0.50108 0.40517,-0.90774 0.90625,-0.9082 z m 3.7793,0 c 0.50184,-6.2e-4 0.90882,0.40636 0.9082,0.9082 -4.5e-4,0.50108 -0.40712,0.90687 -0.9082,0.90625 -0.50032,-4.5e-4 -0.90579,-0.40593 -0.90625,-0.90625 -6.2e-4,-0.50108 0.40517,-0.90774 0.90625,-0.9082 z m 3.7793,0 c 0.50184,-6.2e-4 0.90882,0.40636 0.9082,0.9082 -4.6e-4,0.50108 -0.40712,0.90687 -0.9082,0.90625 -0.50032,-4.5e-4 -0.90579,-0.40593 -0.90625,-0.90625 -6.2e-4,-0.50108 0.40517,-0.90774 0.90625,-0.9082 z m 3.78125,0 c 0.50108,4.6e-4 0.90687,0.40712 0.90625,0.9082 -4.6e-4,0.50032 -0.40593,0.9058 -0.90625,0.90625 -0.50108,6.2e-4 -0.90775,-0.40517 -0.90821,-0.90625 -6.2e-4,-0.50184 0.40637,-0.90882 0.90821,-0.9082 z m 3.77929,0 c 0.50109,4.6e-4 0.90687,0.40712 0.90625,0.9082 -4.6e-4,0.50032 -0.40592,0.9058 -0.90625,0.90625 -0.50107,6.2e-4 -0.90774,-0.40517 -0.9082,-0.90625 -6.2e-4,-0.50184 0.40637,-0.90882 0.9082,-0.9082 z m 3.7793,0 c 0.50108,4.6e-4 0.90687,0.40712 0.90625,0.9082 -4.6e-4,0.50032 -0.40593,0.9058 -0.90625,0.90625 -0.50108,6.2e-4 -0.90774,-0.40517 -0.9082,-0.90625 -6.2e-4,-0.50184 0.40636,-0.90882 0.9082,-0.9082 z m 3.7793,0 c 0.50108,4.6e-4 0.90687,0.40712 0.90625,0.9082 -4.6e-4,0.50032 -0.40593,0.9058 -0.90625,0.90625 -0.50032,-4.5e-4 -0.90579,-0.40593 -0.90625,-0.90625 -6.2e-4,-0.50108 0.40517,-0.90774 0.90625,-0.9082 z m -143.623049,3.7793 c 0.501842,-6.2e-4 0.908819,0.40636 0.908203,0.9082 -4.65e-4,0.50108 -0.407125,0.90687 -0.908203,0.90625 -0.500315,-4.6e-4 -0.905789,-0.40593 -0.90625,-0.90625 -6.16e-4,-0.50108 0.405171,-0.90774 0.90625,-0.9082 z m 3.78125,0 c 0.501078,4.6e-4 0.906862,0.40712 0.90625,0.9082 -4.61e-4,0.50032 -0.405932,0.90579 -0.90625,0.90625 -0.501079,6.2e-4 -0.907743,-0.40517 -0.908203,-0.90625 -6.17e-4,-0.50184 0.406361,-0.90882 0.908203,-0.9082 z m 3.779297,0 c 0.501077,4.6e-4 0.906861,0.40712 0.90625,0.9082 -4.62e-4,0.50032 -0.405933,0.90579 -0.90625,0.90625 -0.501079,6.2e-4 -0.907739,-0.40517 -0.908204,-0.90625 -6.16e-4,-0.50184 0.406362,-0.90882 0.908204,-0.9082 z m 3.779296,0 c 0.501079,4.6e-4 0.906866,0.40712 0.90625,0.9082 -4.61e-4,0.50032 -0.405935,0.90579 -0.90625,0.90625 -0.501078,6.2e-4 -0.907738,-0.40517 -0.908203,-0.90625 -6.16e-4,-0.50184 0.406361,-0.90882 0.908203,-0.9082 z m 3.779297,0 c 0.501079,4.6e-4 0.906866,0.40712 0.90625,0.9082 -4.61e-4,0.50032 -0.405935,0.90579 -0.90625,0.90625 -0.500318,-4.6e-4 -0.905789,-0.40593 -0.90625,-0.90625 -6.16e-4,-0.50108 0.405172,-0.90774 0.90625,-0.9082 z m 3.779299,0 c 0.50108,4.6e-4 0.90687,0.40712 0.90625,0.9082 -4.6e-4,0.50032 -0.40593,0.90579 -0.90625,0.90625 -0.500323,-4.6e-4 -0.905791,-0.40593 -0.906252,-0.90625 -6.16e-4,-0.50108 0.40517,-0.90774 0.906252,-0.9082 z m 3.7793,0 c 0.50182,-6.2e-4 0.90882,0.40636 0.9082,0.9082 -4.6e-4,0.50108 -0.40714,0.90687 -0.9082,0.90625 -0.50032,-4.6e-4 -0.9058,-0.40593 -0.90626,-0.90625 -6e-4,-0.50108 0.40518,-0.90774 0.90626,-0.9082 z m 3.77929,0 c 0.50184,-6.2e-4 0.90881,0.40636 0.90821,0.9082 -4.6e-4,0.50108 -0.40713,0.90687 -0.90821,0.90625 -0.50032,-4.6e-4 -0.90579,-0.40593 -0.90625,-0.90625 -6.2e-4,-0.50108 0.40517,-0.90774 0.90625,-0.9082 z m 86.92969,0 c 0.50108,4.6e-4 0.90687,0.40712 0.90625,0.9082 -4.6e-4,0.50032 -0.40593,0.90579 -0.90625,0.90625 -0.50032,-4.6e-4 -0.90579,-0.40593 -0.90625,-0.90625 -6.2e-4,-0.50108 0.40517,-0.90774 0.90625,-0.9082 z m 3.7793,0 c 0.50183,-6.2e-4 0.90882,0.40636 0.9082,0.9082 -4.6e-4,0.50108 -0.40713,0.90687 -0.9082,0.90625 -0.50033,-4.6e-4 -0.90579,-0.40593 -0.90625,-0.90625 -6.2e-4,-0.50108 0.40516,-0.90774 0.90625,-0.9082 z m 3.77929,0 c 0.50184,-6.2e-4 0.90883,0.40636 0.90821,0.9082 -4.6e-4,0.50108 -0.40713,0.90687 -0.90821,0.90625 -0.50032,-4.6e-4 -0.90579,-0.40593 -0.90625,-0.90625 -6.2e-4,-0.50108 0.40517,-0.90774 0.90625,-0.9082 z m 3.7793,0 c 0.50184,-6.2e-4 0.90882,0.40636 0.9082,0.9082 -4.5e-4,0.50108 -0.40712,0.90687 -0.9082,0.90625 -0.50032,-4.6e-4 -0.90579,-0.40593 -0.90625,-0.90625 -6.2e-4,-0.50108 0.40517,-0.90774 0.90625,-0.9082 z m 3.7793,0 c 0.50184,-6.2e-4 0.90882,0.40636 0.9082,0.9082 -4.6e-4,0.50108 -0.40712,0.90687 -0.9082,0.90625 -0.50032,-4.6e-4 -0.90579,-0.40593 -0.90625,-0.90625 -6.2e-4,-0.50108 0.40517,-0.90774 0.90625,-0.9082 z m 3.78125,0 c 0.50108,4.6e-4 0.90687,0.40712 0.90625,0.9082 -4.6e-4,0.50032 -0.40593,0.90579 -0.90625,0.90625 -0.50108,6.2e-4 -0.90775,-0.40517 -0.90821,-0.90625 -6.2e-4,-0.50184 0.40637,-0.90882 0.90821,-0.9082 z m 3.77929,0 c 0.50109,4.6e-4 0.90687,0.40712 0.90625,0.9082 -4.6e-4,0.50032 -0.40592,0.90579 -0.90625,0.90625 -0.50107,6.2e-4 -0.90774,-0.40517 -0.9082,-0.90625 -6.2e-4,-0.50184 0.40637,-0.90882 0.9082,-0.9082 z m 3.7793,0 c 0.50108,4.6e-4 0.90687,0.40712 0.90625,0.9082 -4.6e-4,0.50032 -0.40593,0.90579 -0.90625,0.90625 -0.50108,6.2e-4 -0.90774,-0.40517 -0.9082,-0.90625 -6.2e-4,-0.50184 0.40636,-0.90882 0.9082,-0.9082 z m -136.062499,3.78125 c 0.500318,4.5e-4 0.905789,0.40593 0.90625,0.90625 -4.61e-4,0.50032 -0.405932,0.90579 -0.90625,0.90625 -0.501079,6.2e-4 -0.907743,-0.40517 -0.908203,-0.90625 4.6e-4,-0.50108 0.407124,-0.90687 0.908203,-0.90625 z m 3.779297,0 c 0.500317,4.5e-4 0.905788,0.40593 0.90625,0.90625 -4.62e-4,0.50032 -0.405933,0.90579 -0.90625,0.90625 -0.501079,6.2e-4 -0.907739,-0.40517 -0.908204,-0.90625 4.65e-4,-0.50108 0.407125,-0.90687 0.908204,-0.90625 z m 3.779296,0 c 0.500315,4.5e-4 0.905789,0.40593 0.90625,0.90625 -4.61e-4,0.50032 -0.405935,0.90579 -0.90625,0.90625 -0.501078,6.2e-4 -0.907738,-0.40517 -0.908203,-0.90625 4.65e-4,-0.50108 0.407125,-0.90687 0.908203,-0.90625 z m 3.779297,0 c 0.500315,4.5e-4 0.905789,0.40593 0.90625,0.90625 -4.61e-4,0.50032 -0.405935,0.90579 -0.90625,0.90625 -0.500318,-4.6e-4 -0.905789,-0.40593 -0.90625,-0.90625 4.61e-4,-0.50032 0.405932,-0.9058 0.90625,-0.90625 z m 3.779299,0 c 0.50032,4.5e-4 0.90579,0.40593 0.90625,0.90625 -4.6e-4,0.50032 -0.40593,0.90579 -0.90625,0.90625 -0.500323,-4.6e-4 -0.905791,-0.40593 -0.906252,-0.90625 4.61e-4,-0.50032 0.405929,-0.9058 0.906252,-0.90625 z m 3.7793,0 c 0.50106,-6.2e-4 0.90774,0.40517 0.9082,0.90625 -4.6e-4,0.50108 -0.40714,0.90687 -0.9082,0.90625 -0.50032,-4.6e-4 -0.9058,-0.40593 -0.90626,-0.90625 4.6e-4,-0.50032 0.40594,-0.9058 0.90626,-0.90625 z m 94.48828,0 c 0.50107,-6.2e-4 0.90774,0.40517 0.9082,0.90625 -4.6e-4,0.50108 -0.40713,0.90687 -0.9082,0.90625 -0.50033,-4.6e-4 -0.90579,-0.40593 -0.90625,-0.90625 4.6e-4,-0.50032 0.40592,-0.9058 0.90625,-0.90625 z m 3.77929,0 c 0.50108,-6.2e-4 0.90775,0.40517 0.90821,0.90625 -4.6e-4,0.50108 -0.40713,0.90687 -0.90821,0.90625 -0.50032,-4.6e-4 -0.90579,-0.40593 -0.90625,-0.90625 4.6e-4,-0.50032 0.40593,-0.9058 0.90625,-0.90625 z m 3.7793,0 c 0.50108,-6.2e-4 0.90775,0.40517 0.9082,0.90625 -4.5e-4,0.50108 -0.40712,0.90687 -0.9082,0.90625 -0.50032,-4.6e-4 -0.90579,-0.40593 -0.90625,-0.90625 4.6e-4,-0.50032 0.40593,-0.9058 0.90625,-0.90625 z m 3.7793,0 c 0.50108,-6.2e-4 0.90774,0.40517 0.9082,0.90625 -4.6e-4,0.50108 -0.40712,0.90687 -0.9082,0.90625 -0.50032,-4.6e-4 -0.90579,-0.40593 -0.90625,-0.90625 4.6e-4,-0.50032 0.40593,-0.9058 0.90625,-0.90625 z m 3.78125,0 c 0.50032,4.5e-4 0.90579,0.40593 0.90625,0.90625 -4.6e-4,0.50032 -0.40593,0.90579 -0.90625,0.90625 -0.50108,6.2e-4 -0.90775,-0.40517 -0.90821,-0.90625 4.6e-4,-0.50108 0.40713,-0.90687 0.90821,-0.90625 z m 3.77929,0 c 0.50033,4.5e-4 0.90579,0.40593 0.90625,0.90625 -4.6e-4,0.50032 -0.40592,0.90579 -0.90625,0.90625 -0.50107,6.2e-4 -0.90774,-0.40517 -0.9082,-0.90625 4.6e-4,-0.50108 0.40713,-0.90687 0.9082,-0.90625 z m -39.79492,38.70117 h 68.03125 v 11.33984 h -68.03125 z m -149.400389,3.7793 c 0.03579,-2e-4 0.07161,-2e-4 0.107422,0 5.218748,-2.2e-4 9.449435,4.23049 9.449219,9.44921 2.22e-4,5.21875 -4.230467,9.44945 -9.449219,9.44922 -5.217989,-8.5e-4 -9.447488,-4.23123 -9.447265,-9.44922 -5.59e-4,-5.1763 4.163859,-9.38952 9.339843,-9.44921 z m 245.667969,0 c 0.0367,-2.2e-4 0.0729,-2.2e-4 0.10937,0 5.21875,-2.2e-4 9.44945,4.23049 9.44922,9.44921 2.3e-4,5.21875 -4.23047,9.44945 -9.44922,9.44922 -5.21872,2.3e-4 -9.44943,-4.23047 -9.44921,-9.44922 -5.6e-4,-5.1763 4.16386,-9.38952 9.33984,-9.44921 z"
       transform="scale(0.26458333)"
       sodipodi:nodetypes="ssssccccccccssssscccccccccccccccccsssssscssccccccccccccccccccccccccccccccccccccccccccccccccccccccccccccccccccccccccccccccccccccccccccccccccccccccccccccccccccccccccccccccccccccccccccccccccccccccccccccccccccccccccccccccccccccccccccccccccccccccccccccccccccccccccccccccccccccccccccccccccccccccccccccccccccccccccccccccccccccccccccccccccccccccccccccccccccccccccccccccccccccccccccccccccccccccccccccccccccccccccccccccccccccccccccccccccccccccccccccccccccccccccccccccccccccccccccccccccccccccccccccccccccccccccccccccccccccccccccccccccccccccccccccccccccccccccccccccccccccccccccccccccccccccccccccccccccccccccccccccccccccccccccccccccccccccccccccccccccccccccccccccccccccccccccccccccccccccccccccccccccccccccccccccccccccccccccccccccccccccccccccccccccccccccccccccccccccccccccccccccccccccccccccccccccccccccccccccccccccc" />
  </g>
  <g
     sodipodi:insensitive="true"
     inkscape:groupmode="layer"
     id="layer6"
     inkscape:label="Door"
     style="display:inline"
     transform="translate(1.05,1.05)">
    <path
       id="rect2408"
       style="fill:#ff5555;stroke:none;stroke-width:0.1;stroke-linecap:round;stroke-miterlimit:4;stroke-dasharray:none;stroke-dashoffset:37.7953"
       d="m 49.062636,82.000163 c -1.107998,-5e-6 -2.000392,0.891876 -2.000392,1.999877 v 6.000149 H 22.062735 v 14.999601 h 34.99993 V 91.000129 90.000189 84.00004 c 0,-1.108001 -0.892397,-1.99988 -2.000393,-1.999877 z m -9.062495,11.999783 h 2.999817 c 0.554001,0 0.99994,0.445939 0.99994,0.99994 v 4.000272 c 0,0.554 -0.445939,0.999942 -0.99994,0.999942 h -2.999817 c -0.554,0 -0.999939,-0.445942 -0.999939,-0.999942 v -4.000272 c 0,-0.554001 0.445939,-0.99994 0.999939,-0.99994 z" />
  </g>
  <g
     inkscape:groupmode="layer"
     id="layer4"
     inkscape:label="formicarium"
     style="display:none"
     sodipodi:insensitive="true"
     transform="translate(1.05,1.05)">
    <path
       style="fill:#b3b3b3;fill-rule:evenodd;stroke:none;stroke-width:0.264583px;stroke-linecap:butt;stroke-linejoin:miter;stroke-opacity:1"
       d="m 34.999998,69.999999 c 0,0 0.25247,-1.837114 0,-5 C 34.602151,60.015853 24.253254,67.628654 20,64.999999 16.829812,63.040715 15,58.72678 15,55 15,45 19.38854,49.136447 23.015625,48.280208 26.259788,47.514365 32.642976,52.357022 34.999998,50 c 1.178512,-1.178512 1.662161,-5.12248 0,-5.000001 -13.060533,0.962383 -2.062499,-11.244792 -7.062498,-11.244792 -3.333333,0 -13.44734,11.048064 -15.55625,8.466667 C 8.2134757,37.120338 13.941667,25.634375 13.941667,25.634375 14.433478,23.218077 20.113886,21.780942 20,16.03125 c -0.0715,-3.609696 1.845944,-5.200987 6.058333,-4.708333 3.843444,0.449503 10.812922,-1.342386 11.322915,3.941666 1.322917,13.706778 -7.507038,12.696592 -3.971504,16.232126 1.178512,1.178512 5.238184,-0.522192 6.590255,-1.496709 4.275622,-3.081694 0.327503,-16.94539 8.307292,-16.455208 3.327062,0.204374 0.894539,1.884753 3.120834,4.365625 5.784492,6.44595 0.487306,8.017088 1.455208,12.486458 0.788799,3.642346 1.995311,7.566293 1.139073,11.193378 -0.405916,1.719488 -5.943391,5.738882 -9.924183,6.081487 -5.314299,0.457373 2.215472,3.572312 2.311094,4.256349 C 46.546755,52.911267 48.971962,50 50,50 c 5,0 1.71224,-1.139003 4.003166,-1.929848 2.84384,-0.981715 4.938501,7.326723 8.013463,2.712163 1.058948,-1.58915 3.910667,-3.700424 6.096463,-4.201993 C 75,45 68.653028,56.17112 68.704166,56.852083 c 0.367843,4.898304 -5.798563,2.88134 -9.101043,6.295833 -3.476092,3.593992 -14.4919,-3.146679 -14.603124,1.852083 -0.09833,4.419069 3.28e-4,5.000985 0,5 v 0 z"
       id="path943"
       sodipodi:nodetypes="csssssssssssssssssssssssssssscc" />
  </g>
</svg>
