<?xml version="1.0" encoding="UTF-8" standalone="no"?>
<svg
   xmlns:dc="http://purl.org/dc/elements/1.1/"
   xmlns:cc="http://creativecommons.org/ns#"
   xmlns:rdf="http://www.w3.org/1999/02/22-rdf-syntax-ns#"
   xmlns:svg="http://www.w3.org/2000/svg"
   xmlns="http://www.w3.org/2000/svg"
   xmlns:sodipodi="http://sodipodi.sourceforge.net/DTD/sodipodi-0.dtd"
   xmlns:inkscape="http://www.inkscape.org/namespaces/inkscape"
   sodipodi:docname="small_nest.svg"
   inkscape:version="1.0 (4035a4fb49, 2020-05-01)"
   id="svg8"
   version="1.1"
   viewBox="0 0 210 297"
   height="297mm"
   width="210mm">
  <defs
     id="defs2" />
  <sodipodi:namedview
     inkscape:window-maximized="1"
     inkscape:window-y="-8"
     inkscape:window-x="-8"
     inkscape:window-height="1017"
     inkscape:window-width="1920"
     inkscape:snap-global="true"
     inkscape:bbox-paths="true"
     inkscape:snap-bbox-midpoints="true"
     inkscape:snap-bbox="false"
     inkscape:guide-bbox="true"
     showguides="true"
     showgrid="true"
     inkscape:document-rotation="0"
     inkscape:current-layer="layer6"
     inkscape:document-units="mm"
     inkscape:cy="331.37583"
     inkscape:cx="157.97418"
     inkscape:zoom="5.6568542"
     inkscape:pageshadow="2"
     inkscape:pageopacity="0.0"
     borderopacity="1.0"
     bordercolor="#666666"
     pagecolor="#ffffff"
     id="base">
    <inkscape:grid
       spacingy="1"
       spacingx="1"
       units="mm"
       id="grid842"
       type="xygrid" />
    <sodipodi:guide
       id="guide844"
       orientation="1,0"
       position="0,302.29168" />
    <sodipodi:guide
       id="guide846"
       orientation="1,0"
       position="80,242" />
    <sodipodi:guide
       id="guide848"
       orientation="0,-1"
       position="-0.99999998,297.00001" />
  </sodipodi:namedview>
  <metadata
     id="metadata5">
    <rdf:RDF>
      <cc:Work
         rdf:about="">
        <dc:format>image/svg+xml</dc:format>
        <dc:type
           rdf:resource="http://purl.org/dc/dcmitype/StillImage" />
        <dc:title />
      </cc:Work>
    </rdf:RDF>
  </metadata>
  <g
     style="display:none"
     sodipodi:insensitive="true"
     id="layer1"
     inkscape:groupmode="layer"
     inkscape:label="Boundary">
    <rect
       ry="2.0000012"
       rx="2.0000012"
       y="-9.2207119e-06"
       x="0"
       height="80.000008"
       width="80"
       id="rect852"
       style="fill:none;stroke:#000000;stroke-width:0.5;stroke-linecap:round;stroke-miterlimit:4;stroke-dasharray:none;stroke-dashoffset:37.7953" />
  </g>
  <g
     sodipodi:insensitive="true"
     style="display:inline"
     inkscape:label="BaseSheet"
     id="layer11"
     inkscape:groupmode="layer">
    <path
       transform="scale(0.26458333)"
       d="M 7.5585938,0 C 3.3708746,0 0,3.3708748 0,7.5585938 V 294.80273 c 0,4.18772 3.3708746,7.5586 7.5585938,7.5586 H 294.80273 c 4.18772,0 7.5586,-3.37088 7.5586,-7.5586 V 7.5585938 C 302.36133,3.3708748 298.99045,0 294.80273,0 Z M 28.238281,18.898438 a 9.4488186,9.4488186 0 0 1 0.107422,0 9.4488186,9.4488186 0 0 1 9.449219,9.447265 9.4488186,9.4488186 0 0 1 -9.449219,9.449219 9.4488186,9.4488186 0 0 1 -9.447265,-9.449219 9.4488186,9.4488186 0 0 1 9.339843,-9.447265 z m 245.667969,0 a 9.4488187,9.4488187 0 0 1 0.10937,0 9.4488187,9.4488187 0 0 1 9.44922,9.447265 9.4488187,9.4488187 0 0 1 -9.44922,9.449219 9.4488187,9.4488187 0 0 1 -9.44921,-9.449219 9.4488187,9.4488187 0 0 1 9.33984,-9.447265 z M 28.345703,264.56641 a 9.4488189,9.4488189 0 0 1 9.449219,9.44921 9.4488189,9.4488189 0 0 1 -9.449219,9.44922 9.4488189,9.4488189 0 0 1 -9.447265,-9.44922 9.4488189,9.4488189 0 0 1 9.447265,-9.44921 z m 245.560547,0 a 9.4488188,9.4488188 0 0 1 0.10937,0 9.4488188,9.4488188 0 0 1 9.44922,9.44921 9.4488188,9.4488188 0 0 1 -9.44922,9.44922 9.4488188,9.4488188 0 0 1 -9.44921,-9.44922 9.4488188,9.4488188 0 0 1 9.33984,-9.44921 z"
       style="fill:#999999;stroke:none;stroke-width:1.88976;stroke-linecap:round;stroke-miterlimit:4;stroke-dasharray:none;stroke-dashoffset:37.7953"
       id="rect852-6" />
  </g>
  <g
     sodipodi:insensitive="true"
     style="display:inline"
     inkscape:label="BaseFloor"
     id="layer15"
     inkscape:groupmode="layer">
    <path
       id="rect852-6-4"
       style="display:inline;fill:#4d4d4d;stroke:none;stroke-width:0.499999;stroke-linecap:round;stroke-miterlimit:4;stroke-dasharray:none;stroke-dashoffset:37.7953"
       d="M 1.9998779,-4.3750002e-7 C 0.89187724,-4.3750002e-7 0,0.89187685 0,1.9998775 V 77.999889 c 0,1.108001 0.89187724,1.99988 1.9998779,1.99988 H 77.999889 c 1.108001,0 1.99988,-0.891879 1.99988,-1.99988 V 1.9998775 C 79.999769,0.89187685 79.10789,-4.3750002e-7 77.999889,-4.3750002e-7 Z M 7.4713785,5.0002113 a 2.4999999,2.4999999 0 0 1 0.028422,0 A 2.4999999,2.4999999 0 0 1 9.9999064,7.4998002 2.4999999,2.4999999 0 0 1 7.4998006,9.999906 2.4999999,2.4999999 0 0 1 5.0002117,7.4998002 2.4999999,2.4999999 0 0 1 7.4713785,5.0002113 Z m 64.9996505,0 a 2.4999999,2.4999999 0 0 1 0.02894,0 2.4999999,2.4999999 0 0 1 2.500106,2.4995889 A 2.4999999,2.4999999 0 0 1 72.499969,9.999906 2.4999999,2.4999999 0 0 1 69.999866,7.4998002 2.4999999,2.4999999 0 0 1 72.471032,5.0002113 Z M 7.4998006,69.999863 a 2.5,2.5 0 0 1 2.5001058,2.500103 2.5,2.5 0 0 1 -2.5001058,2.500106 2.5,2.5 0 0 1 -2.4995889,-2.500106 2.5,2.5 0 0 1 2.4995889,-2.500103 z m 64.9712284,0 a 2.5,2.5 0 0 1 0.02894,0 2.5,2.5 0 0 1 2.500106,2.500103 2.5,2.5 0 0 1 -2.500106,2.500106 2.5,2.5 0 0 1 -2.500103,-2.500106 2.5,2.5 0 0 1 2.471166,-2.500103 z" />
  </g>
  <g
     sodipodi:insensitive="true"
     style="display:inline"
     inkscape:label="UpperFloor"
     id="layer14"
     inkscape:groupmode="layer">
    <path
       transform="scale(0.26458333)"
       d="M 7.5585938,0 C 3.3708747,0 0,3.3708748 0,7.5585938 V 294.80273 c 0,4.18772 3.3708747,7.5586 7.5585938,7.5586 H 294.80273 c 4.18772,0 7.5586,-3.37088 7.5586,-7.5586 V 7.5585938 C 302.36133,3.3708748 298.99045,0 294.80273,0 Z M 28.238281,18.898438 a 9.4488182,9.4488182 0 0 1 0.107422,0 9.4488182,9.4488182 0 0 1 9.449219,9.447265 9.4488182,9.4488182 0 0 1 -9.449219,9.449219 9.4488182,9.4488182 0 0 1 -9.447265,-9.449219 9.4488182,9.4488182 0 0 1 9.339843,-9.447265 z m 245.667969,0 a 9.4488182,9.4488182 0 0 1 0.10937,0 9.4488182,9.4488182 0 0 1 9.44922,9.447265 9.4488182,9.4488182 0 0 1 -9.44922,9.449219 9.4488182,9.4488182 0 0 1 -9.44921,-9.449219 9.4488182,9.4488182 0 0 1 9.33984,-9.447265 z m -77.37109,56.691406 h 60.47265 c 0.26173,0 0.52066,0.01335 0.77539,0.03906 1.01891,0.102903 1.97704,0.406539 2.83399,0.871094 0.33698,0.182682 0.65173,0.396956 0.95508,0.626953 0.27519,0.208659 0.54145,0.428089 0.78515,0.671875 0.34158,0.341575 0.65073,0.717123 0.92188,1.119141 0.81337,1.206315 1.28711,2.662028 1.28711,4.232422 v 3.779297 c 0,1.046926 -0.21035,2.042348 -0.5918,2.947265 -0.19075,0.452481 -0.42416,0.883138 -0.69531,1.285156 -0.27115,0.402018 -0.5803,0.775613 -0.92188,1.117188 -1.36618,1.366184 -3.25575,2.208984 -5.34961,2.208984 h -60.47265 c -2.87846,0 -5.37111,-1.593295 -6.64844,-3.949219 v -0.002 c -0.5805,-1.071242 -0.91016,-2.298762 -0.91016,-3.607421 v -3.779297 c 0,-0.784537 0.11804,-1.541523 0.33789,-2.251953 v -0.002 c 0.0732,-0.236397 0.15882,-0.467651 0.25391,-0.693359 v -0.002 c 0.47687,-1.131201 1.22169,-2.119645 2.1543,-2.888672 0.37301,-0.307702 0.77465,-0.580223 1.20312,-0.8125 0.85695,-0.464555 1.81508,-0.768191 2.83399,-0.871094 0.25473,-0.02572 0.51365,-0.03906 0.77539,-0.03906 z M 75.589844,260.78711 H 245.66992 v 11.33984 H 75.589844 Z m -47.351563,3.7793 a 9.4488186,9.4488186 0 0 1 0.107422,0 9.4488186,9.4488186 0 0 1 9.449219,9.44921 9.4488186,9.4488186 0 0 1 -9.449219,9.44922 9.4488186,9.4488186 0 0 1 -9.447265,-9.44922 9.4488186,9.4488186 0 0 1 9.339843,-9.44921 z m 245.667969,0 a 9.4488186,9.4488186 0 0 1 0.10937,0 9.4488186,9.4488186 0 0 1 9.44922,9.44921 9.4488186,9.4488186 0 0 1 -9.44922,9.44922 9.4488186,9.4488186 0 0 1 -9.44921,-9.44922 9.4488186,9.4488186 0 0 1 9.33984,-9.44921 z m -149.18164,13.11914 h 52.91406 v 13.33789 h -52.91406 z"
       style="display:inline;fill:#666666;stroke:none;stroke-width:1.88976;stroke-linecap:round;stroke-miterlimit:4;stroke-dasharray:none;stroke-dashoffset:37.7953"
       id="rect852-6-11" />
  </g>
  <g
     sodipodi:insensitive="true"
     style="display:inline"
     inkscape:label="Walls"
     id="layer13"
     inkscape:groupmode="layer">
    <path
       transform="scale(0.26458333)"
       d="M 7.5585938,0 C 3.3708747,0 0,3.3708748 0,7.5585938 V 294.80273 c 0,4.18772 3.3708747,7.5586 7.5585938,7.5586 H 132.2832 v -11.33789 h -7.55859 v -13.33789 h 7.55859 v -5.5586 H 75.589844 v -11.33984 h 56.992186 c 0.16563,-3.20061 0.2444,-8.31174 -0.29883,-15.11719 -1.50367,-18.83772 -40.618062,9.93508 -56.693356,0 -11.981813,-7.40517 -18.896485,-23.7114 -18.896485,-37.79687 0,-37.79528 16.586251,-22.16031 30.294922,-25.39649 12.261404,-2.89452 36.386489,15.40843 45.294919,6.5 4.45422,-4.45422 6.28219,-19.36131 0,-18.89844 -49.362629,3.63735 -7.79572,-42.49999 -26.69336,-42.5 -12.598408,0 -50.824235,41.75647 -58.794918,32 -15.752218,-19.28136 5.898437,-62.691401 5.898437,-62.691401 1.858814,-9.132465 23.32692,-14.565759 22.896485,-36.296875 -0.236457,-11.937578 5.282878,-18.03469 17.332031,-18.125 1.721308,-0.0129 3.576301,0.09733 5.566406,0.330078 14.526399,1.698909 40.867389,-5.072781 42.794919,14.898437 5,51.805141 -28.37241,47.986961 -15.00976,61.349611 4.45422,4.45422 19.79801,-1.97304 24.9082,-5.65625 16.15983,-11.64735 1.23669,-64.046017 31.39648,-62.193361 12.57473,0.772438 3.38058,7.123476 11.79493,16.5 21.86264,24.362646 1.84178,30.30125 5.5,47.193361 2.98128,13.76635 7.54282,28.59601 4.30664,42.30469 -1.53417,6.49884 -22.46426,21.68948 -37.50977,22.98437 -20.08554,1.72865 8.37493,13.50255 8.73633,16.08789 0.51945,3.71595 9.68481,-7.28711 13.57031,-7.28711 18.89764,0 6.47224,-4.3059 15.13086,-7.29492 10.74837,-3.71042 18.66519,27.69279 30.28711,10.25195 2.27749,-3.41779 17.01598,-8.11644 11.70117,-10.68554 -17.55015,-8.4835 -4.20632,-14.94953 1.98242,-23.60352 0.91501,-1.27949 30.20609,-0.65857 32.36719,4.68164 0.91164,2.25273 6.70641,7.72592 4.06836,17.08203 -4.82912,17.12698 -7.1357,10.74618 -14.70312,15.38086 -9.02252,5.52585 -10.33391,17.51026 -10.14063,20.08399 1.39027,18.51326 -21.91663,10.89171 -34.39844,23.79687 -13.13798,13.58361 -54.77298,-11.89296 -55.19336,7 -0.17612,7.91561 -0.17983,12.40747 -0.14062,15.11719 h 75.73242 v 11.33984 h -75.5918 v 5.5586 h 7.56055 v 13.33789 h -7.56055 v 11.33789 h 124.72461 c 4.18772,0 7.5586,-3.37088 7.5586,-7.5586 V 7.5585938 C 302.36133,3.3708748 298.99045,0 294.80273,0 Z M 28.238281,18.898438 c 0.03581,-2.04e-4 0.07161,-2.04e-4 0.107422,0 5.217988,-2.21e-4 9.448361,4.229277 9.449219,9.447265 2.21e-4,5.218751 -4.230468,9.44944 -9.449219,9.449219 -5.217988,-8.58e-4 -9.447486,-4.231231 -9.447265,-9.449219 5.06e-4,-5.17557 4.164617,-9.387575 9.339843,-9.447265 z m 245.667969,0 c 0.0365,-2.11e-4 0.0729,-2.11e-4 0.10937,0 5.21799,-2.22e-4 9.44836,4.229276 9.44922,9.447265 2.2e-4,5.218752 -4.23047,9.449441 -9.44922,9.449219 -5.21874,2.16e-4 -9.44943,-4.230471 -9.44921,-9.449219 5.1e-4,-5.175569 4.16462,-9.387573 9.33984,-9.447265 z m -35.79687,37.794921 h 34.01757 c 6.28158,0 11.33789,5.056316 11.33789,11.337891 v 52.91406 c 0,6.28158 -5.05631,11.33789 -11.33789,11.33789 h -34.01757 c -6.28158,0 -11.3379,-5.05631 -11.3379,-11.33789 V 68.03125 c 0,-6.281575 5.05632,-11.337891 11.3379,-11.337891 z M 28.238281,264.56641 c 0.03581,-2e-4 0.07161,-2e-4 0.107422,0 5.218748,-2.2e-4 9.449435,4.23047 9.449219,9.44921 2.22e-4,5.21875 -4.230467,9.44944 -9.449219,9.44922 -5.217988,-8.6e-4 -9.447487,-4.23123 -9.447265,-9.44922 -5.59e-4,-5.17632 4.163859,-9.38951 9.339843,-9.44921 z m 245.667969,0 c 0.0365,-2.1e-4 0.0729,-2.1e-4 0.10937,0 5.21875,-2.2e-4 9.44944,4.23047 9.44922,9.44921 2.2e-4,5.21875 -4.23047,9.44944 -9.44922,9.44922 -5.21874,2.2e-4 -9.44943,-4.23047 -9.44921,-9.44922 -5.6e-4,-5.17632 4.16386,-9.38951 9.33984,-9.44921 z"
       style="display:inline;fill:#999999;stroke:none;stroke-width:1.88976;stroke-linecap:round;stroke-miterlimit:4;stroke-dasharray:none;stroke-dashoffset:37.7953"
       id="rect852-6-1" />
  </g>
  <g
     sodipodi:insensitive="true"
     style="display:inline;opacity:1"
     inkscape:label="ClearPlasticTop"
     id="layer12"
     inkscape:groupmode="layer">
    <path
       transform="scale(0.26458333)"
       d="M 7.5585938,0 C 3.3708748,0 0,3.3708749 0,7.5585938 V 294.80273 c 0,4.18772 3.3708748,7.5586 7.5585938,7.5586 H 132.2832 v -11.33789 h -7.55859 v -13.33789 h 52.91406 v 13.33789 h -7.56055 v 11.33789 h 124.72461 c 4.18772,0 7.5586,-3.37088 7.5586,-7.5586 V 7.5585938 C 302.36133,3.3708749 298.99045,0 294.80273,0 Z M 28.238281,18.898438 c 0.03579,-2.05e-4 0.07161,-2.05e-4 0.107422,0 5.217988,-2.23e-4 9.448361,4.229277 9.449219,9.447265 2.22e-4,5.218751 -4.230468,9.449441 -9.449219,9.449219 -5.217988,-8.58e-4 -9.447488,-4.231231 -9.447265,-9.449219 5.04e-4,-5.17557 4.164617,-9.387576 9.339843,-9.447265 z m 245.667969,0 c 0.0367,-2.12e-4 0.0729,-2.12e-4 0.10937,0 5.21799,-2.23e-4 9.44837,4.229276 9.44922,9.447265 2.3e-4,5.218752 -4.23047,9.449441 -9.44922,9.449219 -5.21873,2.17e-4 -9.44943,-4.230471 -9.44921,-9.449219 5.1e-4,-5.175569 4.16462,-9.387575 9.33984,-9.447265 z M 245.66992,68.03125 h 18.89649 c 4.18771,0 7.55859,3.370877 7.55859,7.558594 v 37.796876 c 0,4.18772 -3.37088,7.55859 -7.55859,7.55859 h -18.89649 c -4.18771,0 -7.56055,-3.37087 -7.56054,-7.55859 V 75.589844 c 0,-4.187717 3.37283,-7.558594 7.56054,-7.558594 z M 85.150391,191.84961 c 0.500318,4.6e-4 0.905789,0.40593 0.90625,0.90625 -4.61e-4,0.50032 -0.405932,0.90579 -0.90625,0.90625 -0.501079,6.2e-4 -0.907742,-0.40517 -0.908203,-0.90625 4.61e-4,-0.50108 0.407124,-0.90687 0.908203,-0.90625 z m 3.779297,0 c 0.500318,4.6e-4 0.905788,0.40593 0.90625,0.90625 -4.62e-4,0.50032 -0.405932,0.90579 -0.90625,0.90625 -0.501079,6.2e-4 -0.907739,-0.40517 -0.908204,-0.90625 4.65e-4,-0.50108 0.407125,-0.90687 0.908204,-0.90625 z m 3.779296,0 c 0.500315,4.6e-4 0.905789,0.40593 0.90625,0.90625 -4.61e-4,0.50032 -0.405935,0.90579 -0.90625,0.90625 -0.501078,6.2e-4 -0.907738,-0.40517 -0.908203,-0.90625 4.65e-4,-0.50108 0.407125,-0.90687 0.908203,-0.90625 z m 3.779297,0 c 0.500315,4.6e-4 0.905789,0.40593 0.90625,0.90625 -4.61e-4,0.50032 -0.405935,0.90579 -0.90625,0.90625 -0.500318,-4.6e-4 -0.905789,-0.40593 -0.90625,-0.90625 4.61e-4,-0.50032 0.405932,-0.90579 0.90625,-0.90625 z m 3.779299,0 c 0.50032,4.6e-4 0.90579,0.40593 0.90625,0.90625 -4.6e-4,0.50032 -0.40593,0.90579 -0.90625,0.90625 -0.500321,-4.6e-4 -0.905791,-0.40593 -0.906252,-0.90625 4.61e-4,-0.50032 0.405931,-0.90579 0.906252,-0.90625 z m 3.7793,0 c 0.50107,-6.2e-4 0.90774,0.40517 0.9082,0.90625 -4.6e-4,0.50108 -0.40713,0.90687 -0.9082,0.90625 -0.50032,-4.6e-4 -0.9058,-0.40593 -0.90626,-0.90625 4.6e-4,-0.50032 0.40594,-0.90579 0.90626,-0.90625 z m 94.48828,0 c 0.50107,-6.2e-4 0.90774,0.40517 0.9082,0.90625 -4.6e-4,0.50108 -0.40713,0.90687 -0.9082,0.90625 -0.50033,-4.6e-4 -0.90579,-0.40593 -0.90625,-0.90625 4.6e-4,-0.50032 0.40592,-0.90579 0.90625,-0.90625 z m 3.77929,0 c 0.50108,-6.2e-4 0.90775,0.40517 0.90821,0.90625 -4.6e-4,0.50108 -0.40713,0.90687 -0.90821,0.90625 -0.50032,-4.6e-4 -0.90579,-0.40593 -0.90625,-0.90625 4.6e-4,-0.50032 0.40593,-0.90579 0.90625,-0.90625 z m 3.7793,0 c 0.50108,-6.2e-4 0.90775,0.40517 0.9082,0.90625 -4.5e-4,0.50108 -0.40712,0.90687 -0.9082,0.90625 -0.50032,-4.6e-4 -0.90579,-0.40593 -0.90625,-0.90625 4.6e-4,-0.50032 0.40593,-0.90579 0.90625,-0.90625 z m 3.7793,0 c 0.50108,-6.2e-4 0.90774,0.40517 0.9082,0.90625 -4.6e-4,0.50108 -0.40712,0.90687 -0.9082,0.90625 -0.50032,-4.6e-4 -0.90579,-0.40593 -0.90625,-0.90625 4.6e-4,-0.50032 0.40593,-0.90579 0.90625,-0.90625 z m 3.78125,0 c 0.50032,4.6e-4 0.90579,0.40593 0.90625,0.90625 -4.6e-4,0.50032 -0.40593,0.90579 -0.90625,0.90625 -0.50108,6.2e-4 -0.90775,-0.40517 -0.90821,-0.90625 4.6e-4,-0.50108 0.40713,-0.90687 0.90821,-0.90625 z m 3.77929,0 c 0.50033,4.6e-4 0.90579,0.40593 0.90625,0.90625 -4.6e-4,0.50032 -0.40592,0.90579 -0.90625,0.90625 -0.50107,6.2e-4 -0.90774,-0.40517 -0.9082,-0.90625 4.6e-4,-0.50108 0.40713,-0.90687 0.9082,-0.90625 z m -136.064449,3.7793 c 0.501078,-6.2e-4 0.907738,0.40517 0.908203,0.90625 6.16e-4,0.50184 -0.406361,0.90882 -0.908203,0.9082 -0.501079,-4.6e-4 -0.906866,-0.40712 -0.90625,-0.9082 4.61e-4,-0.50032 0.405935,-0.90579 0.90625,-0.90625 z m 3.78125,0 c 0.500318,4.6e-4 0.905789,0.40593 0.90625,0.90625 6.12e-4,0.50108 -0.405172,0.90774 -0.90625,0.9082 -0.501842,6.2e-4 -0.90882,-0.40636 -0.908203,-0.9082 4.61e-4,-0.50108 0.407124,-0.90687 0.908203,-0.90625 z m 3.779297,0 c 0.500318,4.6e-4 0.905788,0.40593 0.90625,0.90625 6.12e-4,0.50108 -0.405172,0.90774 -0.90625,0.9082 -0.501842,6.2e-4 -0.90882,-0.40636 -0.908204,-0.9082 4.65e-4,-0.50108 0.407125,-0.90687 0.908204,-0.90625 z m 3.779296,0 c 0.500315,4.6e-4 0.905789,0.40593 0.90625,0.90625 6.16e-4,0.50108 -0.405171,0.90774 -0.90625,0.9082 -0.501842,6.2e-4 -0.908819,-0.40636 -0.908203,-0.9082 4.65e-4,-0.50108 0.407125,-0.90687 0.908203,-0.90625 z m 3.779297,0 c 0.500315,4.6e-4 0.905789,0.40593 0.90625,0.90625 6.16e-4,0.50108 -0.405171,0.90774 -0.90625,0.9082 -0.501078,-4.6e-4 -0.906866,-0.40712 -0.90625,-0.9082 4.61e-4,-0.50032 0.405932,-0.90579 0.90625,-0.90625 z m 3.779299,0 c 0.50032,4.6e-4 0.90579,0.40593 0.90625,0.90625 6.2e-4,0.50108 -0.40517,0.90774 -0.90625,0.9082 -0.50108,-4.6e-4 -0.906868,-0.40712 -0.906252,-0.9082 4.61e-4,-0.50032 0.405931,-0.90579 0.906252,-0.90625 z m 3.7793,0 c 0.50107,-6.2e-4 0.90774,0.40517 0.9082,0.90625 6.2e-4,0.50184 -0.40637,0.90882 -0.9082,0.9082 -0.50108,-4.6e-4 -0.90687,-0.40712 -0.90626,-0.9082 4.6e-4,-0.50032 0.40594,-0.90579 0.90626,-0.90625 z m 3.77929,0 c 0.50108,-6.2e-4 0.90775,0.40517 0.90821,0.90625 6.1e-4,0.50184 -0.40637,0.90882 -0.90821,0.9082 -0.50108,-4.6e-4 -0.90687,-0.40712 -0.90625,-0.9082 4.6e-4,-0.50032 0.40593,-0.90579 0.90625,-0.90625 z m 86.92969,0 c 0.50032,4.6e-4 0.90579,0.40593 0.90625,0.90625 6.2e-4,0.50108 -0.40517,0.90774 -0.90625,0.9082 -0.50108,-4.6e-4 -0.90687,-0.40712 -0.90625,-0.9082 4.6e-4,-0.50032 0.40593,-0.90579 0.90625,-0.90625 z m 3.7793,0 c 0.50107,-6.2e-4 0.90774,0.40517 0.9082,0.90625 6.2e-4,0.50184 -0.40637,0.90882 -0.9082,0.9082 -0.50109,-4.6e-4 -0.90687,-0.40712 -0.90625,-0.9082 4.6e-4,-0.50032 0.40592,-0.90579 0.90625,-0.90625 z m 3.77929,0 c 0.50108,-6.2e-4 0.90775,0.40517 0.90821,0.90625 6.2e-4,0.50184 -0.40637,0.90882 -0.90821,0.9082 -0.50108,-4.6e-4 -0.90687,-0.40712 -0.90625,-0.9082 4.6e-4,-0.50032 0.40593,-0.90579 0.90625,-0.90625 z m 3.7793,0 c 0.50108,-6.2e-4 0.90775,0.40517 0.9082,0.90625 6.2e-4,0.50184 -0.40636,0.90882 -0.9082,0.9082 -0.50108,-4.6e-4 -0.90687,-0.40712 -0.90625,-0.9082 4.6e-4,-0.50032 0.40593,-0.90579 0.90625,-0.90625 z m 3.7793,0 c 0.50108,-6.2e-4 0.90774,0.40517 0.9082,0.90625 6.2e-4,0.50184 -0.40636,0.90882 -0.9082,0.9082 -0.50108,-4.6e-4 -0.90687,-0.40712 -0.90625,-0.9082 4.6e-4,-0.50032 0.40593,-0.90579 0.90625,-0.90625 z m 3.78125,0 c 0.50032,4.6e-4 0.90579,0.40593 0.90625,0.90625 6.2e-4,0.50108 -0.40517,0.90774 -0.90625,0.9082 -0.50184,6.2e-4 -0.90883,-0.40636 -0.90821,-0.9082 4.6e-4,-0.50108 0.40713,-0.90687 0.90821,-0.90625 z m 3.77929,0 c 0.50033,4.6e-4 0.90579,0.40593 0.90625,0.90625 6.2e-4,0.50108 -0.40516,0.90774 -0.90625,0.9082 -0.50183,6.2e-4 -0.90882,-0.40636 -0.9082,-0.9082 4.6e-4,-0.50108 0.40713,-0.90687 0.9082,-0.90625 z m 3.7793,0 c 0.50032,4.6e-4 0.90579,0.40593 0.90625,0.90625 6.2e-4,0.50108 -0.40517,0.90774 -0.90625,0.9082 -0.50184,6.2e-4 -0.90882,-0.40636 -0.9082,-0.9082 4.6e-4,-0.50108 0.40712,-0.90687 0.9082,-0.90625 z M 77.589844,199.4082 c 0.501078,-6.2e-4 0.907738,0.40517 0.908203,0.90625 6.2e-4,0.50185 -0.406358,0.90883 -0.908203,0.90821 -0.501082,-4.6e-4 -0.906874,-0.40712 -0.90625,-0.90821 4.61e-4,-0.50032 0.405935,-0.90579 0.90625,-0.90625 z m 3.779297,0 c 0.501078,-6.2e-4 0.907738,0.40517 0.908203,0.90625 6.2e-4,0.50185 -0.406358,0.90883 -0.908203,0.90821 -0.501083,-4.6e-4 -0.906874,-0.40712 -0.90625,-0.90821 4.61e-4,-0.50032 0.405935,-0.90579 0.90625,-0.90625 z m 3.78125,0 c 0.500318,4.6e-4 0.905789,0.40593 0.90625,0.90625 6.19e-4,0.50109 -0.405168,0.90775 -0.90625,0.90821 -0.501846,6.2e-4 -0.908827,-0.40636 -0.908203,-0.90821 4.61e-4,-0.50108 0.407124,-0.90687 0.908203,-0.90625 z m 3.779297,0 c 0.500318,4.6e-4 0.905788,0.40593 0.90625,0.90625 6.19e-4,0.50109 -0.405168,0.90775 -0.90625,0.90821 -0.501846,6.2e-4 -0.908823,-0.40636 -0.908204,-0.90821 4.65e-4,-0.50108 0.407125,-0.90687 0.908204,-0.90625 z m 3.779296,0 c 0.500315,4.6e-4 0.905789,0.40593 0.90625,0.90625 6.24e-4,0.50109 -0.405167,0.90775 -0.90625,0.90821 -0.501845,6.2e-4 -0.908823,-0.40636 -0.908203,-0.90821 4.65e-4,-0.50108 0.407125,-0.90687 0.908203,-0.90625 z m 3.779297,0 c 0.500315,4.6e-4 0.905789,0.40593 0.90625,0.90625 6.24e-4,0.50109 -0.405168,0.90775 -0.90625,0.90821 -0.501082,-4.6e-4 -0.90687,-0.40712 -0.90625,-0.90821 4.61e-4,-0.50032 0.405932,-0.90579 0.90625,-0.90625 z m 3.779299,0 c 0.50032,4.6e-4 0.90579,0.40593 0.90625,0.90625 6.2e-4,0.50109 -0.40517,0.90775 -0.90625,0.90821 -0.501084,-4.6e-4 -0.906872,-0.40712 -0.906252,-0.90821 4.61e-4,-0.50032 0.405931,-0.90579 0.906252,-0.90625 z m 3.7793,0 c 0.50107,-6.2e-4 0.90774,0.40517 0.9082,0.90625 6.2e-4,0.50185 -0.40637,0.90883 -0.9082,0.90821 -0.50109,-4.6e-4 -0.90687,-0.40712 -0.90626,-0.90821 4.6e-4,-0.50032 0.40594,-0.90579 0.90626,-0.90625 z m 3.77929,0 c 0.50108,-6.2e-4 0.90775,0.40517 0.90821,0.90625 6.1e-4,0.50185 -0.40636,0.90883 -0.90821,0.90821 -0.50108,-4.6e-4 -0.90687,-0.40712 -0.90625,-0.90821 4.6e-4,-0.50032 0.40593,-0.90579 0.90625,-0.90625 z m 3.7793,0 c 0.50108,-6.2e-4 0.90774,0.40517 0.9082,0.90625 6.3e-4,0.50185 -0.40636,0.90883 -0.9082,0.90821 -0.50108,-4.6e-4 -0.90687,-0.40712 -0.90625,-0.90821 4.6e-4,-0.50032 0.40593,-0.90579 0.90625,-0.90625 z m 79.37109,0 c 0.50033,4.6e-4 0.90579,0.40593 0.90625,0.90625 6.2e-4,0.50109 -0.40517,0.90775 -0.90625,0.90821 -0.50184,6.2e-4 -0.90882,-0.40636 -0.9082,-0.90821 4.6e-4,-0.50108 0.40712,-0.90687 0.9082,-0.90625 z m 3.7793,0 c 0.50032,4.6e-4 0.90579,0.40593 0.90625,0.90625 6.2e-4,0.50109 -0.40517,0.90775 -0.90625,0.90821 -0.50108,-4.6e-4 -0.90687,-0.40712 -0.90625,-0.90821 4.6e-4,-0.50032 0.40593,-0.90579 0.90625,-0.90625 z m 3.7793,0 c 0.50107,-6.2e-4 0.90774,0.40517 0.9082,0.90625 6.2e-4,0.50185 -0.40637,0.90883 -0.9082,0.90821 -0.50109,-4.6e-4 -0.90687,-0.40712 -0.90625,-0.90821 4.6e-4,-0.50032 0.40592,-0.90579 0.90625,-0.90625 z m 3.77929,0 c 0.50108,-6.2e-4 0.90775,0.40517 0.90821,0.90625 6.2e-4,0.50185 -0.40636,0.90883 -0.90821,0.90821 -0.50108,-4.6e-4 -0.90687,-0.40712 -0.90625,-0.90821 4.6e-4,-0.50032 0.40593,-0.90579 0.90625,-0.90625 z m 3.7793,0 c 0.50108,-6.2e-4 0.90775,0.40517 0.9082,0.90625 6.2e-4,0.50185 -0.40636,0.90883 -0.9082,0.90821 -0.50108,-4.6e-4 -0.90687,-0.40712 -0.90625,-0.90821 4.6e-4,-0.50032 0.40593,-0.90579 0.90625,-0.90625 z m 3.7793,0 c 0.50108,-6.2e-4 0.90774,0.40517 0.9082,0.90625 6.2e-4,0.50185 -0.40636,0.90883 -0.9082,0.90821 -0.50108,-4.6e-4 -0.90687,-0.40712 -0.90625,-0.90821 4.6e-4,-0.50032 0.40593,-0.90579 0.90625,-0.90625 z m 3.78125,0 c 0.50032,4.6e-4 0.90579,0.40593 0.90625,0.90625 6.2e-4,0.50109 -0.40517,0.90775 -0.90625,0.90821 -0.50185,6.2e-4 -0.90883,-0.40636 -0.90821,-0.90821 4.6e-4,-0.50108 0.40713,-0.90687 0.90821,-0.90625 z m 3.77929,0 c 0.50033,4.6e-4 0.90579,0.40593 0.90625,0.90625 6.2e-4,0.50109 -0.40516,0.90775 -0.90625,0.90821 -0.50183,6.2e-4 -0.90882,-0.40636 -0.9082,-0.90821 4.6e-4,-0.50108 0.40713,-0.90687 0.9082,-0.90625 z m 3.7793,0 c 0.50032,4.6e-4 0.90579,0.40593 0.90625,0.90625 6.2e-4,0.50109 -0.40517,0.90775 -0.90625,0.90821 -0.50184,6.2e-4 -0.90882,-0.40636 -0.9082,-0.90821 4.6e-4,-0.50108 0.40712,-0.90687 0.9082,-0.90625 z m 3.7793,0 c 0.50032,4.6e-4 0.90579,0.40593 0.90625,0.90625 6.2e-4,0.50109 -0.40517,0.90775 -0.90625,0.90821 -0.50108,-4.6e-4 -0.90687,-0.40712 -0.90625,-0.90821 4.6e-4,-0.50032 0.40593,-0.90579 0.90625,-0.90625 z m -143.623049,3.7793 c 0.501078,-6.2e-4 0.907738,0.40517 0.908203,0.90625 6.16e-4,0.50184 -0.406361,0.90882 -0.908203,0.9082 -0.501079,-4.6e-4 -0.906866,-0.40712 -0.90625,-0.9082 4.61e-4,-0.50032 0.405935,-0.90579 0.90625,-0.90625 z m 3.78125,0 c 0.500318,4.6e-4 0.905789,0.40593 0.90625,0.90625 6.12e-4,0.50108 -0.405172,0.90774 -0.90625,0.9082 -0.501842,6.2e-4 -0.90882,-0.40636 -0.908203,-0.9082 4.61e-4,-0.50108 0.407124,-0.90687 0.908203,-0.90625 z m 3.779297,0 c 0.500318,4.6e-4 0.905788,0.40593 0.90625,0.90625 6.12e-4,0.50108 -0.405172,0.90774 -0.90625,0.9082 -0.501842,6.2e-4 -0.90882,-0.40636 -0.908204,-0.9082 4.65e-4,-0.50108 0.407125,-0.90687 0.908204,-0.90625 z m 3.779296,0 c 0.500315,4.6e-4 0.905789,0.40593 0.90625,0.90625 6.16e-4,0.50108 -0.405171,0.90774 -0.90625,0.9082 -0.501842,6.2e-4 -0.908819,-0.40636 -0.908203,-0.9082 4.65e-4,-0.50108 0.407125,-0.90687 0.908203,-0.90625 z m 3.779297,0 c 0.500315,4.6e-4 0.905789,0.40593 0.90625,0.90625 6.16e-4,0.50108 -0.405171,0.90774 -0.90625,0.9082 -0.501078,-4.6e-4 -0.906866,-0.40712 -0.90625,-0.9082 4.61e-4,-0.50032 0.405932,-0.90579 0.90625,-0.90625 z m 3.779299,0 c 0.50032,4.6e-4 0.90579,0.40593 0.90625,0.90625 6.2e-4,0.50108 -0.40517,0.90774 -0.90625,0.9082 -0.50108,-4.6e-4 -0.906868,-0.40712 -0.906252,-0.9082 4.61e-4,-0.50032 0.405931,-0.90579 0.906252,-0.90625 z m 3.7793,0 c 0.50107,-6.2e-4 0.90774,0.40517 0.9082,0.90625 6.2e-4,0.50184 -0.40637,0.90882 -0.9082,0.9082 -0.50108,-4.6e-4 -0.90687,-0.40712 -0.90626,-0.9082 4.6e-4,-0.50032 0.40594,-0.90579 0.90626,-0.90625 z m 3.77929,0 c 0.50108,-6.2e-4 0.90775,0.40517 0.90821,0.90625 6.1e-4,0.50184 -0.40637,0.90882 -0.90821,0.9082 -0.50108,-4.6e-4 -0.90687,-0.40712 -0.90625,-0.9082 4.6e-4,-0.50032 0.40593,-0.90579 0.90625,-0.90625 z m 86.92969,0 c 0.50032,4.6e-4 0.90579,0.40593 0.90625,0.90625 6.2e-4,0.50108 -0.40517,0.90774 -0.90625,0.9082 -0.50108,-4.6e-4 -0.90687,-0.40712 -0.90625,-0.9082 4.6e-4,-0.50032 0.40593,-0.90579 0.90625,-0.90625 z m 3.7793,0 c 0.50107,-6.2e-4 0.90774,0.40517 0.9082,0.90625 6.2e-4,0.50184 -0.40637,0.90882 -0.9082,0.9082 -0.50109,-4.6e-4 -0.90687,-0.40712 -0.90625,-0.9082 4.6e-4,-0.50032 0.40592,-0.90579 0.90625,-0.90625 z m 3.77929,0 c 0.50108,-6.2e-4 0.90775,0.40517 0.90821,0.90625 6.2e-4,0.50184 -0.40637,0.90882 -0.90821,0.9082 -0.50108,-4.6e-4 -0.90687,-0.40712 -0.90625,-0.9082 4.6e-4,-0.50032 0.40593,-0.90579 0.90625,-0.90625 z m 3.7793,0 c 0.50108,-6.2e-4 0.90775,0.40517 0.9082,0.90625 6.2e-4,0.50184 -0.40636,0.90882 -0.9082,0.9082 -0.50108,-4.6e-4 -0.90687,-0.40712 -0.90625,-0.9082 4.6e-4,-0.50032 0.40593,-0.90579 0.90625,-0.90625 z m 3.7793,0 c 0.50108,-6.2e-4 0.90774,0.40517 0.9082,0.90625 6.2e-4,0.50184 -0.40636,0.90882 -0.9082,0.9082 -0.50108,-4.6e-4 -0.90687,-0.40712 -0.90625,-0.9082 4.6e-4,-0.50032 0.40593,-0.90579 0.90625,-0.90625 z m 3.78125,0 c 0.50032,4.6e-4 0.90579,0.40593 0.90625,0.90625 6.2e-4,0.50108 -0.40517,0.90774 -0.90625,0.9082 -0.50184,6.2e-4 -0.90883,-0.40636 -0.90821,-0.9082 4.6e-4,-0.50108 0.40713,-0.90687 0.90821,-0.90625 z m 3.77929,0 c 0.50033,4.6e-4 0.90579,0.40593 0.90625,0.90625 6.2e-4,0.50108 -0.40516,0.90774 -0.90625,0.9082 -0.50183,6.2e-4 -0.90882,-0.40636 -0.9082,-0.9082 4.6e-4,-0.50108 0.40713,-0.90687 0.9082,-0.90625 z m 3.7793,0 c 0.50032,4.6e-4 0.90579,0.40593 0.90625,0.90625 6.2e-4,0.50108 -0.40517,0.90774 -0.90625,0.9082 -0.50184,6.2e-4 -0.90882,-0.40636 -0.9082,-0.9082 4.6e-4,-0.50108 0.40712,-0.90687 0.9082,-0.90625 z m -143.623046,3.7793 c 0.501842,-6.2e-4 0.908819,0.40636 0.908203,0.9082 -4.65e-4,0.50108 -0.407125,0.90687 -0.908203,0.90625 -0.500315,-4.6e-4 -0.905789,-0.40593 -0.90625,-0.90625 -6.16e-4,-0.50108 0.405171,-0.90774 0.90625,-0.9082 z m 3.779297,0 c 0.501842,-6.2e-4 0.908819,0.40636 0.908203,0.9082 -4.65e-4,0.50108 -0.407125,0.90687 -0.908203,0.90625 -0.500315,-4.6e-4 -0.905789,-0.40593 -0.90625,-0.90625 -6.16e-4,-0.50108 0.405171,-0.90774 0.90625,-0.9082 z m 3.78125,0 c 0.501078,4.6e-4 0.906862,0.40712 0.90625,0.9082 -4.61e-4,0.50032 -0.405932,0.90579 -0.90625,0.90625 -0.501079,6.2e-4 -0.907742,-0.40517 -0.908203,-0.90625 -6.17e-4,-0.50184 0.406361,-0.90882 0.908203,-0.9082 z m 3.779297,0 c 0.501078,4.6e-4 0.906862,0.40712 0.90625,0.9082 -4.62e-4,0.50032 -0.405932,0.90579 -0.90625,0.90625 -0.501079,6.2e-4 -0.907739,-0.40517 -0.908204,-0.90625 -6.16e-4,-0.50184 0.406362,-0.90882 0.908204,-0.9082 z m 3.779296,0 c 0.501079,4.6e-4 0.906866,0.40712 0.90625,0.9082 -4.61e-4,0.50032 -0.405935,0.90579 -0.90625,0.90625 -0.501078,6.2e-4 -0.907738,-0.40517 -0.908203,-0.90625 -6.16e-4,-0.50184 0.406361,-0.90882 0.908203,-0.9082 z m 3.779297,0 c 0.501079,4.6e-4 0.906866,0.40712 0.90625,0.9082 -4.61e-4,0.50032 -0.405935,0.90579 -0.90625,0.90625 -0.500318,-4.6e-4 -0.905789,-0.40593 -0.90625,-0.90625 -6.16e-4,-0.50108 0.405172,-0.90774 0.90625,-0.9082 z m 3.779299,0 c 0.50108,4.6e-4 0.90687,0.40712 0.90625,0.9082 -4.6e-4,0.50032 -0.40593,0.90579 -0.90625,0.90625 -0.500321,-4.6e-4 -0.905791,-0.40593 -0.906252,-0.90625 -6.16e-4,-0.50108 0.405172,-0.90774 0.906252,-0.9082 z m 3.7793,0 c 0.50183,-6.2e-4 0.90882,0.40636 0.9082,0.9082 -4.6e-4,0.50108 -0.40713,0.90687 -0.9082,0.90625 -0.50032,-4.6e-4 -0.9058,-0.40593 -0.90626,-0.90625 -6.1e-4,-0.50108 0.40518,-0.90774 0.90626,-0.9082 z m 3.77929,0 c 0.50184,-6.2e-4 0.90882,0.40636 0.90821,0.9082 -4.6e-4,0.50108 -0.40713,0.90687 -0.90821,0.90625 -0.50032,-4.6e-4 -0.90579,-0.40593 -0.90625,-0.90625 -6.2e-4,-0.50108 0.40517,-0.90774 0.90625,-0.9082 z m 3.7793,0 c 0.50184,-6.2e-4 0.90883,0.40636 0.9082,0.9082 -4.6e-4,0.50108 -0.40712,0.90687 -0.9082,0.90625 -0.50032,-4.6e-4 -0.90579,-0.40593 -0.90625,-0.90625 -6.2e-4,-0.50108 0.40517,-0.90774 0.90625,-0.9082 z m 79.37109,0 c 0.50108,4.6e-4 0.90687,0.40712 0.90625,0.9082 -4.6e-4,0.50032 -0.40592,0.90579 -0.90625,0.90625 -0.50108,6.2e-4 -0.90774,-0.40517 -0.9082,-0.90625 -6.2e-4,-0.50184 0.40636,-0.90882 0.9082,-0.9082 z m 3.7793,0 c 0.50108,4.6e-4 0.90687,0.40712 0.90625,0.9082 -4.6e-4,0.50032 -0.40593,0.90579 -0.90625,0.90625 -0.50032,-4.6e-4 -0.90579,-0.40593 -0.90625,-0.90625 -6.2e-4,-0.50108 0.40517,-0.90774 0.90625,-0.9082 z m 3.7793,0 c 0.50183,-6.2e-4 0.90882,0.40636 0.9082,0.9082 -4.6e-4,0.50108 -0.40713,0.90687 -0.9082,0.90625 -0.50033,-4.6e-4 -0.90579,-0.40593 -0.90625,-0.90625 -6.2e-4,-0.50108 0.40516,-0.90774 0.90625,-0.9082 z m 3.77929,0 c 0.50184,-6.2e-4 0.90883,0.40636 0.90821,0.9082 -4.6e-4,0.50108 -0.40713,0.90687 -0.90821,0.90625 -0.50032,-4.6e-4 -0.90579,-0.40593 -0.90625,-0.90625 -6.2e-4,-0.50108 0.40517,-0.90774 0.90625,-0.9082 z m 3.7793,0 c 0.50184,-6.2e-4 0.90882,0.40636 0.9082,0.9082 -4.5e-4,0.50108 -0.40712,0.90687 -0.9082,0.90625 -0.50032,-4.6e-4 -0.90579,-0.40593 -0.90625,-0.90625 -6.2e-4,-0.50108 0.40517,-0.90774 0.90625,-0.9082 z m 3.7793,0 c 0.50184,-6.2e-4 0.90882,0.40636 0.9082,0.9082 -4.6e-4,0.50108 -0.40712,0.90687 -0.9082,0.90625 -0.50032,-4.6e-4 -0.90579,-0.40593 -0.90625,-0.90625 -6.2e-4,-0.50108 0.40517,-0.90774 0.90625,-0.9082 z m 3.78125,0 c 0.50108,4.6e-4 0.90687,0.40712 0.90625,0.9082 -4.6e-4,0.50032 -0.40593,0.90579 -0.90625,0.90625 -0.50108,6.2e-4 -0.90775,-0.40517 -0.90821,-0.90625 -6.2e-4,-0.50184 0.40637,-0.90882 0.90821,-0.9082 z m 3.77929,0 c 0.50109,4.6e-4 0.90687,0.40712 0.90625,0.9082 -4.6e-4,0.50032 -0.40592,0.90579 -0.90625,0.90625 -0.50107,6.2e-4 -0.90774,-0.40517 -0.9082,-0.90625 -6.2e-4,-0.50184 0.40637,-0.90882 0.9082,-0.9082 z m 3.7793,0 c 0.50108,4.6e-4 0.90687,0.40712 0.90625,0.9082 -4.6e-4,0.50032 -0.40593,0.90579 -0.90625,0.90625 -0.50108,6.2e-4 -0.90774,-0.40517 -0.9082,-0.90625 -6.2e-4,-0.50184 0.40636,-0.90882 0.9082,-0.9082 z m 3.7793,0 c 0.50108,4.6e-4 0.90687,0.40712 0.90625,0.9082 -4.6e-4,0.50032 -0.40593,0.90579 -0.90625,0.90625 -0.50032,-4.6e-4 -0.90579,-0.40593 -0.90625,-0.90625 -6.2e-4,-0.50108 0.40517,-0.90774 0.90625,-0.9082 z m -143.623049,3.77929 c 0.501845,-6.2e-4 0.908823,0.40635 0.908203,0.90821 -4.65e-4,0.50108 -0.407125,0.90687 -0.908203,0.90625 -0.500315,-4.6e-4 -0.905789,-0.40593 -0.90625,-0.90625 -6.24e-4,-0.50109 0.405167,-0.90775 0.90625,-0.90821 z m 3.78125,0 c 0.501082,4.6e-4 0.906869,0.40712 0.90625,0.90821 -4.61e-4,0.50032 -0.405932,0.90579 -0.90625,0.90625 -0.501079,6.2e-4 -0.907742,-0.40517 -0.908203,-0.90625 -6.24e-4,-0.50186 0.406357,-0.90883 0.908203,-0.90821 z m 3.779297,0 c 0.501082,4.6e-4 0.906869,0.40712 0.90625,0.90821 -4.62e-4,0.50032 -0.405932,0.90579 -0.90625,0.90625 -0.501079,6.2e-4 -0.907739,-0.40517 -0.908204,-0.90625 -6.19e-4,-0.50186 0.406358,-0.90883 0.908204,-0.90821 z m 3.779296,0 c 0.501083,4.6e-4 0.906874,0.40712 0.90625,0.90821 -4.61e-4,0.50032 -0.405935,0.90579 -0.90625,0.90625 -0.501078,6.2e-4 -0.907738,-0.40517 -0.908203,-0.90625 -6.2e-4,-0.50186 0.406358,-0.90883 0.908203,-0.90821 z m 3.779297,0 c 0.501082,4.6e-4 0.906874,0.40712 0.90625,0.90821 -4.61e-4,0.50032 -0.405935,0.90579 -0.90625,0.90625 -0.500318,-4.6e-4 -0.905789,-0.40593 -0.90625,-0.90625 -6.2e-4,-0.50109 0.405168,-0.90775 0.90625,-0.90821 z m 3.779299,0 c 0.50108,4.6e-4 0.90687,0.40712 0.90625,0.90821 -4.6e-4,0.50032 -0.40593,0.90579 -0.90625,0.90625 -0.500321,-4.6e-4 -0.905791,-0.40593 -0.906252,-0.90625 -6.2e-4,-0.50109 0.405168,-0.90775 0.906252,-0.90821 z m 3.7793,0 c 0.50183,-6.2e-4 0.90882,0.40636 0.9082,0.90821 -4.6e-4,0.50108 -0.40713,0.90687 -0.9082,0.90625 -0.50032,-4.6e-4 -0.9058,-0.40593 -0.90626,-0.90625 -6.1e-4,-0.5011 0.40517,-0.90775 0.90626,-0.90821 z m 3.77929,0 c 0.50185,-6.2e-4 0.90882,0.40635 0.90821,0.90821 -4.6e-4,0.50108 -0.40713,0.90687 -0.90821,0.90625 -0.50032,-4.6e-4 -0.90579,-0.40593 -0.90625,-0.90625 -6.2e-4,-0.50109 0.40517,-0.90775 0.90625,-0.90821 z m 86.92969,0 c 0.50108,4.6e-4 0.90687,0.40712 0.90625,0.90821 -4.6e-4,0.50032 -0.40593,0.90579 -0.90625,0.90625 -0.50032,-4.6e-4 -0.90579,-0.40593 -0.90625,-0.90625 -6.2e-4,-0.50109 0.40517,-0.90775 0.90625,-0.90821 z m 3.7793,0 c 0.50183,-6.2e-4 0.90882,0.40636 0.9082,0.90821 -4.6e-4,0.50108 -0.40713,0.90687 -0.9082,0.90625 -0.50033,-4.6e-4 -0.90579,-0.40593 -0.90625,-0.90625 -6.2e-4,-0.50109 0.40516,-0.90775 0.90625,-0.90821 z m 3.77929,0 c 0.50185,-6.2e-4 0.90883,0.40635 0.90821,0.90821 -4.6e-4,0.50108 -0.40713,0.90687 -0.90821,0.90625 -0.50032,-4.6e-4 -0.90579,-0.40593 -0.90625,-0.90625 -6.2e-4,-0.50109 0.40517,-0.90775 0.90625,-0.90821 z m 3.7793,0 c 0.50184,-6.2e-4 0.90882,0.40636 0.9082,0.90821 -4.5e-4,0.50108 -0.40712,0.90687 -0.9082,0.90625 -0.50032,-4.6e-4 -0.90579,-0.40593 -0.90625,-0.90625 -6.2e-4,-0.50109 0.40517,-0.90775 0.90625,-0.90821 z m 3.7793,0 c 0.50184,-6.2e-4 0.90882,0.40636 0.9082,0.90821 -4.6e-4,0.50108 -0.40712,0.90687 -0.9082,0.90625 -0.50032,-4.6e-4 -0.90579,-0.40593 -0.90625,-0.90625 -6.2e-4,-0.50109 0.40517,-0.90775 0.90625,-0.90821 z m 3.78125,0 c 0.50108,4.6e-4 0.90687,0.40712 0.90625,0.90821 -4.6e-4,0.50032 -0.40593,0.90579 -0.90625,0.90625 -0.50108,6.2e-4 -0.90775,-0.40517 -0.90821,-0.90625 -6.2e-4,-0.50186 0.40636,-0.90883 0.90821,-0.90821 z m 3.77929,0 c 0.50109,4.6e-4 0.90687,0.40712 0.90625,0.90821 -4.6e-4,0.50032 -0.40592,0.90579 -0.90625,0.90625 -0.50107,6.2e-4 -0.90774,-0.40517 -0.9082,-0.90625 -6.2e-4,-0.50185 0.40637,-0.90883 0.9082,-0.90821 z m 3.7793,0 c 0.50108,4.6e-4 0.90687,0.40712 0.90625,0.90821 -4.6e-4,0.50032 -0.40593,0.90579 -0.90625,0.90625 -0.50108,6.2e-4 -0.90774,-0.40517 -0.9082,-0.90625 -6.2e-4,-0.50185 0.40636,-0.90883 0.9082,-0.90821 z m -143.623046,3.7793 c 0.501842,-6.2e-4 0.908819,0.40636 0.908203,0.9082 -4.65e-4,0.50108 -0.407125,0.90687 -0.908203,0.90625 -0.500315,-4.5e-4 -0.905789,-0.40593 -0.90625,-0.90625 -6.16e-4,-0.50108 0.405171,-0.90774 0.90625,-0.9082 z m 3.779297,0 c 0.501842,-6.2e-4 0.908819,0.40636 0.908203,0.9082 -4.65e-4,0.50108 -0.407125,0.90687 -0.908203,0.90625 -0.500315,-4.5e-4 -0.905789,-0.40593 -0.90625,-0.90625 -6.16e-4,-0.50108 0.405171,-0.90774 0.90625,-0.9082 z m 3.78125,0 c 0.501078,4.6e-4 0.906862,0.40712 0.90625,0.9082 -4.61e-4,0.50032 -0.405932,0.9058 -0.90625,0.90625 -0.501079,6.2e-4 -0.907742,-0.40517 -0.908203,-0.90625 -6.17e-4,-0.50184 0.406361,-0.90882 0.908203,-0.9082 z m 3.779297,0 c 0.501078,4.6e-4 0.906862,0.40712 0.90625,0.9082 -4.62e-4,0.50032 -0.405932,0.9058 -0.90625,0.90625 -0.501079,6.2e-4 -0.907739,-0.40517 -0.908204,-0.90625 -6.16e-4,-0.50184 0.406362,-0.90882 0.908204,-0.9082 z m 3.779296,0 c 0.501079,4.6e-4 0.906866,0.40712 0.90625,0.9082 -4.61e-4,0.50032 -0.405935,0.9058 -0.90625,0.90625 -0.501078,6.2e-4 -0.907738,-0.40517 -0.908203,-0.90625 -6.16e-4,-0.50184 0.406361,-0.90882 0.908203,-0.9082 z m 3.779297,0 c 0.501079,4.6e-4 0.906866,0.40712 0.90625,0.9082 -4.61e-4,0.50032 -0.405935,0.9058 -0.90625,0.90625 -0.500318,-4.5e-4 -0.905789,-0.40593 -0.90625,-0.90625 -6.16e-4,-0.50108 0.405172,-0.90774 0.90625,-0.9082 z m 3.779299,0 c 0.50108,4.6e-4 0.90687,0.40712 0.90625,0.9082 -4.6e-4,0.50032 -0.40593,0.9058 -0.90625,0.90625 -0.500321,-4.5e-4 -0.905791,-0.40593 -0.906252,-0.90625 -6.16e-4,-0.50108 0.405172,-0.90774 0.906252,-0.9082 z m 3.7793,0 c 0.50183,-6.2e-4 0.90882,0.40636 0.9082,0.9082 -4.6e-4,0.50108 -0.40713,0.90687 -0.9082,0.90625 -0.50032,-4.5e-4 -0.9058,-0.40593 -0.90626,-0.90625 -6.1e-4,-0.50108 0.40518,-0.90774 0.90626,-0.9082 z m 3.77929,0 c 0.50184,-6.2e-4 0.90882,0.40636 0.90821,0.9082 -4.6e-4,0.50108 -0.40713,0.90687 -0.90821,0.90625 -0.50032,-4.5e-4 -0.90579,-0.40593 -0.90625,-0.90625 -6.2e-4,-0.50108 0.40517,-0.90774 0.90625,-0.9082 z m 3.7793,0 c 0.50184,-6.2e-4 0.90883,0.40636 0.9082,0.9082 -4.6e-4,0.50108 -0.40712,0.90687 -0.9082,0.90625 -0.50032,-4.5e-4 -0.90579,-0.40593 -0.90625,-0.90625 -6.2e-4,-0.50108 0.40517,-0.90774 0.90625,-0.9082 z m 79.37109,0 c 0.50108,4.6e-4 0.90687,0.40712 0.90625,0.9082 -4.6e-4,0.50032 -0.40592,0.9058 -0.90625,0.90625 -0.50108,6.2e-4 -0.90774,-0.40517 -0.9082,-0.90625 -6.2e-4,-0.50184 0.40636,-0.90882 0.9082,-0.9082 z m 3.7793,0 c 0.50108,4.6e-4 0.90687,0.40712 0.90625,0.9082 -4.6e-4,0.50032 -0.40593,0.9058 -0.90625,0.90625 -0.50032,-4.5e-4 -0.90579,-0.40593 -0.90625,-0.90625 -6.2e-4,-0.50108 0.40517,-0.90774 0.90625,-0.9082 z m 3.7793,0 c 0.50183,-6.2e-4 0.90882,0.40636 0.9082,0.9082 -4.6e-4,0.50108 -0.40713,0.90687 -0.9082,0.90625 -0.50033,-4.5e-4 -0.90579,-0.40593 -0.90625,-0.90625 -6.2e-4,-0.50108 0.40516,-0.90774 0.90625,-0.9082 z m 3.77929,0 c 0.50184,-6.2e-4 0.90883,0.40636 0.90821,0.9082 -4.6e-4,0.50108 -0.40713,0.90687 -0.90821,0.90625 -0.50032,-4.5e-4 -0.90579,-0.40593 -0.90625,-0.90625 -6.2e-4,-0.50108 0.40517,-0.90774 0.90625,-0.9082 z m 3.7793,0 c 0.50184,-6.2e-4 0.90882,0.40636 0.9082,0.9082 -4.5e-4,0.50108 -0.40712,0.90687 -0.9082,0.90625 -0.50032,-4.5e-4 -0.90579,-0.40593 -0.90625,-0.90625 -6.2e-4,-0.50108 0.40517,-0.90774 0.90625,-0.9082 z m 3.7793,0 c 0.50184,-6.2e-4 0.90882,0.40636 0.9082,0.9082 -4.6e-4,0.50108 -0.40712,0.90687 -0.9082,0.90625 -0.50032,-4.5e-4 -0.90579,-0.40593 -0.90625,-0.90625 -6.2e-4,-0.50108 0.40517,-0.90774 0.90625,-0.9082 z m 3.78125,0 c 0.50108,4.6e-4 0.90687,0.40712 0.90625,0.9082 -4.6e-4,0.50032 -0.40593,0.9058 -0.90625,0.90625 -0.50108,6.2e-4 -0.90775,-0.40517 -0.90821,-0.90625 -6.2e-4,-0.50184 0.40637,-0.90882 0.90821,-0.9082 z m 3.77929,0 c 0.50109,4.6e-4 0.90687,0.40712 0.90625,0.9082 -4.6e-4,0.50032 -0.40592,0.9058 -0.90625,0.90625 -0.50107,6.2e-4 -0.90774,-0.40517 -0.9082,-0.90625 -6.2e-4,-0.50184 0.40637,-0.90882 0.9082,-0.9082 z m 3.7793,0 c 0.50108,4.6e-4 0.90687,0.40712 0.90625,0.9082 -4.6e-4,0.50032 -0.40593,0.9058 -0.90625,0.90625 -0.50108,6.2e-4 -0.90774,-0.40517 -0.9082,-0.90625 -6.2e-4,-0.50184 0.40636,-0.90882 0.9082,-0.9082 z m 3.7793,0 c 0.50108,4.6e-4 0.90687,0.40712 0.90625,0.9082 -4.6e-4,0.50032 -0.40593,0.9058 -0.90625,0.90625 -0.50032,-4.5e-4 -0.90579,-0.40593 -0.90625,-0.90625 -6.2e-4,-0.50108 0.40517,-0.90774 0.90625,-0.9082 z m -143.623049,3.7793 c 0.501842,-6.2e-4 0.908819,0.40636 0.908203,0.9082 -4.65e-4,0.50108 -0.407125,0.90687 -0.908203,0.90625 -0.500315,-4.6e-4 -0.905789,-0.40593 -0.90625,-0.90625 -6.16e-4,-0.50108 0.405171,-0.90774 0.90625,-0.9082 z m 3.78125,0 c 0.501078,4.6e-4 0.906862,0.40712 0.90625,0.9082 -4.61e-4,0.50032 -0.405932,0.90579 -0.90625,0.90625 -0.501079,6.2e-4 -0.907742,-0.40517 -0.908203,-0.90625 -6.17e-4,-0.50184 0.406361,-0.90882 0.908203,-0.9082 z m 3.779297,0 c 0.501078,4.6e-4 0.906862,0.40712 0.90625,0.9082 -4.62e-4,0.50032 -0.405932,0.90579 -0.90625,0.90625 -0.501079,6.2e-4 -0.907739,-0.40517 -0.908204,-0.90625 -6.16e-4,-0.50184 0.406362,-0.90882 0.908204,-0.9082 z m 3.779296,0 c 0.501079,4.6e-4 0.906866,0.40712 0.90625,0.9082 -4.61e-4,0.50032 -0.405935,0.90579 -0.90625,0.90625 -0.501078,6.2e-4 -0.907738,-0.40517 -0.908203,-0.90625 -6.16e-4,-0.50184 0.406361,-0.90882 0.908203,-0.9082 z m 3.779297,0 c 0.501079,4.6e-4 0.906866,0.40712 0.90625,0.9082 -4.61e-4,0.50032 -0.405935,0.90579 -0.90625,0.90625 -0.500318,-4.6e-4 -0.905789,-0.40593 -0.90625,-0.90625 -6.16e-4,-0.50108 0.405172,-0.90774 0.90625,-0.9082 z m 3.779299,0 c 0.50108,4.6e-4 0.90687,0.40712 0.90625,0.9082 -4.6e-4,0.50032 -0.40593,0.90579 -0.90625,0.90625 -0.500321,-4.6e-4 -0.905791,-0.40593 -0.906252,-0.90625 -6.16e-4,-0.50108 0.405172,-0.90774 0.906252,-0.9082 z m 3.7793,0 c 0.50183,-6.2e-4 0.90882,0.40636 0.9082,0.9082 -4.6e-4,0.50108 -0.40713,0.90687 -0.9082,0.90625 -0.50032,-4.6e-4 -0.9058,-0.40593 -0.90626,-0.90625 -6.1e-4,-0.50108 0.40518,-0.90774 0.90626,-0.9082 z m 3.77929,0 c 0.50184,-6.2e-4 0.90882,0.40636 0.90821,0.9082 -4.6e-4,0.50108 -0.40713,0.90687 -0.90821,0.90625 -0.50032,-4.6e-4 -0.90579,-0.40593 -0.90625,-0.90625 -6.2e-4,-0.50108 0.40517,-0.90774 0.90625,-0.9082 z m 86.92969,0 c 0.50108,4.6e-4 0.90687,0.40712 0.90625,0.9082 -4.6e-4,0.50032 -0.40593,0.90579 -0.90625,0.90625 -0.50032,-4.6e-4 -0.90579,-0.40593 -0.90625,-0.90625 -6.2e-4,-0.50108 0.40517,-0.90774 0.90625,-0.9082 z m 3.7793,0 c 0.50183,-6.2e-4 0.90882,0.40636 0.9082,0.9082 -4.6e-4,0.50108 -0.40713,0.90687 -0.9082,0.90625 -0.50033,-4.6e-4 -0.90579,-0.40593 -0.90625,-0.90625 -6.2e-4,-0.50108 0.40516,-0.90774 0.90625,-0.9082 z m 3.77929,0 c 0.50184,-6.2e-4 0.90883,0.40636 0.90821,0.9082 -4.6e-4,0.50108 -0.40713,0.90687 -0.90821,0.90625 -0.50032,-4.6e-4 -0.90579,-0.40593 -0.90625,-0.90625 -6.2e-4,-0.50108 0.40517,-0.90774 0.90625,-0.9082 z m 3.7793,0 c 0.50184,-6.2e-4 0.90882,0.40636 0.9082,0.9082 -4.5e-4,0.50108 -0.40712,0.90687 -0.9082,0.90625 -0.50032,-4.6e-4 -0.90579,-0.40593 -0.90625,-0.90625 -6.2e-4,-0.50108 0.40517,-0.90774 0.90625,-0.9082 z m 3.7793,0 c 0.50184,-6.2e-4 0.90882,0.40636 0.9082,0.9082 -4.6e-4,0.50108 -0.40712,0.90687 -0.9082,0.90625 -0.50032,-4.6e-4 -0.90579,-0.40593 -0.90625,-0.90625 -6.2e-4,-0.50108 0.40517,-0.90774 0.90625,-0.9082 z m 3.78125,0 c 0.50108,4.6e-4 0.90687,0.40712 0.90625,0.9082 -4.6e-4,0.50032 -0.40593,0.90579 -0.90625,0.90625 -0.50108,6.2e-4 -0.90775,-0.40517 -0.90821,-0.90625 -6.2e-4,-0.50184 0.40637,-0.90882 0.90821,-0.9082 z m 3.77929,0 c 0.50109,4.6e-4 0.90687,0.40712 0.90625,0.9082 -4.6e-4,0.50032 -0.40592,0.90579 -0.90625,0.90625 -0.50107,6.2e-4 -0.90774,-0.40517 -0.9082,-0.90625 -6.2e-4,-0.50184 0.40637,-0.90882 0.9082,-0.9082 z m 3.7793,0 c 0.50108,4.6e-4 0.90687,0.40712 0.90625,0.9082 -4.6e-4,0.50032 -0.40593,0.90579 -0.90625,0.90625 -0.50108,6.2e-4 -0.90774,-0.40517 -0.9082,-0.90625 -6.2e-4,-0.50184 0.40636,-0.90882 0.9082,-0.9082 z m -136.062499,3.78125 c 0.500318,4.5e-4 0.905789,0.40593 0.90625,0.90625 -4.61e-4,0.50032 -0.405932,0.90579 -0.90625,0.90625 -0.501079,6.2e-4 -0.907742,-0.40517 -0.908203,-0.90625 4.61e-4,-0.50108 0.407124,-0.90687 0.908203,-0.90625 z m 3.779297,0 c 0.500318,4.5e-4 0.905788,0.40593 0.90625,0.90625 -4.62e-4,0.50032 -0.405932,0.90579 -0.90625,0.90625 -0.501079,6.2e-4 -0.907739,-0.40517 -0.908204,-0.90625 4.65e-4,-0.50108 0.407125,-0.90687 0.908204,-0.90625 z m 3.779296,0 c 0.500315,4.5e-4 0.905789,0.40593 0.90625,0.90625 -4.61e-4,0.50032 -0.405935,0.90579 -0.90625,0.90625 -0.501078,6.2e-4 -0.907738,-0.40517 -0.908203,-0.90625 4.65e-4,-0.50108 0.407125,-0.90687 0.908203,-0.90625 z m 3.779297,0 c 0.500315,4.5e-4 0.905789,0.40593 0.90625,0.90625 -4.61e-4,0.50032 -0.405935,0.90579 -0.90625,0.90625 -0.500318,-4.6e-4 -0.905789,-0.40593 -0.90625,-0.90625 4.61e-4,-0.50032 0.405932,-0.9058 0.90625,-0.90625 z m 3.779299,0 c 0.50032,4.5e-4 0.90579,0.40593 0.90625,0.90625 -4.6e-4,0.50032 -0.40593,0.90579 -0.90625,0.90625 -0.500321,-4.6e-4 -0.905791,-0.40593 -0.906252,-0.90625 4.61e-4,-0.50032 0.405931,-0.9058 0.906252,-0.90625 z m 3.7793,0 c 0.50107,-6.2e-4 0.90774,0.40517 0.9082,0.90625 -4.6e-4,0.50108 -0.40713,0.90687 -0.9082,0.90625 -0.50032,-4.6e-4 -0.9058,-0.40593 -0.90626,-0.90625 4.6e-4,-0.50032 0.40594,-0.9058 0.90626,-0.90625 z m 94.48828,0 c 0.50107,-6.2e-4 0.90774,0.40517 0.9082,0.90625 -4.6e-4,0.50108 -0.40713,0.90687 -0.9082,0.90625 -0.50033,-4.6e-4 -0.90579,-0.40593 -0.90625,-0.90625 4.6e-4,-0.50032 0.40592,-0.9058 0.90625,-0.90625 z m 3.77929,0 c 0.50108,-6.2e-4 0.90775,0.40517 0.90821,0.90625 -4.6e-4,0.50108 -0.40713,0.90687 -0.90821,0.90625 -0.50032,-4.6e-4 -0.90579,-0.40593 -0.90625,-0.90625 4.6e-4,-0.50032 0.40593,-0.9058 0.90625,-0.90625 z m 3.7793,0 c 0.50108,-6.2e-4 0.90775,0.40517 0.9082,0.90625 -4.5e-4,0.50108 -0.40712,0.90687 -0.9082,0.90625 -0.50032,-4.6e-4 -0.90579,-0.40593 -0.90625,-0.90625 4.6e-4,-0.50032 0.40593,-0.9058 0.90625,-0.90625 z m 3.7793,0 c 0.50108,-6.2e-4 0.90774,0.40517 0.9082,0.90625 -4.6e-4,0.50108 -0.40712,0.90687 -0.9082,0.90625 -0.50032,-4.6e-4 -0.90579,-0.40593 -0.90625,-0.90625 4.6e-4,-0.50032 0.40593,-0.9058 0.90625,-0.90625 z m 3.78125,0 c 0.50032,4.5e-4 0.90579,0.40593 0.90625,0.90625 -4.6e-4,0.50032 -0.40593,0.90579 -0.90625,0.90625 -0.50108,6.2e-4 -0.90775,-0.40517 -0.90821,-0.90625 4.6e-4,-0.50108 0.40713,-0.90687 0.90821,-0.90625 z m 3.77929,0 c 0.50033,4.5e-4 0.90579,0.40593 0.90625,0.90625 -4.6e-4,0.50032 -0.40592,0.90579 -0.90625,0.90625 -0.50107,6.2e-4 -0.90774,-0.40517 -0.9082,-0.90625 4.6e-4,-0.50108 0.40713,-0.90687 0.9082,-0.90625 z m -39.79492,38.70117 h 68.03125 v 11.33984 h -68.03125 z m -149.400389,3.7793 c 0.03579,-2e-4 0.07161,-2e-4 0.107422,0 5.218748,-2.2e-4 9.449435,4.23048 9.449219,9.44921 2.22e-4,5.21875 -4.230467,9.44945 -9.449219,9.44922 -5.217989,-8.5e-4 -9.447488,-4.23123 -9.447265,-9.44922 -5.59e-4,-5.17631 4.163859,-9.38952 9.339843,-9.44921 z m 245.667969,0 c 0.0367,-2.2e-4 0.0729,-2.2e-4 0.10937,0 5.21875,-2.2e-4 9.44945,4.23048 9.44922,9.44921 2.3e-4,5.21875 -4.23047,9.44945 -9.44922,9.44922 -5.21873,2.3e-4 -9.44943,-4.23047 -9.44921,-9.44922 -5.6e-4,-5.17631 4.16386,-9.38952 9.33984,-9.44921 z"
       style="fill:none;stroke:#000000;stroke-width:0.377953;stroke-linecap:round;stroke-miterlimit:4;stroke-dasharray:none;stroke-dashoffset:37.7953"
       id="rect1175" />
  </g>
  <g
     style="display:inline"
     inkscape:label="Door"
     id="layer6"
     inkscape:groupmode="layer">
    <path
       d="m 49.062636,82.000163 c -1.107998,-5e-6 -2.000392,0.891876 -2.000392,1.999877 v 6.000149 H 22.062735 v 14.999601 h 34.99993 V 91.000129 90.000189 84.00004 c 0,-1.108001 -0.892397,-1.99988 -2.000393,-1.999877 z m -9.062495,11.999783 h 2.999817 c 0.554001,0 0.99994,0.445939 0.99994,0.99994 v 4.000272 c 0,0.554 -0.445939,0.999942 -0.99994,0.999942 h -2.999817 c -0.554,0 -0.999939,-0.445942 -0.999939,-0.999942 v -4.000272 c 0,-0.554001 0.445939,-0.99994 0.999939,-0.99994 z"
       style="fill:#ff5555;stroke:#000000;stroke-width:0.1;stroke-linecap:round;stroke-miterlimit:4;stroke-dasharray:none;stroke-dashoffset:37.7953"
       id="rect2408" />
  </g>
  <g
     sodipodi:insensitive="true"
     style="display:none"
     inkscape:label="formicarium"
     id="layer4"
     inkscape:groupmode="layer">
    <path
       sodipodi:nodetypes="csssssssssssssssssssssssssssscc"
       id="path943"
       d="m 34.999998,69.999999 c 0,0 0.25247,-1.837114 0,-5 C 34.602151,60.015853 24.253254,67.628654 20,64.999999 16.829812,63.040715 15,58.72678 15,55 15,45 19.38854,49.136447 23.015625,48.280208 26.259788,47.514365 32.642976,52.357022 34.999998,50 c 1.178512,-1.178512 1.662161,-5.12248 0,-5.000001 -13.060533,0.962383 -2.062499,-11.244792 -7.062498,-11.244792 -3.333333,0 -13.44734,11.048064 -15.55625,8.466667 C 8.2134757,37.120338 13.941667,25.634375 13.941667,25.634375 14.433478,23.218077 20.113886,21.780942 20,16.03125 c -0.0715,-3.609696 1.845944,-5.200987 6.058333,-4.708333 3.843444,0.449503 10.812922,-1.342386 11.322915,3.941666 1.322917,13.706778 -7.507038,12.696592 -3.971504,16.232126 1.178512,1.178512 5.238184,-0.522192 6.590255,-1.496709 4.275622,-3.081694 0.327503,-16.94539 8.307292,-16.455208 3.327062,0.204374 0.894539,1.884753 3.120834,4.365625 5.784492,6.44595 0.487306,8.017088 1.455208,12.486458 0.788799,3.642346 1.995311,7.566293 1.139073,11.193378 -0.405916,1.719488 -5.943391,5.738882 -9.924183,6.081487 -5.314299,0.457373 2.215472,3.572312 2.311094,4.256349 C 46.546755,52.911267 48.971962,50 50,50 c 5,0 1.71224,-1.139003 4.003166,-1.929848 2.84384,-0.981715 4.938501,7.326723 8.013463,2.712163 1.058948,-1.58915 3.910667,-3.700424 6.096463,-4.201993 C 75,45 68.653028,56.17112 68.704166,56.852083 c 0.367843,4.898304 -5.798563,2.88134 -9.101043,6.295833 -3.476092,3.593992 -14.4919,-3.146679 -14.603124,1.852083 -0.09833,4.419069 3.28e-4,5.000985 0,5 v 0 z"
       style="fill:#b3b3b3;fill-rule:evenodd;stroke:none;stroke-width:0.264583px;stroke-linecap:butt;stroke-linejoin:miter;stroke-opacity:1" />
  </g>
</svg>
